/* XPM */
static char *_722ba966aba40abf8007c3dab5ed6faylorg0mZ9SEXQZ8a[] = {
/* columns rows colors chars-per-pixel */
"80 80 210 2 ",
"   c #B57F3F",
".  c #A27841",
"X  c #C5843A",
"o  c #AB824C",
"O  c #B5854C",
"+  c #BC894F",
"@  c #B68549",
"#  c #B58C55",
"$  c #BB8C53",
"%  c #BA8F5A",
"&  c #B68F58",
"*  c #BE9156",
"=  c #BD925B",
"-  c #BB9662",
";  c #BA9967",
":  c #BC9A6B",
">  c #B79766",
",  c #AD9C7B",
"<  c #B59D75",
"1  c #BD9D74",
"2  c #B39B7B",
"3  c #BE9E7A",
"4  c #BEA074",
"5  c #B4A17E",
"6  c #BDA27B",
"7  c #CC8F49",
"8  c #C18C4B",
"9  c #D38E40",
"0  c #C9914E",
"q  c #D4944E",
"w  c #DB924C",
"e  c #DD994D",
"r  c #D29046",
"t  c #C18E57",
"y  c #C49153",
"u  c #CD9353",
"i  c #C3935C",
"p  c #CB965B",
"a  c #CD995C",
"s  c #D19652",
"d  c #DC9752",
"f  c #D69953",
"g  c #DC9C54",
"h  c #D29B5E",
"j  c #DA9E5A",
"k  c #E0984E",
"l  c #E49E55",
"z  c #E29F58",
"x  c #DFA25C",
"c  c #DFA95F",
"v  c #E9A157",
"b  c #E3A35C",
"n  c #E9A45E",
"m  c #E7A85F",
"M  c #C49662",
"N  c #C59A65",
"B  c #CB9C64",
"V  c #C49D6B",
"C  c #CA9E6A",
"Z  c #D39D63",
"A  c #D49E6C",
"S  c #C39E73",
"D  c #CDA065",
"F  c #C6A16D",
"G  c #CBA16D",
"H  c #D4A266",
"J  c #DDA564",
"K  c #D3A46B",
"L  c #D9A66B",
"P  c #D6A96F",
"I  c #DBA96D",
"U  c #C4A274",
"Y  c #CCA473",
"T  c #CEA975",
"R  c #C3A47C",
"E  c #CBA67A",
"W  c #CDAA7C",
"Q  c #C7A87A",
"!  c #D2A672",
"~  c #D9A671",
"^  c #D4AA74",
"/  c #DAAB73",
"(  c #D0A779",
")  c #D4AD7B",
"_  c #D9AE7A",
"`  c #DCB076",
"'  c #D4B27E",
"]  c #DAB27D",
"[  c #E2A563",
"{  c #E9A665",
"}  c #E5AA64",
"|  c #EAAC66",
" . c #E4AC6B",
".. c #EBAD6C",
"X. c #EDB167",
"o. c #E6B16D",
"O. c #ECB16D",
"+. c #F1B26C",
"@. c #E3AE71",
"#. c #EBAF71",
"$. c #E0AE79",
"%. c #E5B274",
"&. c #ECB474",
"*. c #EEB876",
"=. c #E5B479",
"-. c #EBB67A",
";. c #E6B97D",
":. c #EDBA7C",
">. c #F1B574",
",. c #F3B976",
"<. c #F2B779",
"1. c #F2BB7C",
"2. c #F8BC7D",
"3. c #F9B471",
"4. c #F7C27E",
"5. c #BBA387",
"6. c #C5A581",
"7. c #C4AB83",
"8. c #CDAD82",
"9. c #C5AD88",
"0. c #CDAE8A",
"q. c #D1AE83",
"w. c #D0AE88",
"e. c #CDB185",
"r. c #CDB18A",
"t. c #CFB88F",
"y. c #D4B284",
"u. c #DAB584",
"i. c #DCB885",
"p. c #D3B48A",
"a. c #DAB689",
"s. c #D5B98A",
"d. c #DCBA8B",
"f. c #CDB792",
"g. c #D3B690",
"h. c #DBBD93",
"j. c #D7BA93",
"k. c #E2B782",
"l. c #E4BA85",
"z. c #EDBC83",
"x. c #E4BD8B",
"c. c #EABF89",
"v. c #E5B685",
"b. c #F2BE83",
"n. c #F9BD82",
"m. c #F2BF8B",
"M. c #E1BF93",
"N. c #DCC195",
"B. c #DBC49C",
"V. c #EEC185",
"C. c #E5C18D",
"Z. c #EDC38C",
"A. c #EEC88E",
"S. c #F3C185",
"D. c #FAC485",
"F. c #F3C48B",
"G. c #F9C68B",
"H. c #F5C98E",
"J. c #FAC98E",
"K. c #F5C886",
"L. c #E5C394",
"P. c #ECC592",
"I. c #EECA95",
"U. c #E6C69A",
"Y. c #E9C699",
"T. c #E6C99C",
"R. c #ECCB9B",
"E. c #F2C691",
"W. c #F6CA92",
"Q. c #F5CA95",
"!. c #F4CA94",
"~. c #FACB93",
"^. c #F4CD9A",
"/. c #F9CE9A",
"(. c #F9C796",
"). c #EFD19F",
"_. c #F6D096",
"`. c #FBD295",
"'. c #F5D19D",
"]. c #FBD29D",
"[. c #FCD89E",
"{. c #DDC6A2",
"}. c #DCC9A8",
"|. c #ECCEA2",
" X c #E2C8A5",
".X c #F2CFA1",
"XX c #EDD2A2",
"oX c #EFD4AA",
"OX c #F4D4A4",
"+X c #FAD6A6",
"@X c #FBD5A3",
"#X c #F4D9A4",
"$X c #FCD9A5",
"%X c #F5D6AA",
"&X c #FAD6A9",
"*X c #F5D9AD",
"=X c #FCDBAB",
"-X c #EEDCB8",
";X c #F5DBB2",
":X c #FDDDB1",
">X c #F3DFBA",
",X c #FFE1AE",
"<X c #F7E0B7",
"1X c #FEE2B3",
"2X c #FEE3B9",
"3X c #FFE9BC",
"4X c #F7E1B8",
"5X c #FEEBC3",
"6X c #FFEEC9",
"7X c #FFF0CB",
/* pixels */
"* Q.!.c.F.` c.V.L &.p ) ^.!.'.c.Y S.c.V.!.S m.:.z.1.G c.~.P.+Xm.c.F.E.m.T 6.2XF.S.;X- >...#.| C @Xb.-.$Xs.l.&.1.n.h K b.=.&.#.Q _.{ q !.B q s x } + P 4. .O. .y ",
"i F.!.V.H.P z.Z.` o.$ U !./.'.x.^ G.V.S.!.V m.b.z.1.G c.G.Y.$Xm.c.m.F.G.y.W 1Xc.m.;X% >...[ n C @Xb.z.=Xp.c.1.-.1.p K D.&.#. .R ^...x !.N g x m X.0 D *.O...%.@ ",
"$ V.Q.Z.!./ l.!.=.&.+ C H.!./.M.Y G.A.S.I.F z.z.z.1.V Z.D.^.$Xc.c.b.m.b.' W 1XV.b.%X* 2.+.{ n C @Xb.b.:Xy.c.b.1.n.h B G.-.-.@.E '.O.b ~.a x m m } 0 0 | &.&.*.  ",
"@ b.!.Z.F._ x.I.;.4.* G J.W.^.P.Y W.S.V.P.C S.z.z.>.G P.D.(.@Xz.z.m.b.b.) W 2XE.F.;XN &.....{ V &XF.F.:Xu.v.1.1.2.h B J.-.=.#.U @X..b ].N f m c X.s 8 m @.*.-.@ ",
"+ z.E.P.A./ ;.Z.Z.D.y ^ ~.W.^.P.G J.V.V.E.U F.b.:.>.U E.S.S.@Xv.z.b.b.b.y.8.1XA.S.;XN 2.....l p @XJ.W.2Xp.;.<.b.1.h B G.-.-. .S [. .n '.V x o.[ c a a m &.*.;.i ",
"$ S.!.A.E._ l.l.Z.J.i W @X!.^.Y.! J.F.V.E.C m.b.:.>.G Y.b.m./.v.c.F.:.4.] y.:XA.:.-X: 2. .{ l + ^.G.E.1Xd.v.<.b.n.h B m.z.-. .E @X#.{ ^.D b O...c u I X.1.=.-.i ",
"i Z.E.Z.P./ z.c.A.J.M W @X^.OXR.! F.z.V.!.U S.z.z.>.U ^.S.m.(.l.c.F.:.1.] y.2XQ.H.4XV 2.{ [ l t E.m.S.1Xs.:.1.m.1.Z B b.m.-. .E [.&.} !.G  .&.&.X.B ` o.S.*.%.N ",
"N E.x.P.A./ z.V.Z.~.M e.$X^.OX^.U H.V.S.!.U S.z.;.2.C .XG.G.(.l.c.F.z.S.u.' 2XOX@X-XV b.{ J k t Q.b.Z.:Xy.l.n.z.b.Z B z.S.-. .S [.O.o.^.^  .o.&.X.B ` o.m.>.=.B ",
"N !.R.I.!./ l.V.F.J.N 8.$X^.+X|.G H.V.V.A.Y F.S.z.<.N '.(.E.@Xk.c.G.m.F.u.y.1XOX$X*XN F.=.| k i /.F.H.=Xs.c.b.z.n.K B n.m.:...U ~. .b _.!  .%.O.O.a / &.S.,.%.V ",
"N I.I.I.I.K ;.F.Z.J.N 8.$X^.&X|.G F.z.V.F.Y E.F.z.1.B OX(.(.$Xv.l.F.b.F.i.p.1X+X:X*X- F.z.| l B @XE.(.1Xy.x.F.z.n.B i n.z.*. .T G. .{ !.K  .%.>.>.B `  .:.>.=.F ",
"N P.A.I.!.G ;.H.!.J.V T @X!.&X).G F.z.V.!.Y H.S.z.1.N |./.'.=Xk.l.F.b.F.i.u.2XOX;X*X= S.z.| { A +XE.'.2Xs.x.(.z.b.K B n.:.:.&.G :.[ o.!.Y  .o.>.,.a ` o.;.2.;.N ",
"C A.Z.P.!./ ;.I.H.H.V T [.I.&XXXG S.z.V.!.Y F.S.b.1.N XX/.@X:Xa.c.F.b.F.i.a.1X+X=X*X= S.z. .&.q.OX@X@X:Xs.C.Q.S.b.A B b.-.*.&.M | ..| !.G  .&.-.,.B / &.:.,.%.N ",
"C A.Z.Z.!.P z.H.C.S.N W @X!.$XR.G Z.z.F.!.Y F.m.b.1.N XX/..X=Xa.M.J.b.F.k.u.2X+X=X;X% m.S...1.p.%X=X$X:Xj.C.H.S.S.K i S.:.1.#.N | >.| ~.Y J &.1.1.a / &.:.+.%.N ",
"C !.A.P.!.P z.I.V.S.M T [.E.=X|.G K.z.F.^.Y F.S.b.1.N XX@X/.=Xv.x.(.S.S.i.s.2X;X:X%X# 1.S.%.b.r.%X=X&X:Xd.C.P.z.:.A D D.<.&.&.a { #.O.H.G x } :.1.B / O.%.[ I V ",
"Y !.A.A.!.P l.!.V.4.N ) @XA.,X|.G S.m.F.^.( H.m.z.1.B XX@X@X&Xv.x.!.S.S.k.u.2X=X:X%X% z.S.&.b.t.%X=X$X:Xd.C.!.:.&.A G D.&.-.&.$ n  .O.K.G s x -.4.a / *. .x J N ",
"T I.Z.E.`.P V._.;.-.B y.$XI.:XT.G F.z.F.!.( F.z.z.:.M ).@X@X@Xu.M.(.S.S.k.a.2X*X=X;X- 1.m.&.S.s.%X=X&X=Xx.C.!.m.4.A B D.1.<.&.$ m &.O.S.G 7 m :.1.D / O.&.m  .V ",
") !.E.A.!.^ l.!.c.S.C ) /.F.=XR.F H.Z.V./.E F.z.z.&.M I.@XOX].a.x.!.S.S.x.s.3X*X1X*X: ,.m.#.S.s.%X=X&X=Xd.x._.Q.J.H A F.:.b.O.$ :.&...F.Y j X.%.S.a ) ,.:.:.L M ",
") ^.E.V.!.^ z.!.m.H.G u./.P.$XT.G F.Z.V.Q.E S.m.m.:.N R.@XOX].y.x./.S.G.l.a.1X=X:X*X: 1.V.&.S.r.%X&X=X=Xh.c.].^.J.Z B G.1.b.&.= S.+...F.W x ,.:.1.a ] ,.z.-.I B ",
"y.^.A.Z.H.! c.!.A.G.! y.~.F.=XT.F H.V.V.^.E V.c.z.;.N I.&XOX@Xq.d.(.S.F.l.s.1X*X:X*X: 1.b.&.F.r.%X$X&X=Xd.x.'.^.S.H N D.S.b.&.D W.&.O.S.W I ,.:.1.a ] *.z.;./ N ",
"u.!.A.V.!.P c.!.Z.J.! u.^.F.$XI.G H.Z.V./.T V.V.:.&.M R.@X#X[.u.d.~.S.H.l.y.2X*X:X*X: 1.c.&.F.r.%X$X+X=Xd.l.].^.D.Z B D.S.S.&.G [.&.&.F.W o.+.;.4.D ' ,.:.:.@.V ",
"u.R.A.Z.!.^ l.!.A.H.^ a._.F.$XY.G G.Z.E.^.E F.V.b.&.M '.=XOX@Xy.l./.F.F.x.y.=X=X1X*X1 1.;.*.F.p.%X=X=X=Xd.k./.Q.D.H a G.z.b.&.^ @X&.&.F.y.%.&.z.b.H ` &.:.;.%.C ",
"u.!.P.Z.!.^ C.!.E.H.^ a._.!.=XY.G !.Z.F.^.E c.F.z.&.M R.&X+X/.q.u.~.D.F.C.y.,X$X=X*X1 S.z.:.S.t.%X$X$X=Xs.=.Q.(.D.Z B S.:.b.&.T $X-.>.F.y.@.>.:.D.H ] O.:. .@.C ",
"u.^.P.V.!.^ V.H.E.H.^ a.'.(.1XU.C H.Z.P./.E F.m.z.&.M ^.&X@X].y.] ].F.S.l.u.=X&X:XoX1 1.-.*.F.0.%X=X&X=Xa.=.W.J.D.Z B D.-.1.#.^ $X:.&.S.y.#.+.:.b.D `  .-.&.I C ",
"d.'.!.V.!.P C.I.!.H.T d.].^.1X XG !.Z.P.^.8.m.m.1.:.N ^.&X%X].y.u.~.F.S.x.y.1X$X=X;XS 1.;.*.F.0.*X=X$X=Xd._ G.G.n.Z B D.=.<.O.) =X1.>.z.p.%.>.:.m.D ^ O.&.1.h N ",
"s.'.I.V.!.^ z.!.W.H.) d.`.^.2XT.V W.P.z..X^ z.F.z.b.C ^.=X&X=Xq.B D.W.b.x.a.=X&X=X&X4 :.:.1.S.r.OX=X&X=Xa.#.E.G.n.Z N G.z.<.#.~ =Xz.*.1.s.%.O.:.S.A ! { #.#.f M ",
"d.OX!.S.!.^ l.!.E.H.q.d.].'.:XI.F ~.P.F.R._ :.F.z.1.V OX=XOX$Xp.M D.F.D.x.a.=X=X;X&X4 ;.z.:.V.e.OX,X@X=Xp. .G.E.n.Z N G.z.>.@._ =XV.&.1.p. .o.-.b.H B { #.>.f t ",
"d.'.P.F.H.G ;.F.!.H.) d.].'.:XT.C H.A.c.OXU S.P.b.S.C OX:XOX=Xq.! J.J.S.x.a.=X+X=X%X4 1.z.:.V.r.OX$X+X$Xu.J m.F.2.h C G.z.&.&._ $XV.&.1.q.%.&.z.&.B p l d { d i ",
"d.'.Y.F.!.Y ;.!.F.H.' h.].'.:XU.N S.F.m.OXG G./.z.n.C XX=XOX1Xq._ ~.E.b.M.u.=X&X=XOXR S.z.m.V.r.OX=X+X=Xq.L E.J.+.p C n.m.&.#._ +XS.&.>.) %.&.V.%.Z Z l k z f $ ",
"d.'.E.F.!.Y l.F.P.H.] d.'.'.:XT.V S.S.z.R.^ G.!.S.D.C OX=XOX1Xp._ ~.W.S.c.u.$X&X=X.XS m.z.z.c.8..X$X%X$Xu.@.(.D.| u C G.b.&.&./ $XS.#.&.q.%.>.c.F.H y X w d r O ",
"a.)./.H.!.Y :.W.F.K.y.d.].].:XU.U S.c.:..X_ G.Z.b.&.N OX:X&X=Xp.] ~.E.D.M.u.@X&X=X.X3 m.l.m.z.) /.=X&X$X_ =.(.1.n u Y D.z.O.&._ =XF.#.&.) =.&.z.D.L u k l l X $ ",
"d.R./.!.`.Y z.!.V.S.] d.~.'.:XT.Y F.F.:.^.~ m.m.%. .B R.=X&X$Xa.i.(.E.b.x.k.@X$X=X.XU b.z.:.m.E E.=X+X'.) =.(.>.l u U D.:.&...! +XS.....E #...z.:.H H e | j X i ",
"u.I.!.E.!.G -.F.H.F._ a.!.'.:XT.G S.m.m.R._ b.H.:.>.K R.&X=X$Xq.=.~.W.S.x.u.'.$XOXR.Q z.Z.:.m.E Z.$X&X/._ -./.&.l f Y D.:.O...G @XH...&.( -.>.z.F.B L b 3.b w t ",
") ^.^.P.H.N z.H.F.D.) h.*XI.Y./ Y S.F.V.OX! z.@XS.z.p.XX=X&X=Xq.a.~.H.b.x.u.+X&X&X.X3 n.-.z.z.Y ^.$X%X].~ l.@Xb.| Z E D.1.&.&.H OXF...&.8.z.-.z.S.H ^ ..<.n q % ",
"] OX'.!.!.B l.H.P.S.(  X2X&X@X` U H.E.S.$X) z.@XS.z.q.XX=XOX:Xp.a.~.H.b.x.u.+XOX;X%XR z.z.S.S.Y ^.&X&X]._ x.].b.+.Z ( D.1.:.&.K $XF...&.g.v.1.b.F.Z P &.n.l 7 M ",
"y.@X'.!.Q.B Z.!.!.F.) }.3X*X&X=.C H.F.m.OX_ V./.V.S.q.OX:XOX1Xp.a.J.F.F.C.u.&XOX;XOX6 1.m.S.z.N @X$X@X]._ l.~.m.3.A E D.:.<.=.P =XP.{ :.j.z.:.z.F.H / 2.b.g q M ",
"y.'.'.I.!.C Z.^.!.H.e.}.4XOX^.K N G.S.m.OXY V./.V.F.8.%X:XOX,Xe.y.~.S.D.L.a.$X%X:X*X6 S.:.S.-.% OX&X/.@X_ c./.m.2.L Y D.:.1.-.! =X!.[ z.a.l.-.m.S.H _ 1.m.z f i ",
"' '.^.I.^.G Z.!.!.~.e.{.>XOX'.H G H.S.S.OXY F.'.V.H.8.oX:X%X1Xp.u.~.F.G.L.u.=X%X*XoX6 S.m.F.S.N OX@X/.$Xy.c.].G.2.K Y S.:.:.:.) =XI. .:.j.z.1.z.S.H ] b.S.{ j i ",
"y.'.'.^.~.C Z.!.^.H.W B.=XOX$X%.! G.z.S.&XG K.'.V.!.8.#X:X&X1Xr.a.`.Z.F.L.u.=X%X2X*XR b.b.z.F.N %X@X(.$Xq.x.@XJ.,.L Y D.z.1.:.^ =XI...z.g.V.b.b.4.L ] S.m...j % ",
"y.'.'.!.^.G A.^.P.H.W {.:X.X&X;.^ H.V.S.OXG H.!.V.!.0.%X;X$X1Xp.a.`.Z.S.L.d.&X%X*XoXR b.S.z.G.M *X$X(.$Xq.x./.!.3.~ E 1.z.1.-.^ =X^. .V.t.Z.:.z.4.H ] S.z.O.j % ",
"W ^.^.^./.G Z.!.^.!.W B.;XOX=Xx.T ~.Z.S.OXF F.^.V.!.r.%X:X&X1Xp.a.`.Z.m.R.C.OX*X:X*X6 S.V.S.F.: oX&X].=Xp.x.'.(.3.L Y 1.1.b.=.^ 2X^...:.s.Z.1.:.z.I l.F.:.1.[ % ",
") OX^.'.'.! Z.!.P.!.) B.<XOX@Xc.^ Q.F.!.%XG !.!.F.^.e.*X=X=X:Xp.a./.Z.F. XC.=X%X:X;X4 S.Z.m.S.; OX@X@X=Xq.x./.E.<._ E 1.1.-.=._ ;XR.{ :.d.Z.b.:.<.I l.D.S.<. .* ",
") OX'.'.^.! A.!.I.!.) {.4XOX+Xc._ !.V.!.#XV Q.Q.S.^.e.;X:X&X1Xp.x.@XE.F. Xd.=X=X:X;X4 S.V.m.b.U %X[.@X=Xe.x.].(.<./ C <.n.b.=.~ :X|.{ *.s.Z.1.:.b./ l.b.c.-. .* ",
"W OX'.^.^.Y Z.^.E.^.W B.3X%X@Xx._ H.c.F.%XN !.W.V.^.q.;X=X&X:Xe.y./.F.F.U.s.&X$X:X*X4 G.Z.b.&.Q %X@X@X=X) d./.J.3.~ Y 1.-.b.z.) :X^.{ &.d.c.z.:.<.L x.b.S.b.@.= ",
") OX'.R._.Y Z.!.!.'.W {.3X@X@Xc.! F.S.S.&XN H.E.S.^.p.*X=X%X:Xp.y./.F.F.U.a.$X=X:X;XR D.V.:.&.Q OX@X+X=X8.x.~.E.>.L C 3.-.z.z._ =X^. .>.a.Z.:.:.&.L l.b.S.m.@.= ",
"W #X'.^.'.! Z.Q.^._.W {.5X+X@Xx.~ H.Z.F.%XM H.!.S.^.e.*X=X&X:Xr.a.(.F.G.U.a.&X=X*X;XR G.z.1.:.W OX@X.X&Xq.a.~.E.3.A V >.<.b.v._ &X^...:.d.x.:.&.:.I l.S.F.S.%.= ",
"y.&X'.^.@X_ Z.!.!.'.W {.3XOX@Xl.^ H.F.F.%XN !.!.S./.y.*X:X$X2Xp.a./.m.G.U.u.&X*X=X;XR S.z.1.S.8.OX@X@X:X8.v.G.n.,.Z C 2.b.b.-.! =X^...*.u.A.1.*.&.I x.D.H.S. .& ",
"W +X'.R.'._ P.^.!.'.W B.5X+X@Xl.Y W.F.W.OXV F.!.m.'.p.*X=X=X2Xp.x.^.E.E.U.d.=X$X:X;XS b.z.&.S.7.%X@X@X&X8.a.~.n.>.H U 2.b.b.-._ =X.X..:.s.A.1.:.&.L l.S.Z.S. .# ",
"W +X'.^.@X^ P.^./.[.W B.3XOX@Xl.Y F.Z.!.*XV !.!.z.'.u.;X:X%X:Xp.a./.F.F.U.a.=X=X:X;X6 F.S.-.J.7.%X'.@X:Xq.x.J.b...L ^ 1.:.z.-.^ =X^...:.d.P.b.&.&.L i.S.V.D.I O ",
"8.[.^.OX@X' Z._./.'.q.B.5X@X^.l.! H.F.F.%XV W.^.z.@X) *X;X&X:Xp.x./.m.H.T.d.:X*X1X;X: D.S.*.!.9.OX&X@X&X8.u.D.1.| H E n.1.1.:._ =X'.O.:.a.I.V.-.O.I ] ,.C.S.} o ",
"W @X'.).OX' P.Q.Q.[.W B.6X@X'.l.G F.P.!.%XC W.!.z.^.) *X:X@X4Xp.x.'.m.G.I.s.,X=X=X>XS S.F.:.~.e.@X&X/.$Xq.u.G.n.| / E n.1.-.-.~ =X!.O.:.i.P.S.:.>.L ] 4.z.D.x @ ",
"y.OX^.'.@X^ c.Q./.@X8.B.6X@XOXc.G H.F.E.&XD F.^.b.^.y.;X&X^.1Xa.d.@XF.G.U.s.:X=X1X>X: S.P.1.~.9.%X&X@X$X) u.G.<.+.$.q.2.&.-.;._ =X'.o.:.d.F.z.&.O.L _ ,.;.S.s . ",
"' =XR.'.@X) c.E.E.@X8.B.6XOX&Xx.G H.A.W.%XV F.'.:.^.y.*X(.z.#Xp.a.@XS.F.U.a.:X=X=X:X4 m.S.:.~.9.OX&X'.$Xq.a.J.1.+.=.q.<.&.&.&./ =X!.} -.d.A.z.:... ._ ..z.1.x . ",
"W h.j.^.$X_ c.^.P.[.W B.6XOX$XM.G H.F.H.OXV F./.,.^.e.*XH.%.@Xe.x.].F.G.L.s.=X$X1X<X4 S.A.-.(.9.OX=X'.$Xq.k.J.1...v.8.2.&.&.-./ $X^.} :.d.Z.z.,.>.P / O.:.>.f o ",
") , Q @X+X( F.^.E.[.y.B.6X'.&XP.G J.Z.H.&XB !.'.:.@XW *X~.;.=Xp.x.@XF.G.L.y.=X=X:X<XU S.S.:.~.8.%X=X'.$Xq.a.~.b.&.c.8.2.&.>.<./ &X!...:.d.A.z.:.2.P ' *.:.&.7 o ",
"u., 9.[.'.( F.!.E.@X8.N.6X.X=XL.G J.V.S.%XC Q.@X-.@XW =X'.V.2X8.l.].E.D.L.s.:X$X=X;X4 S.F.-.(.e.OX:X^.=XW u.~.1.&.c.8.4.&.&.<._ $X^.| :.i.P.V.:.,.P ' *.:.,.q o ",
") , 9.[.@X_ V.OXE.'.W h.6X'.=XC.D F.;.b.OXV Q.@X;.@XW *X'.S.1Xy.x.@Xm.D.L.s.=X=X:X;XU S.F.:.W.r.OX=X^.$XW y.~.b.&.c.8.n.#.&.<.! $X!...:.d.E.F.:.&.` a.*.z.O.b $ ",
"e., r._.^._ F.'.!._.Y N.7X'.2XL.G D.%.S.OXF G.(.F.'.q.=X$XP.1Xy.x.~.E.F.L.a.=X=X:X;XS m.F.*.!.r.OX=X/.].6.u.~.1.O.L.y.G.-...>.~ =X!.o.*.a.I.D.:.1.I i.-.m.&.[ & ",
"y.5.R `.R./ P.'.!.'.Y B.7X'.:XL.B D.-.F.OXV F.H.z.'.y.=X:X@X1XT l./.W.D.M.y.=X&X:X:XR F.F.*.Q.r.&X=XOX[.6._ G.-.&.L.q.J.1...&.^ @XP...*.d.A.b.;.*./ i.:.:.>. .& ",
"q., 3 `.^._ Z.'.!.].T B.7XOX:XL.D D.z.E.OX: F.H.:.^.y.OX*X&X1XW x.(.E.G.L.y.=X=X=X;XR G.S.*.!.e.%X=X.X@Xq._ J.<.#.L.y.W.b.&.&._ &XH.o.*.d.P.4.:.-.` i.4.*.&.I & ",
"y., 6.!.'._ A.^.!.'.Y h.7XOX2XC.B b.m.~.%XV D.!.m._.q.XX=X&X1Xq.x.(.m.D.M.y.=X$X;X%XS F.V.*.'.r.%X%X.X$X8._ D.&.>.Y.y./.F.b.-._ =X!...*.a.A.z.V.F.I ] 1.%.o.J & ",
"u., 6.!.+X_ A./.!.'.Y h.6XOX1XC.B b.F.W.OXN S.W.b._.) &X=X&X:X6.x./.F.D.d.y.$X#X=X=XS F.V.:.'.r.%X=X.X@X8._ F.&.>.Y.u.(.!.S.1._ $X^. .:.d.P.1.z.J./ ] *.*.o.I * ",
"_ 5 Q `.@X! E.^.!.@XY N.6XOX:Xx.a b.Z.!.OXN S.^.:.'.) %X=X@X1XT x.!.F.D.C.e.$X&X&X%XS H.V.:.~.e..X%X^.].6.) G.>.&.Y.y.W.!.F.-._ =X^.{ *.i.P.S.V.~.I ] *.z.&. .& ",
"u.6 6.`.OX_ F./.F._.F N.6XOX=XC.a :.F.F.^.N S.(.z.~.) OX&X$X=XW k.(.G.D.d.q.$X$X$X&XQ F.V.&.(.8..X&X.X/.E ~ G.#.>.x.y.~.F.S.-._ =X~.[ &.u.A.4.z.H.I ` ,.z.1.J % ",
"] 5 6.!.'.^ Z.^.F./.C h.5X'.=XC.B :.K.F.R.N S./.-.!.) |.$X@X$XY =.J.m.n.u.) =X=X_.OXU S.V.&.!.8.Y./././.E _ G.>.>.x.] ~.E.:.&.^ OX!.[ O.u.Z.:.z.!./ ` ,.z.:.x * ",
"u.R 6.~.#XL :.!.F.(.V d.5X'.:Xl.B S.E.!.%XN E./.z.^.P '.=XOX$XK x.J.m.G.$.E =X=X=X%XU S.m.z.^.f.R.@X^.[.E _ G.>.-.Y.p.~.1.:.:.P @XQ. .O.u.P.1.z.F.I ` b.b.z.x $ ",
"' j.W !.'.^ z.F.H./.C h.5X'.=Xx.K E.A.!.OXM F.(.;.@XG c.&X@X=X( P.~.m.G.k.q.=X=X=X%XU F.m.:.!.r.^.@X^.].E ~ G.<.n.T.p.J.1.:.b.P +X!.O.&.u.Y.1.z.F./ ] F.m.S.J $ ",
"y.7.R /.#XL V.!.E.].F h.5X/.:Xl.! F.Z.!.OXN F.^.z.&XD l.=X@X:XE U./.E.F.k.8.=X=X$X*XU F.m.:.!.0..X@X^.].W K J.<.b.I.a.W.-.-.z.^ OX^.O.:.s.P.1.z.z.P ] H.S.S. .$ ",
"u.5 1 /.&X^ V.F.V.[.F h.5X'.=Xl.U F.x.!.OXB F.Q.S.OXG P.:X[.2X8.Y./.E.J.i.8.=X$X$X=XU S.m.;.!.t.R.@X.X@X8.K J.<.1.I.p.~.&.-.S.^ $X^.O.1.u.P.1.l.:.P l.J.V.S.o.% ",
"a.f.S ].XX/ V.!.F.[.C h.5X'.=Xl.K E.c.(.|.G H.(.S.#XG @X=XOX1Xe.Y.@XJ.J.i.W =X$X$X*XS V.S.;.Q.r.^.@X^.[.E A J.>.1.T.s.W.&.-.S.` $XQ...1.y.Z.1.l.:./ i.!.V.V.%.= ",
"y.9.R '.*X^ V.!.P.].V h.5XOX=Xk.^ Q.c.W.|.G /.(.z.&XY &X;X@X1Xp.Y.].(.F.] ' =X&X@X;XU V.F.;.E.8.R.@X.X[.E K G.#.1.T.a.!.&.z.z.^ $X!.o.1.u.A.1.-.:./ i.~.V.z. .- ",
"y.< R _.*X~ V.Q.E.[.V N.5X^.$Xd.) !.Z.W.XXG ~./.:.&XW =X:X$X=X8.Y.@X!.G.] q.$X@X^.%XS F.E.-.E.9..X@X^.[.E L D...1.U.y.~.:.S.V.' $X^.O.:.y.L.b.;.:./ i.!.S.z.o.- ",
"y.t.q.'.OX_ Z.Q.P.[.V h.5X^.%Xx.T A.c.W.XXU _.@XS.XXW ;X;X=X=X) T.@X!.H.] W @XOX^.;XV S.m.<.W.0..X@X^.@XE / S.&.b.I.p.J.1.F.S.) $X^.&.*.y.A.1.l.*./ i.J.F.b.o.- ",
"i.r.< '.=XK z.P.F.'.V h.3XR.:Xl.T S.z.!.OXK @X/.S.'.E $X=X+X1XW T.@X(.H./ W @X@X+X;XU F.V.*.S.p..X]./.$XW ^ D.{ S.T.p.F.F.P.S.y.;X!.&.-.y.R.V.V.S.^ l.~.K.A.%.; ",
"i.< < `..XP K.c.F.[.V h.1X|.=Xd.W S.z.!.OXG '.^.Z.`.Y %X*X+X1X8.U.@X(.J.^ W $X@XOX;XC F.V.%.V.r..X@X/.$XY ^ F.{ S.I.u.G.F.F.4.u.=XQ. .:.' Y.C.-.4.! i.H.V.S.%.: ",
"' 5.2 `.&XP V.S.S.@XS N.1XR.$Xd.Y S.z.E.|.C /.@XF.[.Y %X+X@X,XW T.$X(.G.^ Y @XR.OX;XU F.V.%.S.r..X[..X@XE _ D.} S.U.y.!.H.!.V.u.%X!. .-.u.P.V.-.,.P i.!.V.Z.;.: ",
"s.2 3 _.'.P =.:.S.[.S h.,XR.%Xu.Y S.z.!.OXV ].'.S.`.E OXOXOX1XW Y.@X^.~./ Q @X#XOX%XU H.S.%.S.r.OX@X/.@XE _ D.| S.U.u.J.F.!.1.a.%XQ.J &.y.P.V.&.O.I l.W.F.F.;.; ",
"d.9.3 `.'.~ ;.-.V.[.V j.+X/.+Xl.) S.:.!..XV _.'.F.'.Y OX$XOX=X) U.@X~.~.! Y $X+XOXoXS F.S.=.S.e.OX'./.@XY ^ D.| S.U.u.H.F.!.b.u.=XQ.J =.u.P.:.%.o.L ] `.S.V.:.> ",
"u.< F `.R.K V.S.S.'.S h.OXE.'.] ^ b.:.!.OXC [.^.F._.Y OX&X+X=XE T.@X^.W.! S $XOX&X*XN F.S.%.V.r.OX/.Q.[.Y / b...S.I.p.J.F.F.z.u.&X^. .:.q.C.V.&.o.L ] H.V.V.:.: ",
"y.).C.!.^.K A.z.c._.S L.!.V.Q.P ) 1.:.!.XXV '.^.S.'.U @X&X+X,XE U.$X^.W.A E &XOX%X;XV H.S.*.V.t.OX/.(.[.Y / b.| m.Y.a.J.A.A.b.u.OXE.%.z.) C.V.*.*.P ] S.4.4.-.: ",
"y.'.C.H.+XD V.S.z.'.S N.A.z.Q.^ ^ 4.:.H.OXN /.^.S.^.U '.&X$X=XE I.@X^.W.! U +XOX%XoXV F.V.&.V.t.OX'./.@XY ^ n.| z.P.p.J.F.Z.1.y.&XV. .:.W Y.S.:.D.P ` K.:.;.=.; "
};
