/* XPM */
static char *ce120d65d3464b38b180f56c6c1e09e8dLAuRer5g5qyFekN[] = {
/* columns rows colors chars-per-pixel */
"64 64 225 2 ",
"   c #25120A",
".  c #2C160E",
"X  c #2E1B0D",
"o  c #361401",
"O  c #3A1500",
"+  c #3E1A00",
"@  c #331D0D",
"#  c #31160D",
"$  c #2B1914",
"%  c #2F1D19",
"&  c #2A1710",
"*  c #331C12",
"=  c #391E14",
"-  c #220F08",
";  c #3C2209",
":  c #3B2313",
">  c #35211A",
",  c #3E251B",
"<  c #3F2818",
"1  c #3B2514",
"2  c #392621",
"3  c #3B2F2C",
"4  c #3A2B25",
"5  c #3C352D",
"6  c #3C3334",
"7  c #3B333B",
"8  c #3E3C3B",
"9  c #383336",
"0  c #3A2F37",
"q  c #431D01",
"w  c #481F00",
"e  c #452103",
"r  c #4B2402",
"t  c #4E2905",
"y  c #45240C",
"u  c #4B2609",
"i  c #4D2A0C",
"p  c #472B0D",
"a  c #522502",
"s  c #532B06",
"d  c #5A2D06",
"f  c #542C0A",
"g  c #592E0A",
"h  c #56310D",
"j  c #5B320D",
"k  c #5C390F",
"l  c #563305",
"z  c #442A13",
"x  c #4C2D13",
"c  c #432D1B",
"v  c #4B2E1A",
"b  c #41261A",
"n  c #532E11",
"m  c #592F12",
"M  c #46311D",
"N  c #4B321D",
"B  c #4C3116",
"V  c #563213",
"C  c #5B3513",
"Z  c #5E3914",
"A  c #54341A",
"S  c #5B3619",
"D  c #543A1D",
"F  c #5D391A",
"G  c #62350E",
"H  c #633A0F",
"J  c #68390F",
"K  c #623612",
"L  c #633B14",
"P  c #6A3D15",
"I  c #633D1B",
"U  c #6B3E1B",
"Y  c #60371B",
"T  c #462E22",
"R  c #412F2B",
"E  c #473020",
"W  c #4D3524",
"Q  c #44342B",
"!  c #49372E",
"~  c #46382C",
"^  c #4A3A2D",
"/  c #563B21",
"(  c #5C3D23",
")  c #523A2C",
"_  c #5D3E2A",
"`  c #443435",
"'  c #4A3635",
"]  c #423A35",
"[  c #4B3A32",
"{  c #42363C",
"}  c #433B3C",
"|  c #4B3B3C",
" . c #4B3739",
".. c #513E38",
"X. c #633E22",
"o. c #683E25",
"O. c #5B411E",
"+. c #654115",
"@. c #6B4116",
"#. c #65411C",
"$. c #6B421C",
"%. c #6D481E",
"&. c #71441C",
"*. c #74491F",
"=. c #714117",
"-. c #5E4324",
";. c #4F4136",
":. c #45443D",
">. c #4C413D",
",. c #444037",
"<. c #5B4434",
"1. c #53443C",
"2. c #5C4A3B",
"3. c #534336",
"4. c #654223",
"5. c #6B4422",
"6. c #6E4924",
"7. c #63442A",
"8. c #6B4629",
"9. c #664A2A",
"0. c #6C4A2B",
"q. c #674927",
"w. c #724622",
"e. c #734A24",
"r. c #794D25",
"t. c #734C2A",
"y. c #794E2A",
"u. c #784726",
"i. c #755026",
"p. c #7D5026",
"a. c #75512C",
"s. c #7A522C",
"d. c #654832",
"f. c #6C4D37",
"g. c #674936",
"h. c #734E31",
"j. c #784F31",
"k. c #6F5139",
"l. c #755233",
"z. c #7A5432",
"x. c #7B5539",
"c. c #7D593B",
"v. c #775639",
"b. c #3C3741",
"n. c #3D3B42",
"m. c #443C43",
"M. c #4B3E44",
"N. c #453F49",
"B. c #493E49",
"V. c #533F40",
"C. c #3F4045",
"Z. c #454444",
"A. c #4B4444",
"S. c #4B4A45",
"D. c #45444A",
"F. c #4B454B",
"G. c #4D4A4C",
"H. c #474848",
"J. c #534245",
"K. c #544945",
"L. c #52464C",
"P. c #534C4D",
"I. c #5A4D4B",
"U. c #594A42",
"Y. c #53524D",
"T. c #5B514D",
"R. c #4D4B52",
"E. c #4D4751",
"W. c #534D53",
"Q. c #584E54",
"!. c #534E58",
"~. c #555253",
"^. c #5B5455",
"/. c #575853",
"(. c #5B5A55",
"). c #56535A",
"_. c #5B545A",
"`. c #5D5A5C",
"'. c #4F524B",
"]. c #625554",
"[. c #625A56",
"{. c #61565C",
"}. c #635C5C",
"|. c #6A5E5D",
" X c #67564C",
".X c #5F615E",
"XX c #64625C",
"oX c #6C615E",
"OX c #5E5661",
"+X c #5D5A62",
"@X c #635C63",
"#X c #695F62",
"$X c #625E68",
"%X c #6A5E69",
"&X c #656164",
"*X c #6B6363",
"=X c #67626A",
"-X c #6A636B",
";X c #6E696B",
":X c #6B6B66",
">X c #706463",
",X c #746A66",
"<X c #70656E",
"1X c #736B6C",
"2X c #7A6D6A",
"3X c #786B65",
"4X c #76736F",
"5X c #6F6672",
"6X c #6E6970",
"7X c #736D73",
"8X c #746B76",
"9X c #757372",
"0X c #7B7474",
"qX c #7A757B",
"wX c #81542C",
"eX c #815633",
"rX c #825A34",
"tX c #825C3C",
"yX c #895D37",
"uX c #855C40",
"iX c #886545",
"pX c #837774",
"aX c #7B7782",
"sX c #938A85",
"dX c #8C848F",
/* pixels */
"A.:.L.P.W.L.8 9 3 } } S.A.} } 9 M.{ { 0 M.0 { m.7 M.7 { 0 M.{.{ 7 L.^.L.A.| { 6 { { { } Z.{ } } 9 D.F.7 7 b.7 n.n.7 b.D.b.0 D.%X",
"7X*X*X&X*X;XXX*X&X~.A.}.=XP.P.^.^.~.).^.{.{.{.^.Q.A.A.F.P.}.7X0X1X*X{._.}.=XXX{.Q.^.T.^.Q.L.F.F.6X-X$X%X-X&X+X=X`.).^.R.D.D.$XqX",
"9X&X@X(.`.&X{.&X&X_.^.;X&XF.~.&XXX(.XX*X(.XX*X(.XXK.Q.S.Y.XX.X0X1X@X_.^.W.W.~.{.{._._.`.~.G.G.P.:X*XXXXX(.XXXXXX`.(.P.:.8 S.`.4X",
";X`._.W.^._.G.E.Z.^.`.+X^.G.^.`.`.(./.(.} Y./.Y.S.Y.Y.:.'..X(.1X{.`._.~.G.N.A.G._.).~.~.L.A.F.G.(.XXXX'.:./.XX/.S.:.:.:.,.S.(.:X",
"=X)._.!.)._.G.E.D.`.!.^.`.%X-X~././.(./.9 H.'.G.G..XG.S././.&X:X`.`._.~.~.^.D.7 _.^.W.W.P.G.G.G.S.G./.S.8 '.^.:.Z.Z.S././.Y.XX9X",
"_.W.W.G.E.W.F.G.E.).W.Q.`.+X=X`.R.!.).`.Z.H.R.G.)./.m.D.H.C.).&X~.^.^.Y.P.P.F.Z.`.^.P.P.P.L.F.G.~.H.G._.`.(.W.Z.:.8 Z.~.Y.S.(.9X",
"@X_._.~.Q.~.~.{.W.^.W.~._.).@X).).!.).!.).R.W.E.R.D.n.N.G.!.=X<X{.}.}.{.^.Y.^.^.^.~.^.T.P.G.J.G.F.N.N.!.).E.N.E.D.D.!.OX!.E.+X9X",
"1X;X,X*X#X*X#X*X#X*X_.].*X,X=XA.%XOX).W.%X`._._.$X_.5X_.).aXaX<XpXoX[.>X2XoX|.|.[.].[.[.T.T.T.(.~.-X%XOX@X_.$X8X@X-X8X8X5X5XaXdX",
"2X3X|.].].I.I.I.I.I.I.I.I.U.V.` L.| >.| J.L.| } M.J.J.A. .M.].;X[.I.2.U.U.1.1.1.^ [ [ >.>.1.;.;.J.M.A.A.L.F.F.A.B.B.L.Q.F.m.L.{.",
". $   - &     . $ .     $ % 2 4 > 1 , &   . . > # * * $ $ . * 1 > X   X # . X > X X X X @ > * $ $ $ $ $ $ $ $ $ % $ % > % $ % 2 ",
"T W T ) <.<.<.<.W W W ) ) <.g.g.<.-.-.x B / D D x x z x x p ; ; z 1 y < c v N W W W N N E N W v c M M c c c < M v M c M M N E E ",
"/ ( X.7. Xv.f.d.f.f.k.k.f.f.k.k.l.a.q.O.#.i.4.#.O.F k h Z V k V F S D D / ( ( X.X.( ( -.X._ X.X.F -.-.-.O.-.-.O.-.-.-.O.-.9.9.4.",
"m F ( I t.t.8.I X.F F S A V I 4.Z +.%.l t Z Z Z +.+.k l h k Z +.C Y Y K C F K C I I U o.5.5.o.5.#.#.%.%.$.%.#.+.%.%.$.L %.%.%.O.",
"g K L L w.r.5.U U P U P U U U $.5.5.%.t l 6.i.5.i.i.i.q.$.I #.%.5.e.u.U o.w.u.u.5.w.u.wXwXs.wXwX$.e.%.%.&.w.%.L +.%.$.P +.+.H l ",
"d J P J &.*.&.=.J L P &.&.=.P L t.8.F u V c.x.8.0.0.q.q.X.Y F K K L P P P P U P P P P U U =.&.U U P +.H J U U g L K K G g g d a ",
"G U J G J P J J P L J H J U &.w.C 4.7.i A c.x.8.h.0.4.( X./ S S g J J G G J P P &.U U P U P U P U U U K U t.u.U 5.U Y U 5.U U K ",
"V S V h Z Z Z Z j C C F F I X.X.C I I j V #.q.I F F V i y p x x u u f t f r r s t t s f C m m s f r r q q q w e e u y q q q q + ",
"+ p p p h x t i C S C f i e q + t h f r e r e + e + + x A n e + X.X.X.8.X.X.F S X.F X.X.X.I F S Y K F K Z F F F X.X.X.X.7._ A z ",
"F 8.l.z.a.s.e.t.U $.w.u.5.I I F f j Z Z Z I I Z 4.V V X.7.X.A A X.I I F I F F F V V V S V S V V h h C C Z V V V S S F 4.o.X.x + ",
"h q.z.a.s.i.w.w.K U w.&.I Y C C #.#.#.$.$.I Z F V i u u i i x f tXx.0.I F F F F X.I F I X.I 4.#.Y L U $.@.#.#.L C S F F X.F x + ",
"e Z 5.$.@.L J G U *.*.*.w.U U I +.Z Z L V h f h F q.t.0.v.tXv.8.x.z.a.0.0.t.6.6.5.5.#.4.#.#.#.#.%.$.$.%.$.@.#.#.$.4.5.#.X.F V u ",
"j t.rXs.s.p.r.p.*.&.U =.U &.5.U L L Y #.$.6.6.t.I 5.5.q.t.v.o.q q t Z #.#.#.I V F F F Z Z Z Z F H G G l l j j j Z P Y Z K Z C h ",
"t $.s.s.s.wXwXwXyXwXw.P U U U U 5.w.5.5.5.5.6.6.z.s.t.5.0.t.m o $.a.rXc.a.t.5.L L I #.#.+.+.$.$.L H H H L L P @.L L L U @.$.U C ",
"O h %.5.e.p.r.r.&.J d d m L 5.5.P #.@.I P #.$.I I #.5.5.5.5.f q h L +.k h h Z Z h j j f s t t s G G G G H P @.@.*.&.$.%.w.5.P d ",
"e e e i s t r r r w r s F Y f w V k j j j V j j j j C C C C K C h k +.Z Z #.t.s.I o s C U U +.+.@.@.@.@.%.*.r.*.r.*.&.&.w.&.&.$.",
"-.4.q.q.q.6.6.6.y.w.5.I I F f u k L H Z K L U Z 5.$.5.$.U $.U U @.@.$.#.6.a.z.c.j.f 5.y.a.i.i.i.*.@.L H J @.@.$.*.*.&.&.&.$.P P ",
"-.7.4.#.#.5.6.e.t.t.t.0.8.8.7.5.t.t.e.6.w.w.w.w.r.e.e.r.w.w.w.w.%.%.+.P $.5.$.Y C O C o.+.L L +.+.k H L $.*.r.*.@.@.$.$.U U L L ",
"4.9.l.q.4.0.a.e.5.w.e.t.0.5.5.o.#.$.$.@.$.$.$.$.e.e.e.u.w.w.&.&.H L L #.5.u.8.5.Y q 5.u.e.e.%.$.L H L k j j d j j L L K G g g G ",
"x O.O.V j L P G @.$.u.u.w.5.U F #.+.$.%.w.w.e.e.w.w.&.w.&.&.U U *.e.a.z.x.tXuXtXo.w 8.j.s.s.6.+.k Z h t e w a V C C K K g f g g ",
"h L #.P L @.P P L L J P U &.o.U $.@.$.w.e.e.e.r.J L L P U &.&.&.@.$.%.5.$.o.o.o.m q o.u.t.i.%.L #.#.#.L Y Y 5.s.w.w.U U U L K L ",
"+.@.$.$.&.&.&.&.*.P P P P P J J j h j L L j j G G G K P P P =.&.@.%.w.w.u.j.x.x.X.n x.tXz.rXs.e.6.6.t.0.q.#.U Y 5.o.o.o.o.U U Y ",
"s.a.t.s.r.e.r.*.P P P P U U U U U L @.5.%.%.$.&.w.u.w.&.U P P J L L K C S L Y Y n w e.5.L H l t r r e t r r r w a a s g G g a a ",
"A x n u F I x.t.g s a a w w s g r r e e r r i i i n w w q q j d L G j j j j K L $.$.I L L P P P $.&.P &.&.&.$.P P *.wXr.wXwXwXa ",
"O + y O + O n e q w u g m K K L L L L I I #.4.4.l.c.V u u.j.y.yXe.r.p.s.p.p.e.&.@.P L L P @.@.$.P @.P P =.&.&.P &.&.r.*.wXP P a ",
"n ( X.( ( S 8.X.m Y o.U u.u.u.w.&.$.$.$.5.4.4.( X.8.m x x.v.m C y.r.w.*.w.*.%.$.w.*.@.@.@.$.$.&.P @.&.P P P @.L *.&.r.r.r.&.u.P ",
"A 4.F X.8.7.0.#.X.I Y L L L L L L L L Y U #.#.F 8.x u w m j.t.t.s.s.p.i.r.r.e.r.r.w.%.$.$.%.$.$.e.r.y.r.w.%.&.w.&.&.e.e.r.&.wXP ",
"F 0.4.4.5.4.F V m h d f j H L L L L P @.w.h.l.x.S q e + n 0.X.Y $.w.s.a.t.%.%.%.#.@.P #.$.5.6.6.w.e.e.6.%.$.5.w.$.*.w.@.u.%.w.s ",
"V h.4.( F h h V K Y I $.w.i.e.e.&.u.w.y.y.z.eXc.c.h.y o 4.h.F 4.I +.#.U k j C L L Z Z L +.@.@.$.L L L Y Y U $.5.z.z.x.t.x.s.s.f ",
"V z.5.#.#.F Z %.$.#.$.6.t.t.*.@.&.&.w.e.e.t.5.4.Z 4.q y x.uXo.X.z.a.5.$.I $.5.w.#.U L Y I L Y L #.I I U #.5.6.6.t.t.t.t.x.s.z.C ",
"i 4.h h Z F j I #.I L L P +.k j L L U %.5.$.L F 5.F q y V U  Xh.l.e.$.$.5.$.#.P #.L L I U #.U I I F V C Y L U I Z f f j Y f f q ",
"+ h +.#.#.%.#.4.k k j j k L L L @.C #.C @.U V f e w + + y i A S f f g f g C C j C h f f s r r r q e e q + + q q + q e e + + O o ",
"; l h i i l t l t t r t d j h h r + h s j h j f w q q q q q O O q w w e w u a a w w w r w w r w + e e u i i f V F F F V V F F V ",
"L $.#.#.#.$.$.q.t.t.i.a.a.s.s.a.i e 6.z.z.6.$.V U V m t u u y w r i s s f t a u s r s f f C C C Z F F I 4.5.q.4.5.I V V S #.4.I ",
"j k h j L #.#.$.6.5.5.$.6.6.6.6.#.+ F 5.5.5.tXyXz.t.5.U I 4.8.t.5.U 4.X.I K F C I o.I I I I 5.5.4.4.o.4.5.q.4.#.F X.5.h.x.l.4.V ",
"j V j Z #.#.Y L h f t s h Z I 4.4.; 4.c.c.y.z.e.u.w.t.t.t.8.8.5.8.5.8.o.U 4.5.8.5.5.5.o.o.#.o.o.4.#.#.4.4.4.#.F #.4.q.0.t.0.#.V ",
"h h f h I Z h j f s t r t h Z #.l.x -.9.6.q.y.t.u.U o.U o.U U o.5.o.o.X.I I 5.8.X.X.o.X.5.I U X.5.5.4.4.6.4.#.#.5.5.#.F I #.#.Z ",
"C j h Z I I F I I I I Z Z F #.q.D p 9.c.iXtXz.t.U U K G g K L o.I I Y F C m m F I Y Y I I F S C V Z V j h s s f L 4.e.y.a.6.Z t ",
"L C s s j f d C f h j C Z Z Z F i e F V I f t a w a a a g g g f f s f f f w e t t i f f s t u w r r t r r e t r s t w q e r q O ",
"r.rXwXr.rX*.@.wXr.r.w.&.P H G G @.$.&.$.&.w.w.&.&.&.u.w.u.u.u.e.e.%.l.s.U q Y eXj.z.t.e.5.#.L I U F S Y U I #.Y Y P $.I I 5.o.i ",
"J r.r.P *.w.P =.&.&.&.&.P P L P P &.&.&.&.&.$.P $.U U P U U U U $.Y Z U Y q m 8.V C F C L Z I $.m f m m #.%.$.%.i.t.i.*.t.j.8.m ",
"L r.&.P &.w.P L L P $.P H d G J l j H L G L L j d d d s s f j j C #.#.5.5.q w Y m m C C V j j C #.P L P @.@.@.+.+.+.+.+.$.w.U w ",
"eXrXeXs.wXt.$.e.$.w.e.5.U L L Y #.4.$.4.5.$.$.#.4.5.5.5.t.i.a.s.z.tXc.l.c.m i X.v.h.h.0.8.q.4.I k k j h l l l l +.H +.@.%.e.%.j ",
"5.4.4.4.#.F F 4.F #.O.#.#.#.I F 4.F -.F A V S F X.-.4.7.4.q.q.q.0.7.V y / q w v ( / n n V A n y t t i s h k Z Z +.#.6.t.i.a.a.4.",
"B F -.D D F -.O.-.( ( O.( ( / D A N N B v x N / D D / / D D D B z A v y v o W g.g._ _ _ d.d.7._ -.-.7.7.4.9.9.d.-.4.9.8.-.-.9./ ",
"@ < M < 1 M W z c < 1 ; : : @ @ * * = : : : b T N M N B M B M M ; b E c b # T ) 2 T b T T T E c , , b = > : = = 1 * * # # = = . ",
";.^ ;.2.1.;.;.,.Q ~ ~ ~ 5 Q ~ ^ [ [ ' [ Q Q R ) ! ! ^ ^ ;.3.2.2. X[ 4 4 ' R ' 2 R R R R Q Q [ [  . .| |  ...V.V.| ' ` '  .V.J. .",
"sX9X4X4X:XoX/.XX:X[.(.XXXXXX/.[.Q.].|.].I.].#X>X|.oX,X2X3X3XpXsX*X*X}.L.^.*X_.*XOX{.*X*X*X|.*X,X%X{._.-X<X@X@X-X7X%X$X-X<X%X%X%X",
":X).'.'./.G.n.Z.Z.Z.H.C.R.H.A.H.L.B.M.M.L.{._.L.{.].Q.I.P.I.U.P.^.^.!.^.P.m.N.Q.+XOX^.R.^.~.`.`.@X+X+X+XOX@X$X&X_.!.!.~.Q.)._.$X",
"aX.X+X).).R.C.D.H.).+XH..XR.R.R.E.W.W.W.Q.{.{.{.m.L.Q.W.W._.{._.*X+XH.D.n.b.+X+X+X$X+X+X$X@X`.).~.`.(.~.~.`.).R.G.~.~.G.G.'.`.&X",
"aX$X).R.R.H.b.C.D.R.).C.+XR.R.E.N.F.E.W.E.E.W.E.{ B._.).Q.Q.).`.+X).G.G.D.OX=X!.!.R.E.E.).).R.Z.Y.(..X(.(..X/.:.Z.H.'.G.G.'./.(.",
"qX).H.C.R.R.D.R.).).`.n.$X+X$X).~.H.A.G.`.+X_.P.W.F.F.W._.`.`.@X7X@X*X).!.=X=X!.$X).G.G.P.!.Q.~.S.S.S./.(.`.Y.:././.(.Y./.(.XXXX",
"6XH.C.C.A.W.G.~.:X@X@XG..X+X:X/.S.Z.S.~.^.(.^.T.W.F.A.G.~.^.&X1X9X}.*X~.E.~.!.=X@X@X_.~.~.~.Y.Y.Y.:.,.'.(.{.(.^.`.^.^.^./.(.XXXX",
"pX^.G.S.T.^.I.^.9X#X*X|.}.#X;X^.:.2.T.(./.T./.XXoX:X:X;X*X}.;X0X,X4X2X,X*X}.^.@X{.#X*X;X}.].T.I.I.S.S.W._.$X$X@X-X@X=X1X1X*XoX:X",
"}.} 3 6 { A.` } { 3 ` A.6 :.K.6 ,.5 5 ,.,.,.8 ,.6 } A.>.S.P.S.] K.oX| 3 6 6 | 6 { | >.| ` 5 5 ` 6 6 { } m.M.B.B.M.N.E.{.@XF.A.K."
};
