/* XPM */
static char *result[] = {
/* columns rows colors chars-per-pixel */
"64 64 127 2 ",
"   c #735135",
".  c #765A45",
"X  c #7C5F49",
"o  c #785F50",
"O  c #7D624D",
"+  c #636566",
"@  c #656668",
"#  c #66686A",
"$  c #6B6B6E",
"%  c #786D61",
"&  c #766F6B",
"*  c #7C746E",
"=  c #6D6F72",
"-  c #6F7174",
";  c #727375",
":  c #797673",
">  c #7C7974",
",  c #747679",
"<  c #76797B",
"1  c #7A7C7E",
"2  c #936938",
"3  c #82654E",
"4  c #826C4F",
"5  c #8C6948",
"6  c #9C7243",
"7  c #9B744B",
"8  c #846752",
"9  c #846C53",
"0  c #8B6B53",
"q  c #877054",
"w  c #8B7355",
"e  c #89755C",
"r  c #947353",
"t  c #987653",
"y  c #9D7956",
"u  c #94745B",
"i  c #9D7B5C",
"p  c #A07549",
"a  c #A3784A",
"s  c #A27C54",
"d  c #A37E5A",
"f  c #8B7660",
"g  c #8C7963",
"h  c #80766F",
"j  c #8F7D6C",
"k  c #927D66",
"l  c #9D7C61",
"z  c #947F6C",
"x  c #817670",
"c  c #827A71",
"v  c #817E7B",
"b  c #A07F65",
"n  c #7B807F",
"m  c #A88057",
"M  c #A6815B",
"N  c #AB845D",
"B  c #B0875E",
"V  c #978268",
"C  c #98836B",
"Z  c #82807D",
"A  c #8A817F",
"S  c #9A8573",
"D  c #9D8975",
"F  c #90847A",
"G  c #A58463",
"H  c #AD8762",
"J  c #AE8963",
"K  c #A98768",
"L  c #AC8B6B",
"P  c #B08761",
"I  c #B38C64",
"U  c #B98F66",
"Y  c #B48F6A",
"T  c #BA8F68",
"R  c #B69167",
"E  c #B89165",
"W  c #B6916B",
"Q  c #BB946C",
"!  c #BD996E",
"~  c #A08B75",
"^  c #A48F7C",
"/  c #A5907E",
"(  c #B59574",
")  c #BB9672",
"_  c #BE9A72",
"`  c #B3977C",
"'  c #BC9B7A",
"]  c #C0976E",
"[  c #C09B6F",
"{  c #C29D73",
"}  c #C29F79",
"|  c #C3A076",
" . c #C5A27A",
".. c #C8A47B",
"X. c #C9A97F",
"o. c #767A80",
"O. c #7D7E81",
"+. c #7E8183",
"@. c #828485",
"#. c #858689",
"$. c #86898A",
"%. c #898C8D",
"&. c #928F8D",
"*. c #95918D",
"=. c #8C8E90",
"-. c #908F91",
";. c #8E9193",
":. c #919395",
">. c #9A9792",
",. c #9B9893",
"<. c #949699",
"1. c #95999B",
"2. c #999C9E",
"3. c #AAA098",
"4. c #979BA0",
"5. c #9C9FA1",
"6. c #9DA1A3",
"7. c #A0A2A5",
"8. c #A0A4A8",
"9. c #A5ABAC",
"0. c #C5A581",
"q. c #C8A682",
"w. c #CBAA83",
"e. c #CBAB8B",
"r. c #D0AE86",
"t. c #D2B493",
"y. c None",
/* pixels */
"y.y.y.y.y.y.y.y.1 @.$.%.%.%.$.$.#.#.<.4.y.y.y.y.y.y.y.y.y.y.y.y.y.y.y.y.y.y.y.y.y.y.y.< $.n @.$.%.%.%.;.#.@.$.2.y.y.y.y.y.y.y.y.",
"y.y.y.y.y.y.y.y.n @.#.=.;.=.$.$.#.#.1.4.y.y.y.y.y.y.y.y.y.y.y.y.y.y.y.y.y.y.y.y.y.y.y., @.+.@.$.%.%.;.$.#.@.#.2.y.y.y.y.y.y.y.y.",
"y.y.y.y.y.y.y.y.1 n @.$.=.=.=.$.#.@.1.4.y.y.y.y.y.y.y.y.G ' { w.r.w.w. .y.y.y.y.y.y.y., 1 +.@.#.%.%.%.@.#.+.@.2.y.y.y.y.y.y.y.y.",
"y.y.y.y.y.y.y.y.< @.@.#.#.$.%.@.O.@.<.6.y.y.y.y.y.y.y.y.b _ { X.w.w. .} y.y.y.y.y.y.y., 1 @.@.#.+.$.$.+.+.+.+.<.y.y.y.y.y.y.y.y.",
"y.y.y.y.y.y.y.y.o.O.O.#.$.$.@.@.O.+.<.5.y.y.y.y.y.y.y.y.l _ {  .q.0.{ { y.y.y.y.y.y.y.- O.+.O.#.%.$.+.+.O.O.+.<.y.y.y.y.y.y.y.y.",
"y.y.y.y.y.y.y.y.< < = O.#.n = < O.O.<.6.y.y.y.y.y.y.y.y.u I W Q _ T I I y.y.y.y.y.y.y., < < = O.$.+.- o.+.O.+.<.4.y.y.y.y.y.y.y.",
"y.y.y.y.y.y.y.y.O.1 = @.$.@., O.+.O.4.5.y.y.y.y.y.y.y.y.0 N B I P N m N y.y.y.y.y.y.y.- O.O.; +.$.+., O.+.O.@.<.y.y.y.y.y.y.y.y.",
"y.y.y.y.y.1.y., 1 O.O.@.#.#.O.O.O.O.=.%.#.y.<.4.<.;.y.=.F S D ^ ^ / ` *.3.y.6.8.6.y.;.= - < < O.+.+.1 O.O.O.O.$.#.y.6.6.y.y.y.y.",
"2.2.2.1.1.<.=., $ = = ; : ; ; = $ $ ; A -.<.<.4.<.-.=.-.-.-.<.4.7.7.7.5.5.5.7.7.7.7.:.& & = = = ; = = - $ $ = < $.2.6.7.6.2.2.2.",
"#.#.#.@.O.O.O., $ ; 1 1 O.O.O.1 o.; = O.@.O.@.#.O.o.o.A #.#.#.=.%.%.%.%.-.%.%.%.#.@.1 = 1 @.#.@.n n @.n 1 < ; ; +.$.$.$.@.$.@.$.",
"@.@.@.O.O.O.O.O.$ , @.@.@.#.#.@.O.o.- A O.o.O.O.O.o.o.O.O.O.#.#.#.%.%.%.$.@.@.@.O.O.1 = @.-.:.%.%.%.%.#.@.@.- = +.+.+.+.+.@.@.@.",
"#.@.O.@., ; 1 O.= < 1 @.O.+.@.@.O.; - O.@.@.O.O.@.@.O.O.@.#.A %.=.%.%.=.%.@.@.O.- ; 1 - #.:.:.=.%.=.&.$.$.:.; ; 1 +.+.O.@.@.$.$.",
"%.$.@.#.O., o.O.= o.@.@.+.+.@.@.O.; ; O.o.- O.#.#.#.O.O.#.%.#.%.$.%.%.-.=.#.@.@., < 1 - #.:.:.%.:.;.%.%.%.@.; ; +.o.+.+.%.$.$.=.",
"%.=.$.$.#.@.#.O.; O.@.@.@.@.@.@.@., ; #.o.o.#.#.#.#.#.#.#.%.%.%.%.%.=.-.-.%.%.#.#.#.O.; #.<.:.=.*.;.%.:.$.1 , < < - n $.=.=.=.$.",
"%.%.$.$.@.#.$.+.; O.#.@.#.@.#.@.#., , #.@.@.%.A #.#.#.@.#.$.$.#.#.%.-.-.:.=.#.#.+.#.+.; $.:.:.-.%.%.%.=.#.;.1 , +.+.+.=.%.%.=.%.",
"%.%.$.#.O., @.o.& O.#.#.#.@.@.@.O.: , #.#.#.#.#.#.#.@.#.#.$.#.#.#.%.&.=.=.=.#.#.< O.O.= @.:.;.=.%.%.*.$.;.;.< < $.$.+.%.+.%.%.=.",
"$.$.$.@.< - O.o.$ v #.@.@.O.@.+.+., , O.1 , +.@.@.@.#.#.#.#.#.#.@.#.%.%.%.%.$.O.; , < $ @.=.=.=.=.%.=.#.=.$., ; @.O.@.#.@.@.$.%.",
"@.@.@.+.+.+.@.< $ 1 @.@.O.O.O.O.O., : O., = O.@.O.@.@.@.@.@.@.O.Z #.%.%.$.%.@.O.@.@.< $ @.;.=.$.$.$.%.#.#.%., ; , = < @.@.O.1 O.",
"+.+.+.+.1 O.O., @ 1 @.@.O.O.@.O.O.< ; O.O.O.@.+.O.@.@.@.@.O.v O.O.@.#.#.#.#.O.@.O.+.< $ @.;.=.%.$.$.$.#.@.#., ; O.< 1 @.+.@.%.@.",
"$.+.n n 1 < 1 , $ , , , 1 1 1 O.< = $ ; < < O.O.O.O.O.O.O.O., 1 O.O.+.@.@.#.#.%.$.@.< $ n +.O.O.+.@.@.+.v 1 ; = , < O.O.+.+.O.@.",
"< , ; , ; - - $ # = = - , - = = $ @ $ - = - , , , , , , ; x * x x x c c v O.O.O.O.1 - + = = ; ; , - = = $ $ = , $ = , , < < < < ",
"y.y.y.y.y.y.y.# = O.O.O.@.+.O.O.O.1 @.#.y.y.y.y.y.y.y.y.3 d d d d d d b ` y.y.y.y.y.y.+ ; 1 < 1 @.+.O.O.o.v O.-.%.y.y.y.y.y.y.y.",
"y.y.y.y.y.y.y.y.O.O.; @.#.@., O.O.O.;.;.y.y.y.y.y.y.y.y.3 P I U P B B I y.y.y.y.y.y.y., o.o., @.#.#., o.@.O.@.1.y.y.y.y.y.y.y.y.",
"y.y.y.y.y.y.y.y., < = O.#.+.- o.+.O.;.;.y.y.y.y.y.y.y.y.8 I T T T I B U y.y.y.y.y.y.y.- < o.= O.#.O.- o.O.O.@.4.1.y.y.y.y.y.y.y.",
"y.y.y.y.y.y.y.y.1 O.O.$.#.#.+.+.O.O.=.;.y.y.y.y.y.y.y.y.0 ! Q ] ] U I T y.y.y.y.y.y.y., O.O.O.@.$.#.@.+.O.O.+.:.y.y.y.y.y.y.y.y.",
"y.y.y.y.y.y.y.y.< +.@.#.#.#.#.+.O.O.;.<.y.y.y.y.y.y.y.y.u [ [ { ] ] E Q y.y.y.y.y.y.y.< O.@.#.#.#.@.#.@.O.1 O.=.;.y.y.y.y.y.y.y.",
"y.y.y.y.y.y.y.$ , n +.@.#.+.@.+.O.O.;.1.y.y.y.y.y.y.y.y.u  .{  . .] [ ! y.y.y.y.y.y.y., O.O.+.#.@.#.#.+.O.1 O.=.;.y.y.y.y.y.y.y.",
"y.y.y.y.y.y.y., ; n n @.@.@.@.@.O.O.;.<.y.y.y.y.y.y.y.y.l  ... . .{ { ] t.y.y.y.y.y.y., O.@.+.@.#.#.@.O.O.O.@.=.;.y.y.y.y.y.y.y.",
"y.e.e.e.0.) W j , n +.+.$.@.@.@.O.O.:.-.L T ! ] } }  .} K { .... .| _ ! 0.) ) ) ] T K : O.@.@.@.#.#.#.#.@.O.#.=.D K Y ) ' ' y.y.",
"y.( } _ W N M f , n n +.@.$.@.+.O.O.-.&.d N B I U Q ! W G {  . ...| { _ _ I I H P d s * O.O.@.#.#.$.%.#.#.O.#.:.V a J R _ { _ y.",
"y.' q..._ I N f , n n +.@.$.@.@.O.O.:.&.s N B I E ! { ) K { .... . ._ ) ..Q R I U d d & o.O.@.#.A =.=.#.#.@.$.1.V y N J W _ y.y.",
"y.' w.w.} I N f , n n +.@.$.$.@.+.O.:.>.s d P T ] [ { _ L { .. ... ._ Q q.! Q I d b d x , O.@.#.#.#.#.=.$.$.%.2.V 7 M J J R y.y.",
"y.' w.w. .W N f n +.+.+.$.$.$.$.#.@.<.>.s P T ] { ..X. .Y { { .. . .{ W q.{ ] T I B s : 1 v O.#.#.%.%.%.$.#.=.7.z p P Y Q { y.y.",
"y.(  . .) R B V n +.n +.$.$.$.$.#.#.<.,.s N T T ] { } _ H ]  ... .| { W q.{ ] Q R N d 1 O.@.#.#.#.%.%.%.%.%.$.7.b s d I ) { y.y.",
"y.( } _ ! I M g n n +.%.$.%.$.$.#.@.<.,.s N Y ! [ { ..{ G ) { .. . .[ W q.{ [ T B B s > @.#.$.%.%.%.&.%.=.%.%.7.~ s P Y _ ..y.y.",
"y.L W W K d M g +.+.%.+.%.%.;.%.#.@.<.,.7 i d G I Y W L l _ {  .| { ! R ( l d i u r 0 : @.#.%.%.-.-.:.&.%.%.%.7.z 0 r i M ( y.y.",
"y.y.y.y.y.y.y.& n +.+.%.$.%.%.$.@.@.<.1.y.y.y.y.y.y.y.y.8 W ] | { [ Q Y ( y.y.y.y.y.y., #.#.%.$.=.:.:.%.=.%.=.7.@.y.y.y.y.y.y.y.",
"y.y.y.y.y.y.y.< n +.+.%.%.%.%.$.#.@.:.2.y.y.y.y.y.y.y.y.8 W {  ._ ! W J y.y.y.y.y.y.y.1 #.%.%.%.%.:.=.=.%.%.%.5.7.y.y.y.y.y.y.y.",
"y.y.y.y.y.y.y.n n +.+.=.$.=.$.#.@.O.:.2.y.y.y.y.y.y.y.y.0 W { ] ! ! W I y.y.y.y.y.y.y.1 %.#.@.%.%.>.;.;.%.%.%.7.7.y.y.y.y.y.y.y.",
"y.y.y.y.y.y.y.+.n +.+.+.#.$.$.#.@.@.1.2.y.y.y.y.y.y.y.y.3 I ] ] W R I J y.y.y.y.y.y.y.v %.#.@.#.%.%.=.=.$.@.$.7.7.y.y.y.y.y.y.y.",
"y.y.y.y.y.y.y.y.O.@.@.#.#.#.@.@.v O.<.2.y.y.y.y.y.y.y.y.O H U T I I B P y.y.y.y.y.y.y.+.%.#.@.@.#.#.#.#.+.+.%.7.y.y.y.y.y.y.y.y.",
"y.y.y.y.y.y.y.y.O.1 , @.#.@.< O.O.O.:.2.y.y.y.y.y.y.y.y.X G I B B N N H y.y.y.y.y.y.y.< @.@., O.#.#.O.o.+.v #.8.9.y.y.y.y.y.y.y.",
"y.y.y.y.y.y.y.y.1 , = +.$.O.= o.@.O.:.2.y.y.y.y.y.y.y.y.. d N B m m d m y.y.y.y.y.y.y.< 1 +.= , #.#., - @.O.%.9.y.y.y.y.y.y.y.y.",
"y.y.y.y.y.y.y.< 1 1 , n @.@.1 1 1 1 -.:.y.y.y.y.y.y.y.y.o t d d d m s d ~ y.y.y.y.y.y.- , 1 , 1 @.#.@.o.O.O.#.5.4.y.y.y.y.y.y.y.",
"2.2.2.4.4.<.$., = ; = ; , ; ; = = = 1 @.#.:.:.;.;.<.<.<.*.%.*.*.>.,.>.,.,.2.2.5.2.2.$., $ ; ; ; , v , , - - , #.;.2.6.6.5.2.2.2.",
"1.<.:.:.%.#.+., ; ; : < : , , ; = = = , #.%.=.=.=.=.;.;.;.<.;.<.:.1.1.1.<.<.:.:.:.%.@.; ; , < : , < < < , < , = $.;.;.<.:.:.,.1.",
"@.+.@.O.< < @., < @.@.@.$.#.#.@.@.@.$ = O.O.O.O.O.O.O.O.O.O.+.+.#.#.@.@.@.+.@.@.1 +.1 = 1 @.%.%.=.-.-.:.:.:.#.# < +.O.O.+.+.@.$.",
"@.@.@.O.= ; @., < @.#.@.@.#.@.@.Z 1 = , O.@.+.O.O.O.O.O.O.O.+.+.@.#.#.#.@.n @.1 - ; 1 ; 1 @.$.%.=.-.-.-.:.=.@.$ < +.+.+.+.@.#.$.",
"#.$.#.@.O.@.+., O.#.#.@.@.@.+.+.+.1 = < < - 1 @.@.+.+.+.@.@.@.@.@.%.$.=.$.@.#.+., < 1 & Z $.#.#.=.=.=.=.%.$.1 $ 1 , - @.@.#.$.$.",
"$.$.$.$.#.$.#.< @.#.#.@.@.v O.+.+.n = < @.< 1 #.+.@.+.@.@.@.@.$.$.$.$.=.%.$.$.#.+.$.+.; n $.$.$.#.$.#.@.#.#.n ; 1 1 < #.#.%.$.%.",
"=.%.$.$.O.@.@., @.#.#.@.+.+.+.+.n n ; 1 #.@.#.#.+.#.@.#.@.$.$.$.$.$.%.%.;.$.#.#.#.#.@.; @.$.$.$.#.#.#.@.#.#.Z ; @.#.@.$.$.$.%.%.",
"%.%.$.@.- , O.- @.#.#.@.+.+.+.+.+.+.; , #.#.#.#.#.+.#.@.@.@.@.@.@.%.%.$.$.$.$.@., O.@.; 1 $.$.#.#.#.#.#.#.#.O.; O.#.#.#.#.$.$.%.",
"=.=.@.+.< O.1 = n @.@.$.+.+.@.+.Z O.; , O.- 1 #.+.#.@.@.+.+.+.@.+.+.$.%.$.$.$.+.- o.O.- n #.$.$.#.#.#.@.$.@.1 = +.< , +.#.@.$.$.",
"$.@.@.1 +.+.1 $ n @.@.@.@.$.$.$.@.n ; , < - < @.O.O.+.+.n n n n +.n %.+.@.$.+.+.+.+.O.= < @.@.$.$.%.$.$.$.#.< = 1 , - +.@.+.$.%.",
"@.@.+.@.O.+.< @ n n n @.@.@.$.$.#.@.$ , +.1 +.+.O.1 1 n n n n n +.+.n $.+.+.O.O.O.O.O.# < #.#.$.=.%.%.$.$.$.< - +.O.1 @.@.@.$.@.",
"n < n < < < = + - & - ; , , , - ; $ $ ; - ; ; < , , , , < , , , n n n n O.< < O.o.O.o.# , 1 n +.@.@.@.+.@.+.; $ ; < 1 n +.n 1 n ",
"y.y.y.y.y.y.y.+ , n +.1 +.O.< , ; ; n #.# y.y.y.y.y.; ; % 9 q 4 O q w e n y.n y.< y.- # - - - - - ; - = $ $ $ 1 1 y.y.y.y.y.y.y.",
"y.y.y.y.y.y.y.y.1 n o.+.$.$.1 O.+.Z <.2.y.y.y.y.y.y.y.y.  6 7 6 2 7 2 m y.y.y.y.y.y.y.- , +.1 o.+.+.+.O.1 1 n <.y.y.y.y.y.y.y.y.",
"y.y.y.y.y.y.y.y.1 < - +.$.O.= o.@.1 1.5.y.y.y.y.y.y.y.y.. M M M m M M N y.y.y.y.y.y.y., 1 +.; < #.#.O., @.@.$.6.y.y.y.y.y.y.y.y.",
"y.y.y.y.y.y.y.y.1 1 ; +.#.@.< O.n n 1.5.y.y.y.y.y.y.y.y.O K I J J M I I y.y.y.y.y.y.y., n n - , #.@.< - @.1 $.7.6.y.y.y.y.y.y.y.",
"y.y.y.y.y.y.y.y.O.@.@.$.#.$.#.+.O.+.1.2.y.y.y.y.y.y.y.y.3 W W I R J W ! y.y.y.y.y.y.y.< O.@.O.@.#.$.@.@.+.O.#.5.y.y.y.y.y.y.y.y.",
"y.y.y.y.y.y.y.y.1 +.@.@.#.#.$.#.+.+.<.2.y.y.y.y.y.y.y.y.9 _ | _ R R _ _ y.y.y.y.y.y.y.< +.@.@.#.$.@.$.$.@.+.@.2.y.y.y.y.y.y.y.y.",
"y.y.y.y.y.y.y.y.< @.$.$.%.%.%.#.$.@.1.2.y.y.y.y.y.y.y.y.u X.X. .! _ | _ y.y.y.y.y.y.y., 1 @.+.@.#.%.%.$.@.+.#.2.y.y.y.y.y.y.y.y.",
"y.y.y.y.y.y.y.y.n @.%.%.$.%.$.$.@.#.1.2.y.y.y.y.y.y.y.y.y.y.y.y.y.y.y.y.y.y.y.y.y.y.y.< @.@.O.%.=.=.%.%.$.@.#.2.y.y.y.y.y.y.y.y."
};
