/* XPM */
static char *result[] = {
/* columns rows colors chars-per-pixel */
"64 64 107 2 ",
"   c #AC1500",
".  c #A61B00",
"X  c #AD1C00",
"o  c #B41500",
"O  c #BB1600",
"+  c #B41B00",
"@  c #BB1C00",
"#  c #AD2300",
"$  c #AD2B00",
"%  c #B42300",
"&  c #BB2300",
"*  c #B42A00",
"=  c #BB2A00",
"-  c #BF3000",
";  c #C31600",
":  c #CA1600",
">  c #C31C00",
",  c #CB1C00",
"<  c #D01700",
"1  c #D31D00",
"2  c #DB1D00",
"3  c #E31D00",
"4  c #EC1E00",
"5  c #F01F00",
"6  c #C32300",
"7  c #CC2300",
"8  c #C32A00",
"9  c #CC2A00",
"0  c #D32300",
"q  c #DB2300",
"w  c #D42A00",
"e  c #DC2C00",
"r  c #C03100",
"t  c #CD3100",
"y  c #D23000",
"u  c #DD3400",
"i  c #DD3A00",
"p  c #E32300",
"a  c #EB2400",
"s  c #E42C00",
"d  c #EB2C00",
"f  c #F32300",
"g  c #FA2500",
"h  c #F32C00",
"j  c #FB2C00",
"k  c #E53300",
"l  c #EB3300",
"z  c #E53C00",
"x  c #EB3B00",
"c  c #F43400",
"v  c #FB3400",
"b  c #F33C00",
"n  c #FC3C00",
"m  c #DF4E00",
"M  c #E54300",
"N  c #EB4300",
"B  c #E54B00",
"V  c #EB4B00",
"C  c #F44300",
"Z  c #FD4400",
"A  c #F44B00",
"S  c #FD4B00",
"D  c #E55200",
"F  c #EB5300",
"G  c #E65B00",
"H  c #EB5B00",
"J  c #F35300",
"K  c #FE5400",
"L  c #F35A00",
"P  c #FD5B00",
"I  c #E46500",
"U  c #EA6400",
"Y  c #E46A00",
"T  c #EB6C00",
"R  c #F36200",
"E  c #FE6400",
"W  c #F26B00",
"Q  c #FE6B00",
"!  c #E77200",
"~  c #EA7300",
"^  c #E57A00",
"/  c #EB7A01",
"(  c #F77001",
")  c #FE7400",
"_  c #F47B00",
"`  c #FE7C00",
"'  c #EA8202",
"]  c #E68B01",
"[  c #E98B0B",
"{  c #F48401",
"}  c #FE8200",
"|  c #F58B01",
" . c #FE8C00",
".. c #E79001",
"X. c #EC9200",
"o. c #E29A00",
"O. c #EF9800",
"+. c #F49400",
"@. c #FC9500",
"#. c #F39C00",
"$. c #FD9B00",
"%. c #E2A200",
"&. c #EBA302",
"*. c #F4A400",
"=. c #FBA300",
"-. c #E4B500",
";. c #E7A01A",
/* pixels */
"v 2 1 , @ O ; 1 k M , O o   o O + + 7 k L W L A A C Z Z Z S Z A T V b a p 0 7 0 s b L C a 1 ; ; > q b Z c h 7 @ & 6 7 , 1 , 4 S ",
"j 1 , ; ; > > , z V 7 > o   o @ @ & 0 x W L b s q , e s d j j v S L Z j a p p s d A R A d 3 : , 2 q s b Z c 7 @ + O 6 > 7 1 h K ",
"j q > ; > @ @ > M F e 6 + X + + @ 6 0 z H z 0 ; O o @ , 0 2 p a v L E Z v c c c n J R C l q 1 2 q p s l b l 9 @ + + @ & > 2 j E ",
"c q 0 7 , @ & > k U k @ # $ * * & @ , u s , o o o + O @ 6 ; , 0 s n P K Z n n v b Q L Z l q q q p s l x c s > @ & > > > > 1 b R ",
"d 0 , 7 , > & @ k G k > % # * - % + , s 1 o     X + + + > @ > 0 w s Z P P S n v Z ) K b d p p e s d b J A s 7 & & 6 6 > , p F T ",
"a 1 @ ; 0 1 , 1 s G z q > @ * * X + 1 2 O o       X % + @ > 7 q s h n Z E E K Z P ) Z c j d d s k c Z R J l e w 0 e s e k V T ~ ",
"k q , 2 s c c l V G D k q , + # X O < : o o     # % + O @ 6 , 0 d c n S P Q ) E ) Q n n v j j n b c V / U F C b c c l V F U T ~ ",
"G z k l N K n c k x l N n d 0 > O < < O o o o + # $ X + O @ 6 9 d c J P S Z S S Z K P Z n n n C z V B F A N C l d l 0 0 0 y k M ",
"M I U z M k s e e 9 0 d v v a p 2 3 1 ; o o o + % % + o O @ 9 s v A J C c h d c n n S E E K A H U T N x l d e 0 9 6 + o o O @ 0 ",
"1 q k s e 6 6 8 = & & 6 0 p p a h j p , @ O + O % % + O ; , e c A N l s 0 9 7 9 e c n K E S N N G / H N b e 9 7 6 & + + o     o ",
"O 1 q 0 > + & & % 6 @ @ @ & , p j c v a 0 @ @ & & & @ ; : p c A N p 2 , @ + & & 9 c Z S K c l l N J V C b u 9 7 8 & %   o X .   ",
"O q 0 > & + @ @ > , > O + + + 2 d x x h p 9 9 6 6 6 7 2 a v c k q 0 > O O + O @ 7 d Z K S c c c x x z V b k 9 8 & & + X X X   . ",
"> p w 6 % + > > ; ; ; O % % + , a k G d 3 q w 9 0 1 p j n v q 7 6 > O + + + + + @ q v P K b l d e s l x A l w = & @ + + + X + # ",
"9 s q 6 @ 6 w 7 ; ; ; O + # @ , s k B k q p a f a f j Z K l > & % O O o @ > & @ & 0 h K S c u 0 w w s d b b w 8 & @ + X X + X % ",
"k k e 6 6 w e w ; ; @ @ + & @ 0 s d N B M z x n j h S P n p > % % O + + @ 6 6 6 & 7 h K Z k 9 9 7 9 9 y x S M 9 9 @ + + % % % & ",
"x M k e 9 u w 7 > > @ + + @ 7 e h c b b l M J R H R R c g 0 @ O @ @ O + & 6 6 6 6 7 x P b w 6 6 = 6 9 8 y x S z 9 & + + % 6 6 e ",
"B G V b l k w 6 @ O o o + & 0 s d k d a e w w l c A W v f 1 @ O @ + O @ 6 8 6 6 > 9 b S u 9 % % % * 6 6 7 e c C k 9 & & 9 e z B ",
"N M F K S x e 6 % O + + + @ q s p q q 0 6 & % > a j L P j p 7 > & & + > 6 9 6 & @ q n A w & + + + X & 6 7 9 p v b s e u z M V B ",
"x x K E P n d w > @ @ + & 0 p h p 1 , & & +   O 1 j n Q S h 9 9 7 @ @ 6 6 6 @ @ & s Z M 9 % +   X X @ 7 0 9 p j Z Z Z A M k N x ",
"b n S P E Z b d p 9 7 7 q q a f 1 > @ @ % O + O , a v K Q Z q 6 6 6 8 9 6 @ + O > c S N 9 @ + + + O @ 0 q 7 s n K K E K Z b x b ",
"n n S K P P A n v c l d d p a a 2 ; @ + % @ @ @ > 0 d Z E P n q 6 = - = 8 6 & @ 0 n K M w @ + X O @ , w w 7 d S S K ) E C n b b ",
"Z Z S P Q ) } P Z Z Z v v v j f p 6 6 % @ @ @ , 0 9 w l S E K n e 9 - 8 6 8 6 , e n K z w & O O > 7 9 w 7 s n S S S P Q K Z Z Z ",
"K S K E ) ` } ` P C b d d h d h p @ % = & & 7 0 w 9 t e h n E S v e t 9 7 7 7 q h n K C d 0 , , 0 w 9 0 p v S Z Z Z Z L P Z Z S ",
"K K K Q } } ` Q C l 0 , 0 1 3 a 3 & % = & 6 6 9 r 8 6 7 q h L ( Z c s w q q q p c S E S n l 0 1 1 , 7 0 c Z S Z Z v s s Z Z K P ",
"Q E E Q )  .} J l e , ; > ; , 1 2 > = 8 8 6 = = % + + @ 2 b W +.R C c v v d a d l A ) S n h q 1 , 1 0 d A L S n n h 0 0 l Z P ` ",
"#.+.| _ W  .} Z d 0 O O O @ @ > 1 7 8 8 - = = % + + @ ; p A _ R F J F S S k l k l L ) Z c d p 2 q q s k F J C b v c s d c K P { ",
"X.&.&.;.[ _ P Z l 7 O o O + @ + O < , 6 & & % # + @ , 3 4 c C l s k B R E V l k x U ) Z b d 3 3 p p p M F z b b c v v Z Z E L W ",
"~ ~ I D M V S n c 1 @ @ + X + X O 2 3 q 6 % + O @ > 1 1 , 3 a 2 q s k C R U z l x R Q S b s a p a d x G V x x c c v n Z Z Q / U ",
"z x k e e z V d s 2 > @ + + o O > 2 4 a p 6 @ ; ; > & + @ , , , 1 s k c b M z k l E E Z c p p l k z G T x k x b c v n Z S J B m ",
"7 7 7 7 e k k k e 0 > @ o o o O 1 a d d g f f 3 > & @ @ O O : : 3 d l c c s l c K ) Q Z v h a l x G ..G x l c c n S K S Z e 6 @ ",
"6 6 @ 6 e x B M k e 6 @ O O ; 1 4 a 0 0 p j n j 2 7 , > O O : < 4 h c j s e l c C W W A n v j x N / ^ M x b A K K P P Z s > + & ",
"6 6 @ , k V z V J x e , , ; : 1 1 6 > > q j Z K n q q ; ; ; : 2 a v n j q 0 e l x F _ L n Z n C W X.~ J T ` Q K S Z Z c w 6 @ @ ",
"@ > @ , x M k k V L b 3 3 4 p ; & & @ , p b c n S C d q 1 , 3 5 j n Z v a 2 s l x V T T C n Z P @.*.#.} ` ) K Z n v h e w 6 @ O ",
"> > ; 0 z k w 9 i V L n j v a ; O + + , s V p q d c C c d f j v v Z Z b l d d k N V H / L b P ) $.$.` E P K Z n v f e e 0 6 > O ",
"> > 7 k N k 8 & 6 e S Q E C 1 @ X + + 6 M M 0 1 1 q l P P S S n Z Z Z b z k x k z V U [ / R ( } ` Q P K S Z Z v h 2 1 0 0 7 > : ",
", > q x M 9 % + @ 1 k Z R B 9 & + + + 9 V k , , , > 0 C `  .Q S Z S A x x x x x k F / / T / +.` P S S S n v v j a 1 7 , 7 > > , ",
"q a x A k & + & > 1 0 1 s M 9 & % @ @ e V q > > > 6 9 d Z ` $.} K A A x l k k l k M G V x V ` ) S Z Z n j g f 3 2 7 6 @ > > 6 , ",
"a n K S s 6 @ @ 6 9 & ; : z e 6 @ ; 1 k M p ; @ & 6 0 a v n ` $.Q Z b x l l s s w e k k l c K Q K n n Z n g 3 2 , > @ @ @ 6 7 > ",
"h Z P n e > @ @ & * % O ; k B q , 1 p z M 3 2 7 9 7 1 a c v S Q K n c d d p 2 , + & 7 q l v n S L C n Z n j a q 7 % X X @ & 7 0 ",
"h C A l 0 6 @ % % % + X @ e Y i 2 2 d V V 4 4 q 0 7 1 p d h v S Z v h a 2 1 @ X # + 6 q d v c b H U C Z Z v d s w & . + @ 6 7 p ",
"a x N l q ; & @ & % + o > 2 m I d d x T L g f 2 0 0 2 3 a d c c j g g 4 1 ;   . . # > q d d l k V ! H V C b x k k 7 6 7 p p p 3 ",
", 2 k F k q 6 + % @ @ @ ; 0 k ~ F x z { E n f 3 q e e s k V V h g 5 5 3 < o   . . X 1 p d s s x N T ' H F W H N k s 0 0 p q 7 , ",
"o O , e B z 0 1 , 2 1 , , q s T / M C | E n d e u M B D M M s a 5 g 5 4 : O X . X ; 3 4 a s k N V T ~ V V H J b k s q 2 1 6 +   ",
"  + o ; ; w M C j j f 3 p p k F ] W W =.K b z B B B z z e 0 1 2 5 g 5 2 @ O o o @ 2 4 5 a s z N G ' ! x x z b c s e q 2 q 8 +   ",
"      o o ; x P E S v j d d c S { $.$.*.J M M x s q 0 7 @ & , 1 5 g f , @ > @ O ; < 3 5 a d x M U ../ z k k k h a 2 3 p q 7 + X ",
"X   o @ > , h n K R K n c l c S ) =.*.T i u s s 2 ; @ + X + @ 7 p g f > @ > > O O : 3 4 h l l G ] ! G M k e e q 3 2 2 q q 7 + X ",
"X + + @ 6 0 a h j C E Q A M N A K ` R i 9 9 * & & + X X + + + & w p q > 6 7 > @ O ; 2 p k c J ' ^ B D B k u w 7 , 1 7 0 0 , + + ",
"% X O > 0 e q 2 a j Z K L H F V F L S k w = $ $ # # X X + + + % 6 1 ; @ 6 9 6 & @ > 2 q k G X.O.G z i u u w 7 6 6 6 > 6 , , O + ",
"+ % 6 7 0 0 7 2 p h v n b U I G G J K S b w 6 % # # X X X % + O @ 6 + O & 9 6 X O : q e D %.-./ b k e e s 7 & 7 7 > & & > > ; @ ",
"& % > 7 7 , 1 a a a j v x M M M z M S K S b 3 < O + + % $ # X % % + X + & & @   o 1 s M Y %.o.V l c d x x s 1 , , > + % # % @ > ",
"6 > 6 6 > 1 2 4 3 3 a p q e q s d x C Z S n f 3 1 > & # $ $ # # X @ X X X & O   o q M D G o.I k l c b A L c 3 , @ @ O + $ * * & ",
"= 9 q 0 1 2 3 1 : 1 2 ; > ; , 3 l l k d j g g f a q 6 * $ # # # % @ X # X +     ; k M M D ^ k s d c C H / N 3 ; o O X # % = & * ",
"% - e s 0 , , @ @ @ @ O + O > q d d q 1 p p 3 p f a e 9 & % + O @ > * $ # X + @ , 0 q s B B d d l b z U o.J c 2 > + + % & % @ + ",
"& 6 w 6 & & + O + + + X X ; 2 p a 3 2 0 7 > 6 6 7 q a p 7 @ + @ > @ % % + @ ; @ O X O 0 M k s d d l x ~ ! C C x 0 6 & * & = & & ",
"6 6 + + & % O o O X X   O 1 p d h f a e 7 @ & 8 8 9 w 0 6 % # * % % + > ; 1 , o   X   7 k p 3 3 p d B ^ B C C x k e 6 & * 8 t 9 ",
"7 & % # % + + o @ @ X + , s d j v v h e 9 6 & = * = & > @ X % * * # # > 2 3 1 @ o o   w s 1 1 , 2 k U G N b x z x s , @ + = t w ",
"> X # $ % X   o > O O , a j h j j v d 7 > > @ & % % o + O + X % X X X 7 q 3 4 , @ o o q 1 : , > q z M k s d d d d s 2 , O 6 e q ",
"X   X * % X   O > > 1 f g f 2 , 2 p q & & + % + + + + + ; O + X   . @ 0 9 , 1 1 , > , 0 O ; > ; e M e 7 7 , 2 a d k d s 1 1 a 2 ",
"  . # # # + o @ > , 4 j f 1 + X O 2 3 6 % + X + + + @ O 1 1 O     + 1 7 & > ; ; 0 k k 1 O ; > 0 B z , > > @ ; a h d d p 4 5 4 , ",
". X X X X + @ ; > 0 a a q @ X   O 2 3 , + % + o O X X O , 3 > O + 6 s 6 X + @ > @ q z p 7 7 0 s M k , > & + @ 3 j h 2 , , 3 a , ",
"9 7 0 , 7 7 0 q q 2 1 , > o o o O 1 q q > + o   X + @ @ ; p q , 7 k z ; X + @ @ & 1 l l k x q 7 9 s 0 & + X + 1 a p 7 > ; 1 a a ",
"C d l l c h b d p 1 @ O @ O o o O , q e 1 o   X o @ 7 , 1 p k s k F x 1 O @ & & @ 0 l J A s , , , q e @ X X O 1 1 6 , 7 > > 3 n ",
"A p 3 p h d p 3 k s ; o o o o o o @ 0 s q , O + O 1 p p a d x N F F x 2 ; ; @ @ , q C J c 3 : ; 6 0 p > O O , ; O > 7 1 , ; 2 S ",
"C p 1 1 1 , , 1 x x ; o o o O o   + , s z s q q d c n n Z b F F T F k p 2 , > , 0 l C b a < ; ; > 0 l p ; 0 1 O @ , 7 0 1 , 3 Z "
};
