/* XPM */
static char *_439e400fc0047ccc3e4e53648fcd1899oi0pHSn65Z3xaN0[] = {
/* columns rows colors chars-per-pixel */
"80 80 133 2 ",
"   c #161614",
".  c #171813",
"X  c #191916",
"o  c #1D1D1B",
"O  c #201F1D",
"+  c #1F201C",
"@  c #21211E",
"#  c #211F20",
"$  c #1F2120",
"%  c #252523",
"&  c #282725",
"*  c #272825",
"=  c #292926",
"-  c #262628",
";  c #292728",
":  c #272928",
">  c #2C2C2B",
",  c #302F2D",
"<  c #2E302E",
"1  c #31312E",
"2  c #2E2E30",
"3  c #312F30",
"4  c #2F3130",
"5  c #343433",
"6  c #383735",
"7  c #373834",
"8  c #3A3936",
"9  c #363638",
"0  c #393738",
"q  c #373938",
"w  c #3C3C3A",
"e  c #403F3C",
"r  c #3F403C",
"t  c #42413E",
"y  c #454442",
"u  c #484743",
"i  c #474843",
"p  c #4A4A46",
"a  c #4D4D4A",
"s  c #504F4B",
"d  c #4F504B",
"f  c #50514C",
"g  c #51524D",
"h  c #51514F",
"j  c #54534F",
"k  c #52524E",
"l  c #4F4F51",
"z  c #505050",
"x  c #535353",
"c  c #555450",
"v  c #545550",
"b  c #565551",
"n  c #575652",
"m  c #565654",
"M  c #575654",
"N  c #555451",
"B  c #595552",
"V  c #585753",
"C  c #585753",
"Z  c #575853",
"A  c #595853",
"S  c #5A5955",
"D  c #595A55",
"F  c #5A5955",
"G  c #5B5A58",
"H  c #5C5D58",
"J  c #5D5D59",
"K  c #605F5B",
"L  c #605F5D",
"P  c #605F5B",
"I  c #5F605B",
"U  c #61605E",
"Y  c #62615D",
"T  c #615F60",
"R  c #636361",
"E  c #666561",
"W  c #666561",
"Q  c #686763",
"!  c #696A65",
"~  c #6A6967",
"^  c #6C6B67",
"/  c #6A6965",
"(  c #6B6B69",
")  c #6F6E6A",
"_  c #6E6C6D",
"`  c #6F6E6C",
"'  c #6E6D6A",
"]  c #706F6A",
"[  c #706F6B",
"{  c #6F706B",
"}  c #70716C",
"|  c #72716D",
" . c #71706E",
".. c #72716F",
"X. c #73726E",
"o. c #74736F",
"O. c #71716D",
"+. c #727270",
"@. c #737270",
"#. c #757471",
"$. c #787774",
"%. c #777873",
"&. c #7C7B77",
"*. c #7A7976",
"=. c #7B7A78",
"-. c #7D7C78",
";. c #7D7C7A",
":. c #7F7E7C",
">. c #7D7C7A",
",. c #807F7B",
"<. c #807F7D",
"1. c #807F7B",
"2. c #7F807B",
"3. c #80817C",
"4. c #82817D",
"5. c #82817F",
"6. c #84837F",
"7. c #82827E",
"8. c #838381",
"9. c #858481",
"0. c #888783",
"q. c #8A8683",
"w. c #888783",
"e. c #898884",
"r. c #8A8985",
"t. c #8C8B87",
"y. c #8A8985",
"u. c #8E8D89",
"i. c #8E8D89",
"p. c #908E8A",
"a. c #92918D",
"s. c #969592",
"d. c #9A9997",
/* pixels */
"t % % e t p a p t t t w 6 w o X % > 1 5 6 w w , & > 2 > 5 w e t t u f A A > o t y + = p i s p p p f p t 6 3 # o & q w t y e y 6 > 2 5 > 6 w w e t y y u i % o w ",
"u + & t t i t t t t 6 , & @ w C l 6 w 1 1 u a R ( p 3 > : : 1 1 7 e u j B = o e y o & t y u i u t t 7 1 % % w G F y u q e u a ] ` a > : = > > 6 w e u i i % o t ",
"y o % w t y t w 7 1 , & t ..-.B 6 % % 5 5 @ 1 5 c <.5.l 2 > & > 5 w t t y % X t i % & w w t y w 6 5 = % e @.3.L w > & 6 6 ; 3 w c -.;.a > > - - , e p p i - o w ",
"u % % w w r 6 > > @ t o.q...p - & & . 5 6 . > , & > f 8.=.l 5 5 1 , 7 t t % @ t p @ = w 6 w 6 5 > = t ] 3.E u 1 = >   1 6   3 > > > J t.=.a 2 > > 1 t u p & % t ",
"p = % 5 5 , = & y o.r.o.y 9 5 > > % X 5 6 X & > 5 2 % > c 9.3.z 9 5 4 5 1 % * p a % & 6 6 > : % t #.r.^ t , , > > & X 7 w X > 5 5 9 > 5 F 9.<.f 5 5 5 3 w % & y ",
"t & o = & & t ] 3.Q y 5 6 5 1 5 y % X 6 w X > y 6 3 5 5 & 5 K t.3.m 6 5 5 @ > i a = % 5 > = y o.y.! t 1 1 > 5 e i > o 6 t o > f e 6 q 6 > > Y p.8.m w 5 5 # - y ",
"p o o @ w #.8.' y > > 1 5 y A Y k & o w e o % p c a w 5 6 6 - 5 R y.9.m 7 > O s F % % > i &.9.' y 1 > 1 1 t A Q Y > X w y o % F ] Y u 6 q 0 = 5 L y.9.m 5 - # p ",
"U u i *.y.` y 4 = > > t A Q Q Y G > o w y X & t u c K A y q q 6 > 6 R a.;.a t E ( s c 3.a...y > > > 5 6 f Q K H F > o t i @ = a F ' #.L y 5 6 1 & , G i.;.a r G ",
"c 9.u.9.f 6 = > > 5 p Y Y H j B H > + y w o % w t p F Y o.Y p w q 3 & q ( -.-.E ! u.a.y.m 6 > % = 8 B K F J f s c > @ y i o * i s K Y ) Q A t 5 5 > % 6 ..9.<.C ",
"a i i > > % & 1 y f j j f a f j A = @ t t X % y t p A F U Y ] A 6 , , ; = w a A J j f 1 > % & > t c F p i k j s f % o t y o & y p f B A k A U a > : & : = w a s ",
"y u t 1 & > 3 5 6 w t w t t u s f % o y u X % r t j s p p p p p w 5 o o & t y u p a a 5 : 4 5 > 7 w y e t s c c d % X w t X % e t t t t t t w w 6 2 o o % e y y ",
"t a a Q ` l 4 2 > > 1 7 6 8 e p u @ o t t X @ 6 e t t t t 8 1 1 : % w F Y p i w e f c o.[ l 5 2 = > 6 w e e i f p @ o w e . @ e e w e 1 1 6 > & % $ w H U u p w ",
"8 > 5 6 c 3.3.x 2 > > > > 1 w e t % o r t o @ 6 6 1 e 6 1 1 % % y ' *.J r > > w 6 > 5 0 C 9.;.l > > > > 6 w t t u = o t y X O 6 7 7 6 , > : # o q ( #.G y > 5 y ",
"5 . > > = 1 J q.;.d 5 > & & 1 w t @ o t w o @ 5 1 1 > > * * r ..u.' y 7 - > X 5 6 . 2 > ; 5 m 8.;.a 4 4 < 5 w u p & @ p a o % 6 1 1 1 > % # w ~ =.J w > = >   5 ",
"1 X & > 5 5 - > J y.;.z , = = , 1 @ @ t t @ O 1 , = @ & t %.e.o.l 6 6 6 5 & X q w X & > 2 5 > > c 8.:.x 9 < > 5 e = % j H % O > > > % : w ` <.Q w & > > > > X 6 ",
"q + = y q 5 9 4 % > F q.=.s , > > @ & i i @ O > @ @ t ] r.} a 5 5 5 5 y m > o t y o & e 6 6 w 5 - 4 J e.8.B q 1 5 % = k f % o = o O t @.y.( y > > > > w f > @ w ",
"i @ @ p F c y 6 6 5 & > F <.-.z 2 $   i f o o & y ` <.E y 5 1 5 7 t Y o.U > o e t o @ t A I p r w 0 & 3 J y.e.x 5 - o f z o o % y [ 3.( y > > , 1 q f K F = @ t ",
"y O % y p A E F t 1 7 > % ; z 9.$.p w s J p p =.0.E y 2 > > 5 y Y ^ Y Y Y > O t t + = p n Q %.Y y q q 5 % 5 J u.;.l w C H y i *.9.Q y > & > , w f Y J F A = o r ",
"t o & y t a c Y Q K y 5 6 > @ 5 T $.#.c F 3.y.-.a 2 & = > 6 f U Y n g A Y 1 @ u u o * u f A Y Y ) Y y 5 6 2 > 6 ` 0.8.Y K 3.6.-.p 4 & & : 0 m R F A k B j : o r ",
"y @ & t t a f s F Y Y k 5 - & o % 6 e p s s y > > X + - w a a a s f s n K > @ t u + % u p p n n A R ^ f 6 4 > & : y f C B p e > > $ $ > w s f F F k k k c = o t ",
"t @ @ r u u p u y t u y q 5 o o % q e t i a a 6 & : > : > 6 5 6 t p g Y Q 1 @ p a @ & t p a s t p k s y e 5 @ O & r u p i a i 5 & > > > 6 w e y s s a j B > @ t ",
"t @ @ w e t t w 6 5 5 > & % w H G y y e u f C #.+.a > : & = 5 6 8 t s F Y 1 @ f g @ = p t p p r t w 5 5 = = q J Y i a u u s k ..` l 2 - = > 6 q u i f B j = % t ",
"u @ @ t 8 r 7 , > > & @ t @.2.Y e > > e t > 5 q F 2.3.f 5 2 > > 6 e t g F 1 * n F = > t t t t w 1 > > & t o.&.Y r > 1 t w > 5 6 m =.=.a > > > 5 w t y p f = @ t ",
"u @ @ 6 7 1 , = % % w [ 3.E i 1 > 2 o t y X > 5 > 1 F q.3.z 9 5 1 1 8 t p < * I Y = > t t w 1 > > % e ..y.( u 5 > > X 6 w   > , - > f =.=.a 5 5 1 5 6 u u & + w ",
"p = @ 1 & = % % w ` 5.Q t > 1 > 1 > o t u @ = 1 7 6 > > H 9.8.m w 1 > 5 w : > F Y > = 6 5 > & % w ' 8.' y 5 5 > > > X w y o & > 5 , % % l 1.=.z 6 5 3 5 w @ % y ",
"f = @ = % % y ..3.W w - > > , t c > @ t t @ 5 j t q q > % > G t.3.Z q 5 5 & 1 J F , & 1 * : y ..8.Q y 1 5 1 5 u Z > % y p % < a q 5 9 5 X % c 9.-.x 6 4 5 % > s ",
"n @ @ & y #.3.! q % > = > w F ^ Y > @ y u @ < F L C w 5 6 6 : 1 Y r.9.c 6 > % F J @ @ > y #.9.! y > 1 1 5 t F ] ^ > % u a o = F U H y 5 5 2 % > J u.8.x 5 & o f ",
"K a s 3.u.! y > = % > 6 p U U J F > X y u o > g B E E c t 6 w 5 = 5 L u.2.l y J L s s &.u.} y > > > 5 w J E Q Y Y > + y i @ % a j U Q A 0 5 5 3 - 5 C u.3.z y H ",
"U 4.a.t.k 5 : = > 5 p U K B B F G = o t p + = p f c F ! ] Y t w w 5 > e %.y.-.J K 6.p.6.z 6 > = > w c ! Y K H Y J > @ y p O & u f s A A c a 6 5 6 > : w #.t.6.Q ",
"n p p > > % - > t j B k A B j B F = o t t @ > p a i f B K L U B w > 5 > 5 a s k B s u = > % & 5 p B H F B c k J F > @ u i O = u p f d y y f F d 9 > > > > u s F ",
"u t p 6 % 2 6 4 7 e t u p p f k f : X w p @ = u y u y u p t e e y 6 % % > p f s t p u 1 & 4 6 5 w t t u p p k F F > @ i i + & t a u t 8 t t t y w 6 o O = t t k ",
"t t g %...f 6 > > > 1 w w t u f c = o t u + = p p u w t w 1 = & % % t L Q k s t e f p } ..z q 1 1 1 6 w w t p B A > @ i s @ = i t t t t e 5 5 > & - w J Y t u t ",
"6 > 5 w G 0.9.k 5 > > > 5 w w y f = @ u a o = y t t w 6 , > O o q [ =.J y 3 5 w q > 5 w J y.e.x 9 3 > 2 6 q t a a * O u a O % t t u t 8 5 > % % w [ *.C e > > 5 ",
"1   > > ; 5 G t.8.z 5 4 1 1 7 t t : & p a @ = w t w 1 > > % q ^ ;.J t 5 > > X 5 5 . 5 5 3 q R u.8.x 5 5 > > 7 w r % @ p p O % w w t 7 < % % w ` 3.R w > & = . , ",
"6 o = , 6 9 > 5 Q a.8.z 6 5 > 1 1 % = f f & @ 5 5 1 & % w %.y.( w > > > > > X w t o > 5 q 6 > 5 E i.5.x 0 4 & > > @ @ s s % % 5 5 < = @ w ` e.` t = > & > @ o 1 ",
"q o > s t 0 q 6 > 5 R i.5.m 6 > 1 @ % f j @ o > % & y ] 6.( y 5 > > , e a ; o y y % > c t w w 5 > > L e.3.l 5 > > o % f k & o > & % t ..-.Y t 3 = > > 7 u & o 6 ",
"t @ > c ^ U p w w q : 5 L 9.3.z 1 ; o p d X o % y #.3.! y > & > 1 y A Y m & o t y O & A Q F t 6 9 6 % , G y.;.a > % X f c o o % t #.3.! w = > > > 6 s Y A % X e ",
"i o : a B Q ] H y 0 r 9 & 5 J u.-.p w z C a a =.p.] y 5 > > & 6 A Q E j z > o q y o & a F P / K y 9 9 6 % , C 9.=.a w k B i i $.u.' t 1 > = > 5 p C F F p @ . w ",
"t o % p s p c F R Y y q q 5 % 6 ..9.*.J Y 0.a.6.f 6 > > 6 e p Y J A J H c %   w t o & p B B K Q E J i 6 0 > % 1 ~ <.#.s k =.3.&.f 6 = > > w a G F f k p p % O e ",
"y @ % u p a s u f Y E m 9 > - % : 8 t c c f u > = O % > p f p f k f B F f % X 6 w o & p p f s c f J E k 6 > - & & 6 e i y e w % = % & 1 u k s f f a s p p = o w ",
"y o % t u i u t t t t t w 5 o X + 5 t p s a i 1 % : > 2 5 9 w t t a f B A = o w y o : i s s p u u t t t w 5 + o % 6 w q 6 6 w > % > 5 5 w w r t t t t p i % o w ",
"y @ % t t t t e 6 5 1 > & % w J Y y a y t a a Q ( a 4 : = = 5 w t t u f a : o y i % > y u u u y t 6 1 > * @ 8 F J u u 6 w y t E ~ a 9 > > 1 6 7 8 8 t t y O o w ",
"y o % w t t t 8 > > % % w { &.Y i 1 5 w q > 5 6 a =.;.a < > 2 < 5 w e u i % o y y % = y y a u w r 5 > % w ^ } A y > > q 6 % > > s 8.e.x 5 2 > > 1 8 6 w t o o w ",
"y % % q 7 8 7 1 & % w ..6.! y 5 > > . 5 5   5 > > > z 8.-.x 6 4 < 1 1 t y & o y a + & t y y w 5 > = r ..3.I w > ; > X 5 5   & > % 5 H y.8.x 5 2 > > 1 w r % o w ",
"a = % 5 1 1 = & y #.6.] y 1 > > > = X 5 q o & 3 6 5 & > G y.;.c 5 2 > 4 q & & i s % & q 6 5 2 > i o.9.^ w = > = > % X 6 w X : > 5 5 & > Y i.:.a 5 5 > , 6 % % y ",
"p = % 1 > = t o.y.' i 5 1 1 > y d > o 6 y O > a w 6 w 9 > 5 J q.,.f 6 5 5 % > i p = % 5 > = u $.t.^ t 5 1 1 > w y % o 8 t o = t 5 6 6 4 - 5 J 9.&.k 9 > < @ : y ",
"F % % > a *.u.o.p < 1 5 6 w B ^ Y = + e u @ & k K G i e q 5 & , K q.9.c 6 - o l c o @ = u =.i.$.i 1 < 1 1 t n Q U % o w u + % a s B e 6 q 5 - > F y.8.z 5 & + f ",
"Q f c 3.a.#.a 6 < > 5 t F ^ Y Y F = o w y o % u i B ^ E u q w 5 & 5 L u.=.a r G Y a a &.u.#.p 6 1 1 5 t A Y Y U H & o t u @ @ t a Y ~ F y 0 w 5 & 5 Y a.2.d t I ",
"Y t.s.y.m q > = > w F Q Q F A K H = o u u O % 6 w u A Q | Y k w 0 > - q ' 6.-.F K 9.y.6.l 7 > > < w B Y E K c B f & o i s % % t u f B K Y A t 1 6 > > t %.r.2.Y ",
"k j s < > & > 5 i F J G F k s A A & o i i o % 6 e t k j A Y } H w > > - = t a c B p y = > % & 4 a F Z c C k s B c > O i f % & t t u p s B A H a 5 < > - 1 t a n ",
"p p u 1 : > 5 6 w t t u p p f B j = o t s @ % w t t a p p u u u y 5 o $ % w y u u p i 5 & 5 6 5 w e y i p p a B k = o u a % > y e t u u t t t e q 6 % @ @ t u u ",
"y z f ! @.z 9 4 > 1 6 e e t a c f & o w y O % t t t t t t 8 1 , % % w J J y i w t k a ( @.f 5 > > 1 6 t e e y i p & o y p + & w t e w w t w 1 , & % r G U p a y ",
"t 1 6 w J y.8.z 5 2 2 > w e t p a % X w t o & q 7 w 8 6 1 > @ @ t @.*.F 6 > > 7 w > 5 6 J -.;.a > > > > q w q e i % o y y + % w w 6 5 5 6 1 % % y _ -.F t 1 1 t ",
"w X 5 1 > 5 J y.;.s 5 > > , 6 e y % o w w o @ 5 6 , , , & @ e } ;.Y w > & >   5 5 . > 5 ; > c 9.=.a 5 > > > 6 w w @ o w y + % q 7 5 < 1 > & w #.9.R t 1 > > o 6 ",
"w o = 1 6 5 : 4 G y.=.s 5 > = > 6 @ @ u u o X > > & @ @ w ..6.^ y > & : > > X w w X = 1 5 5 & > m 3.=.s 3 > > > 1 O @ t y + o < 4 > % & r _ 8.' y > > > > > X q ",
"t @ > s t 6 0 9 & > F 9.-.a 5 > , @ % f y O o ; @ @ t } 6.Q t 1 > > > y a > % y y o > a w 5 6 5 % % m <.=.s 4 : > o @ y i @ + > % % r ..9._ t 1 5 < 5 w a > @ w ",
"y @ % B Y K u w q 9 & > C 9.3.z > % X f s X o o t ` -.R t > > > > q B ^ Y > @ y p O @ j K k t 7 6 2 % ; B 9.:.a > o X y p o # & y +.8.( y > > 1 5 y A Q E < @ t ",
"u @ % f B Y o.F y 9 q 1 % > G i.=.a w G F i a *.e.Y w & = = < t C Y U Y H > @ u p @ > p j Y Q H w 9 5 5 % > l 3.$.u q p s p a =.0.Q y 5 & - > w k Y K Y Y < % t ",
"i @ > t p B F Y ! F w 5 5 > & 9 ) 4.3.H k 9.p.*.a 2 % % = 6 j U Y J c F H > o t p @ @ p s K Y Y E F r 5 5 ; # 2 R $.@.s c 9.e.;.a 3 & > & 6 v Y F k B H F > + t ",
"t o @ t t f B B c J J a 3 > > % > e u a p i i > : # % > t f g j B c F Y U 1 @ t t O = s p B K K F J Y a > > - % % 9 y y u y y - & o # > t a a c s s f f j = o t ",
"t X @ w t s a p i i t t q , o o & w e t y y y > % > > > 5 w w t t t g U K , @ p p @ = p a k f p p i y t 6 5 o X % q e e t y i , % > > , 7 7 6 e t y u p a : X w ",
"t o % w t t t e e 6 5 > & % w F F y y e t k s ( ' p > % > 1 6 w 8 7 a H H = @ f j @ = t t u u t t e 1 > % % q G J y u w w p z ] ' a 5 > > > 1 5 w 6 e t a % o w ",
"t @ @ w w w w 5 5 > - % w ' $.G y > , w t > 5 9 f =.$.l 5 2 6 > , e t p p = @ p s @ @ t t e t 1 5 5 > = t @.-.Y y , , w q > 5 0 F 6.;.m 5 > > > 1 1 6 w t % o r ",
"p @ % w q 6 1 > % + w [ 9.Y t 5 > 1 X w w . > > > > z ;.-.f 6 5 6 1 7 t u @ O t s @ @ 7 5 5 , > & = t o.0.! y 5 > > X w q   > 3 = 1 G 0.;.a 5 1 1 > , w y & o y ",
"a % @ 5 1 > = % t ^ 6.! y 1 > > 1 > X 6 t X > 5 5 5 - & F 9.=.z q 6 > 4 q % + p a % % > > & % @ w @.0.] y 3 1 > > > X w y o = 5 5 5 > , G 9.3.s 9 5 2 5 6 % & y ",
"p = o > % % t ' q.^ y 5 > 1 5 w f > @ i p @ > k e 0 6 2 % > F 9.;.G w 5 > % > c C > % 5 % & w ..9.! y , > , 5 w s = o u a @ > a e 5 q 0 - , L y.;.m 9 3 5 o - u ",
"p o O & y #.<.! u 1 > > 1 y B ( Y > o y y % > F Y c e 6 0 5 % > G 0.5.x 5 > % J E % & > u =.<.E w > > , , y H ' Y = o i f @ > A ! F u q q 5 % > J 8.8.l 5 - o a ",
"c i a =.i.^ y > = > > 7 f Q E Y ! > o y y o = s F Y E m w q 9 2 ; > G s.8.x y ~ ..f z e.s.#.s 5 > > 1 w H Q Q Y U > + y p @ = p c Y ( L t < 6 5 % 5 J s.-.a y c ",
"F -.q.-.f 6 ; > > 8 a K U F Y Y Y > + i a o % i B g A A K k w 5 1 > > t &.t.r.' ' u.d.a.J w > > 1 u K ) Y U U Y J > @ y u + = p p t k Y Y c y 6 6 > > w $.y.-.L ",
"f u t & > % % > t a s p j A B P J > @ i a o = y p k k p p k C s q > 3 > 1 p B U Y J F 5 5 > > 0 g Y Y Y A B A U K = X t u + = p p u u p s G ( R w > > > , y s f ",
"u y u 5 % 2 5 > 1 w t u p u k A H > @ u p o & y p p e w w w t p y 0 @ % % y s f s k c q > q e t p a g k a f B k c = X y i + = u p e t e t t i a y 6 + % & u i y ",
"u j z @.[ s 9 3 > 1 6 t e t u p c > @ u a o > i t 6 5 5 , , , , > % q G R i a u i c F ,.*.F y w 6 7 t t t t u k Z = @ u p o & i p t u t t w 5 1 > & w L R a a w ",
"t 1 5 q G q.9.z 5 > > 5 q t t t u = o u u o & t t 6 1 > > > @ @ e ..#.F y > 5 w w 2 q y Q i.y.G w 6 5 6 w e y u a > o u p @ = u p p t e 1 1 = & t ..-.J t > 5 r ",
"5 X 1 5 > 5 Y i.5.z 5 5 1 < w e w % @ u y o % e t 5 > = @ @ e ] -.Y w > > 1 X 5 6 . 5 5 2 w Q p.q.m 6 5 1 < 5 t t % @ p i @ = e t e 6 , & % w ' 8.E y > = >   5 ",
"e X & 1 6 6 > 5 L i.;.x 5 4 3 5 5 @ % p p O @ 5 5 1 @ & e ] 4.Y t = = > , = o 6 y o > 5 w w 5 6 W u.8.c 6 2 > 1 1 @ % f f & % 0 6 1 = @ e [ ,.Q y > > > > > X 5 ",
"t O > f t w q 6 > 5 G 0.;.z 6 5 1 % = p s % o < = @ t o.<.^ t , 1 > , t f > o e y % 2 G u r w 6 > 6 R y.;.l 5 > 1 % % f f & % 2 > & y o.3.! e = > < > w i : + 7 ",
"e O % Z ! F y q w 3 % > J 9.;.z 5 & X i F   % > p *.3.~ y & ; , 5 u E #.Q = o y a @ = Y | ^ f w r 9 > 5 J 0.3.z 5 & o i a o o & u $.6.^ y > > > > w a E F : o 8 ",
"w o % u c K E F w 5 9 5 & > f e.%.p q a Y i a -.s.#.y = > , , e K } ^ ^ ! > o t a o = j K [ ,.] l w w 6 - > F u.$.a w s C u a ,.t.^ y > > > > 5 i F c B a % o 6 ",
"w o O e i u a B Y F w 5 6 > % > R $.' a K 3.6.-.z 6 % & > w G ~ Y Y F H F = X t u o > p j J Y X.$.^ a w q > % q _ 8.$.k B 3.i.6.f 5 > > < w j H F f j p u % o 6 ",
"e o @ t y u p s f G F w 2 > ; o & 1 6 t p t w = : % % , t k B k f A B F A > o t t @ > p a f F G J ( o.G 0 ; > - > y t u s i u > > @ % > u A j f s a s u u @ X 8 "
};
