/* XPM */
static char *result[] = {
/* columns rows colors chars-per-pixel */
"64 64 174 2 ",
"   c #030606",
".  c #060708",
"X  c #080709",
"o  c #060909",
"O  c #0B0C0B",
"+  c #130E0F",
"@  c #12130F",
"#  c #140F10",
"$  c #141412",
"%  c #171812",
"&  c #1C1D14",
"*  c #1C1718",
"=  c #1C1819",
"-  c #251E0D",
";  c #211C1D",
":  c #1F2017",
">  c #25251A",
",  c #2A2A1C",
"<  c #29241E",
"1  c #302F1F",
"2  c #231F21",
"3  c #1F2221",
"4  c #242122",
"5  c #2B2E2C",
"6  c #282425",
"7  c #302C2C",
"8  c #353421",
"9  c #3D3A26",
"0  c #393724",
"q  c #3E3C3C",
"w  c #413E27",
"e  c #413F2A",
"r  c #403738",
"t  c #5D583A",
"y  c #605A3B",
"u  c #7B6D2B",
"i  c #444745",
"p  c #585957",
"a  c #5F5756",
"s  c #63595D",
"d  c #6F6842",
"f  c #6E6246",
"g  c #746D45",
"h  c #777049",
"j  c #7C734A",
"k  c #676259",
"l  c #6F6C64",
"z  c #656361",
"x  c #7C7A76",
"c  c #777775",
"v  c #8A7B03",
"b  c #8E7E12",
"n  c #887F38",
"m  c #847548",
"M  c #887F51",
"N  c #837C5D",
"B  c #807368",
"V  c #8B7D7F",
"C  c #8D7E73",
"Z  c #938306",
"A  c #A99609",
"S  c #B29F06",
"D  c #938328",
"F  c #AB9A27",
"G  c #8E8556",
"H  c #928858",
"J  c #9A8F5B",
"K  c #918755",
"L  c #9B905F",
"P  c #A1955E",
"I  c #9C9266",
"U  c #9E8F78",
"Y  c #91827A",
"T  c #AA9E6D",
"R  c #A99D63",
"E  c #B2A569",
"W  c #B6A96E",
"Q  c #B5A868",
"!  c #ADA378",
"~  c #B6AB78",
"^  c #C69969",
"/  c #C7B976",
"(  c #CABB75",
")  c #D4B376",
"_  c #DABA7B",
"`  c #D6C67F",
"'  c #888784",
"]  c #9B8A8B",
"[  c #97908F",
"{  c #9B9C97",
"}  c #A59597",
"|  c #BEB386",
" . c #A3A39E",
".. c #BDAA9F",
"X. c #AF9CA2",
"o. c #B29EA3",
"O. c #B4A1A7",
"+. c #B6A3A9",
"@. c #B9A5AC",
"#. c #BCA9AF",
"$. c #B3ABA6",
"%. c #BFB9A1",
"&. c #BDAAB0",
"*. c #B4B5B1",
"=. c #BDB7B5",
"-. c #C9B886",
";. c #D0BD98",
":. c #D0BD95",
">. c #C2AEA2",
",. c #C4B0A5",
"<. c #C0AEB3",
"1. c #C2B2B6",
"2. c #C7B8B3",
"3. c #C4B5B9",
"4. c #C6B8BB",
"5. c #C9BCBE",
"6. c #CDC18D",
"7. c #DCCA82",
"8. c #D5C687",
"9. c #DCCE94",
"0. c #DFD39C",
"q. c #E3CC84",
"w. c #E3D284",
"e. c #E8D687",
"r. c #E6D48B",
"t. c #E8D689",
"y. c #EDDB8B",
"u. c #EBD987",
"i. c #F2DE8C",
"p. c #E5D692",
"a. c #F3DF92",
"s. c #F2E08D",
"d. c #F5E292",
"f. c #F9E694",
"g. c #FCE895",
"h. c #F5E59C",
"j. c #F8E79E",
"k. c #F7E89F",
"l. c #D2C0A2",
"z. c #C4C4BB",
"x. c #D2C6BB",
"c. c #E7DBA3",
"v. c #F3E6AB",
"b. c #F6E9AA",
"n. c #E9E2B4",
"m. c #F2E8B7",
"M. c #F1E9BC",
"N. c #F0E6B4",
"B. c #CBBEC0",
"V. c #CDC2C3",
"C. c #CACAC4",
"Z. c #CECECA",
"A. c #C4C5C0",
"S. c #D0C6C7",
"D. c #D1C8C7",
"F. c #D3CCCB",
"G. c #D6D1CE",
"H. c #D8D2CF",
"J. c #D9D0C3",
"K. c #D7D4D0",
"L. c #DAD5D2",
"P. c #DCDAD6",
"I. c #DFDCD8",
"U. c #E0DEDA",
"Y. c #EFE9C4",
"T. c #EDE9CC",
"R. c #F0E9C1",
"E. c #ECE9D2",
"W. c #E3E3DD",
"Q. c #E9EADE",
"!. c #E6E7E0",
"~. c #E7E9E2",
"^. c #E8EAE3",
"/. c None",
/* pixels */
"/./././././././././././././././././././././././././././././././././././././././././././././././././././././././././././././././.",
"/./././././././././././././././././././././././././././././././././././././././././././././././././././././././././././././././.",
"/././././././././././././././././././././././././././././././././././.# /./././././././././././././././././././././././././././.",
"/././././././././././././././././././././././././.      o         X + /./.# /./././././././././././././././././././././././././.",
"/././././././././././././././././././././././.        o     . . X X X X . /././././././././././././././././././././././././././.",
"/././././././././././././././././././././././.    o o o o     o . o         /./././././././././././././././././././././././././.",
"/./././././././././././././././././././.          o                   o   . /./././././././././././././././././././././././././.",
"/./././././././././././././././././.      o o         o         o       /./././././././././././././././././././././././././././.",
"/././././././././././././././././.  O O         : 8 , 1 w 8 %         /././././././././././././././././././././././././././././.",
"/././././././././././././././././.  9 g j g M j u P E W L R t 0 , O     /./././././././././././././././././././././././././././.",
"/./././././././././././././././././.1 I | T r.y.6.| B l.! 7./ ` ( 9     /./././././././././././././././././././././././././././.",
"/./././././././././././././././././.% ~ 9.T 8.r.0.0.8.p.d.g.y.` J >       /././././././././././././././././././././././././././.",
"/././././././././././././././././././.H d.y.7.e.8.) q.g.g.f.J , O         /././././././././././././././././././././././././././.",
"/././././././././././././././././././.@ h w.f.) ^ -.i.f.i.i.P %     o   o /././././././././././././././././././././././././././.",
"/././././././././././././././././././.  . e W ` R G t K w.i.( ,           /././././././././././././././././././././././././././.",
"/././././././././././././././././././.      % > O     0 r.f.t.e             /./././././././././././././././././././././././././.",
"/././././././././././././././././././.                < t.f.s.u o       o   /./././././././././././././././././././././././././.",
"/././././././././././././././././././.                e y.f.` / :           /./././././././././././././././././././././././././.",
"/././././././././././././././././././.            @ 0 E i.y.7.-.B 4         /./././././././././././././././././././././././././.",
"/./././././././././././././././././.        $ q s V -.w.q.:.$.o.X.} c i 3 /././././././././././././././././././././././././././.",
"/./././././././././././././././././.      6 { G.1.@.,.;.,.o.o.=.G.W.!.P.C.z././././././././././././././././././././././././././.",
"/./././././././././././././././././.      p W.^.I.<.@.@.@.3.L.!.W.!.~.^.^.^././././././././././././././././././././././././././.",
"/./././././././././././././././././.    5 *.^.^.L.<.@.&.S.!.^.U.!.^.^.^.^.^.!./././././././././././././././././././././././././.",
"/./././././././././././././././././.  o c ^.^.L.<.#.1.L.^.^.U.!.^.^.^.^.~.^.~./././././././././././././././././././././././././.",
"/././././././././././././././././././././.!.!.4.@.#.[ x *.^.!.!.~.^.!.^.^.^.^.^././././././././././././././././././././././././.",
"/./././././././././././././././././././././.W.4.+.4.l v n C.^.I.~.^.!.!.!.^.^.^.!./././././././././././././././././././././././.",
"/./././././././././././././././././././././.!.K.@.1.$.F S l Z.D.W.!.W.~.^.^.^.^.~./././././././././././././././././././././././.",
"/./././././././././././././././././././././.~.P.1.#.<.Y A b C o.P.I.~.^.^.^.^.^.~./././././././././././././././././././././././.",
"/./././././././././././././././././././././.^.K.1.<.1.@.m Z u ] L.!.^.^.^.^.^.^.~./././././././././././././././././././././././.",
"/./././././././././././././././././././././.^.F.<.#.#.#.} D S f Z.^.^.^.^.^.~.^.W./././././././././././././././././././././././.",
"/././././././././././././././././././././.W.^.F.<.<.<.<.@.a - < A.^.^.^.^.~.I.D.3.#././././././././././././././././././././././.",
"/././././././././././././././././././././.K.~.5.#.#.<.<.V ; ; 6 Z.^.!.I.K.B.1.&.#.#././././././././././././././././././././././.",
"/././././././././././././././././././././.#.B.1.&.#.V.U.C.{ =.' D.F.4.&.&.&.&.&.#./././././././././././././././././././././././.",
"/././././././././././././././././././././.o.#.&.&.#.F.^.^.^.^.H.&.&.+.&.V.F././././././././././././././././././././././././././.",
"/./././././././././././././././././././././.2.&.#.#.F.^.^.^.^.J.l.U q a G.^.^./././././././././././././././././././././././././.",
"/././././././././././././././././././././.n.x.&.&.#.L.^.^.^.^.v.g.T ; # z P.^./././././././././././././././././././././././././.",
"/./././././././././././././././././././././.V.#.&.<.L.^.~.^.T.g.g.c.k # % x !./././././././././././././././././././././././././.",
"/./././././././././././././././././././././.V.&.#.4.U.^.Q.Y.b.d.g.b.z.r + = ' /././././././././././././././././././././././././.",
"/././././././././././././././././././././.I.B.#.<.B.^.^.R.h.g.g.g.R.^.*.5 + = /././././././././././././././././././././././././.",
"/././././././././././././././././././././.H.3.#.#.B.^.^.T.b.b.a.s.m.~.^. .4 # # /./././././././././././././././././././././././.",
"/././././././././././././././././././././.P.1.#.#.B.^.^.E.b.M.a.i.h.E.^.~.' $ # # /././././././././././././././././././././././.",
"/././././././././././././././././././././.P.1.&.#.S.^.^.Q.R.T.Y.b.N.Q.~.^.W.; $ # + /./././././././././././././././././././././.",
"/././././././././././././././././././././.L.&.&.<.H.^.^.^.^.^.^.~.~.^.^.~.~./.+ # # + /././././././././././././././././././././.",
"/././././././././././././././././././././.F.#.&.<.H.^.^.^.^.^.^.~.^.^.^.~.~././.+ # # + /./././././././././././././././././././.",
"/./././././././././././././././././././.W.V.#.&.<.H.~.^.^.^.^.^.^.^.^.^.^.~./././.# # # /./././././././././././././././././././.",
"/./././././././././././././././././././.W.V.#.&.<.H.^.^.^.^.^.~.^.^.^.^.^.^././././.+ # # /././././././././././././././././././.",
"/./././././././././././././././././././.W.5.#.&.<.H.^.~.^.^.^.^.^.^.^.^.~.^./././././.$ # + /./././././././././././././././././.",
"/./././././././././././././././././././.U.1.&.&.<.U.^.^.^.^.^.^.~.^.^.^.^.^././././././.# $ # /././././././././././././././././.",
"/././././././././././././././././././.~.I.&.&.#.1.U.~.^.^.^.^.^.^.^.^.^.^.^.~./././././.+ # + + /./././././././././././././././.",
"/././././././././././././././././././.^.P.&.&.#.1.W.^.^.^.^.^.^.^.^.^.^.^.^.~././././././.+ # $ /./././././././././././././././.",
"/././././././././././././././././././.^.K.&.&.#.3.~.^.^.^.~.^.^.^.^.^.~.^.^.^./././././././.+ # # /././././././././././././././.",
"/./././././././././././././././././.~.^.L.&.#.#.5.~.^.^.^.^.^.^.^.^.^.^.^.^.^.~./././././././.+ # + /./././././././././././././.",
"/./././././././././././././././././.~.~.F.#.&.&.5.^.^.^.^.^.^.^.^.^.^.^.^.^.^.^././././././././.+ $ + /././././././././././././.",
"/./././././././././././././././././.~.~.S.&.&.#.B.^.^.~.^.^.^.^.~.^.^.^.^.~.^.^./././././././././.# + /././././././././././././.",
"/./././././././././././././././././.^.~.4.&.&.&.5.^.^.^.^.^.^.^.~.^.^.^.^.^.^.^.~./././././././././.+ /././././././././././././.",
"/././././././././././././././././.~.^.!.1.&.&.&.5.^.^.^.^.^.~.^.^.^.^.^.^.^.^.^.~./././././././././.+ /././././././././././././.",
"/././././././././././././././././.~.^.W.1.<.&.#.B.^.^.^.^.^.~.^.^.^.^.^.^.^.^.^.^.~././././././././././././././././././././././.",
"/././././././././././././././././.^.^.!.<.&.&.&.B.^.^.^.^.^.^.^.^.^.~.^.^.^.^.^.^.~.~./././././././././././././././././././././.",
"/./././././././././././././././.W.^.~.W.<.&.&.&.V.~.^.^.^.^.~.^.~.~.~.~.~.~.~.~.~.~.W./././././././././././././././././././././.",
"/./././././././././././././././.5.B.B.5.<.&.&.#.1.S.S.S.S.S.S.V.S.B.B.B.4.B.4.4.5.4.4.1././././././././././././././././././././.",
"/./././././././././././././././.#.#.#.#.&.&.&.&.&.&.#.#.#.#.#.#.#.#.#.#.<.#.#.#.#.#.#.&.#./././././././././././././././././././.",
"/./././././././././././././././.#.#.#.#.#.#.&.&.&.&.&.#.&.&.&.&.&.&.&.&.#.#.#.<.&.&.&.&.<.#././././././././././././././././././.",
"/./././././././././././././././././././././././././././././././././././././././././././././././././././././././././././././././.",
"/./././././././././././././././././././././././././././././././././././././././././././././././././././././././././././././././."
};
