/* XPM */
static char *_5540f2f30bc4ad4e9bd3839900acb0cNth2x6IR21I13NpT[] = {
/* columns rows colors chars-per-pixel */
"80 80 133 2 ",
"   c None",
".  c #121416",
"X  c #141618",
"o  c #17191B",
"O  c #191B1E",
"+  c #1C1E21",
"@  c #1E2124",
"#  c #212326",
"$  c #232629",
"%  c #26292D",
"&  c #282C2F",
"*  c #262C30",
"=  c #2B2E32",
"-  c #2E3134",
";  c #2E353A",
":  c #303436",
">  c #323639",
",  c #35393D",
"<  c #393C3F",
"1  c #353D42",
"2  c #3A3E41",
"3  c #374046",
"4  c #3C4145",
"5  c #3C4449",
"6  c #404346",
"7  c #42464A",
"8  c #45484C",
"9  c #44494C",
"0  c #45494C",
"q  c #44494D",
"w  c #45494D",
"e  c #454A4D",
"r  c #464A4C",
"t  c #474A4D",
"y  c #474B4E",
"u  c #464B4F",
"i  c #44494D",
"p  c #484A4C",
"a  c #494B4D",
"s  c #484B4E",
"d  c #4A4B4E",
"f  c #494C4F",
"g  c #4B4C4E",
"h  c #4A4D4F",
"j  c #454C51",
"k  c #4A4D50",
"l  c #4E4F51",
"z  c #494F52",
"x  c #4C5052",
"c  c #4C5053",
"v  c #4F5153",
"b  c #4C5154",
"n  c #4E5254",
"m  c #4F5254",
"M  c #4E5255",
"N  c #4F5356",
"B  c #4B5155",
"V  c #4F5559",
"C  c #505355",
"Z  c #505356",
"A  c #505456",
"S  c #515457",
"D  c #525456",
"F  c #525457",
"G  c #535557",
"H  c #545557",
"J  c #505558",
"K  c #525558",
"L  c #525658",
"P  c #535658",
"I  c #535659",
"U  c #535759",
"Y  c #545658",
"T  c #555758",
"R  c #545759",
"E  c #565759",
"W  c #50575A",
"Q  c #54585A",
"!  c #55585A",
"~  c #55595B",
"^  c #56595A",
"/  c #56595B",
"(  c #57595B",
")  c #55595C",
"_  c #54595D",
"`  c #56595C",
"'  c #57595C",
"]  c #565A5C",
"[  c #575A5C",
"{  c #545A5E",
"}  c #585A5C",
"|  c #585B5D",
" . c #5A5B5C",
".. c #585B5E",
"X. c #585C5E",
"o. c #595C5E",
"O. c #595D5F",
"+. c #575E61",
"@. c #5D5F61",
"#. c #585E62",
"$. c #5F6163",
"%. c #5C6164",
"&. c #5E6164",
"*. c #5A6164",
"=. c #5E6568",
"-. c #606263",
";. c #616264",
":. c #616364",
">. c #606365",
",. c #616365",
"<. c #626466",
"1. c #636566",
"2. c #626567",
"3. c #656667",
"4. c #646769",
"5. c #676768",
"6. c #60676A",
"7. c #65686A",
"8. c #65686B",
"9. c #65696B",
"0. c #67696A",
"q. c #67696B",
"w. c #68696B",
"e. c #696A6B",
"r. c #696B6D",
"t. c #6A6B6C",
"y. c #686B6E",
"u. c #6B6D6E",
"i. c #6B6D6F",
"p. c #6C6E6F",
"a. c #6D6F70",
"s. c #6E6F71",
"d. c #737576",
/* pixels */
"                                                                                                                                                                ",
"                                                                                                                                    u                           ",
"                                                                                                                                > 6 6 6                         ",
"                                                                                                                              & # - <                           ",
"                                                                                                                            - $ @ # - < <                       ",
"                                                                                                                        2 = % $ # + # , 2                       ",
"                                                                                                                      2 = & % $ % #                             ",
"                                                                                                                    4 = % % % % &                               ",
"                                                                                                                    - = % $ & =                                 ",
"                                                                                                                  - = & & & =                                   ",
"                                                                                                                - = & & & -                                     ",
"                                                                                                              ; = % % * -                                       ",
"                                                                                                            - % % % & =                                         ",
"                                                                                                          - % $ % % =                                 : 7 p     ",
"                                                                                                        = # # $ $ =                                 = # -   p   ",
"                                                                                                      % @ @ @ $ %                                 - % # % 2 p   ",
"                                                                                                    % + O @ @ #                               4 = % % # + : 7 u ",
"                                                                                                  - + O O + @                               , & & # # # + % 2   ",
"                                                                                                , : & + O O                               > % = % # + #         ",
"                                                                                                : : = = #                               , % % = @ O #           ",
"                                                                                              : - & = - -                             , $ % = @ O +             ",
"                                                                                            , - - & & - :                             % $ = $ O +               ",
"                                                                                          < : - - = = - :                           % % - $ O +                 ",
"                                                                                        < : : - - &                               $ $ % $ o +                   ",
"                                                                                      < : : - -                                 % + & # O +                     ",
"                                                                                    < > : = : :                               % @ # + + +                       ",
"                                                                                  < : = : : :                               % + # + + O                         ",
"                                                                                < : = - : = :                             $ + + + O +                           ",
"                                                                                : : & : = = -                           % O O O @ @                             ",
"                                                                              > : - - & :                             4 : + o o +                               ",
"                                                                          2 , > : : - :                             2 , , - @ O                                 ",
"                                                                        2 , , > : > ,                             < > : > : -                                   ",
"                                                                      2 , , , > > 6                             , : - - - : <                                   ",
"                                                                      4 6 8 7 2 7                             4 > < 2 , - : ,                                   ",
"                                                                    p.,.$.p.( 7                               C : E 5.6 - : : >                                 ",
"                                                                  8 i.  8 i.(                               1.H & g t.                                          ",
"                                                                t.7   o.7 d.                              P 5.H & g                                             ",
"                                                              o.p.9 i.} 6                               s.-.t.H : g                                             ",
"                                                            4 S   7 1.-.                              ( 0.4 -.H =                                               ",
"                                                          0.n   d.P i.                              < P w.4 -.E &                                               ",
"                                                        0.8.  ,.@.1.                              2 < E E , g  .                                                ",
"                                                      b i 2 6 7 ,                               S 2 6 , : - ,                                                   ",
"                                                    t.C   4 7 }                               o.} S H < % 8                                                     ",
"                                                  %.8.  ] 1 2                               X.X.( ( H ,                                                         ",
"                                                0.o.  ] ( d                               R n ( P d l                                                           ",
"                                              0.R C S d d S                             } C S S b 7                                                             ",
"                                            %.b 8 7 7 7 U                             C b   P u 2                                                               ",
"                                          ] u , , > - 2                             u 5   j 4 -                                                                 ",
"                                          j 2 1 , , >                             B 7 i z 4 :                                                                   ",
"                                        z 5 2 , , , 8                           N i i u 7 : %                                                                   ",
"                                      V 7 1 2 1 , 2                           P i 7   7 : =                                                                     ",
"                                    V j 5 2 1 1 > 8                           u 7   9 > %                                                                       ",
"                                  +.5 j j 5 1 = *                           u i   i , =                                                                         ",
"                                +.j 5 5 5 1 * * ,                         d 7 i 7 , -                                                                           ",
"                              +.j 5 5 5 - * =                           z 5   5 > =                                                                             ",
"                            { i 5 5 1 * @ *                           b 7   5 , %                                                                               ",
"                          +.5 5 5 ; @ @ ;                           V 5   5 , -                                                                                 ",
"                      =.{ 5 5 1 * @ *                             +.j 5 5 , ,                                                                                   ",
"                    =.{ 5 3 - @ @ -                             *.j 5 3 1 ;                                                                                     ",
"                  *.V 5 1 @ @ *                               *.B 5 5 3 > 1                                                                                     ",
"                #.B 1 $ + $ ,                               *.B 5 3 3 ; ,                                                                                       ",
"              +.j * + $ -                                 =.B 1 3 3 3 - i                                                                                       ",
"            P 1 @ @ =                                   *.j 1 1 1 1 , ;                                                                                         ",
"          j = $ =                                     *.j 3 3 1 1 1 % ,                                                                                         ",
"      { 4 & -                                       +.5 1   5 1 - @ @                                                                                           ",
"    z < ;                                         #.5 1 1 1 ; * O @                                                                                             ",
"  ] 7                                           #.i 1 1 ; * @ + #                                                                                               ",
"                                              +.j 1 ; - * + o @                                                                                                 ",
"                                            +.5 1 ; * @ . o                                                                                                     ",
"                                          +.j ; = $ o X +                                                                                                       ",
"                                        ] 7 ; $ + . + =                                                                                                         ",
"                                      U 5 % + . o $                                                                                                             ",
"                                    V < @ . o @                                                                                                                 ",
"                                  z - o o + -                                                                                                                   ",
"                                4 @ o $ -                                                                                                                       ",
"                            b : o @ >                                                                                                                           ",
"                          4 % # =                                                                                                                               ",
"                        , - :                                                                                                                                   ",
"                      8                                                                                                                                         ",
"                                                                                                                                                                "
};
