/* XPM */
static char *_75c9a7c97844429c9f54bba271fe8258NCj6cN2Fl7XfGbo[] = {
/* columns rows colors chars-per-pixel */
"80 80 244 2 ",
"   c #040101",
".  c #0B0201",
"X  c #0B090B",
"o  c #0A0903",
"O  c #140200",
"+  c #1B0400",
"@  c #140B02",
"#  c #1B0B00",
"$  c #180D0B",
"%  c #1D1301",
"&  c #1C140C",
"*  c #16160A",
"=  c #1B1512",
"-  c #1C1915",
";  c #220100",
":  c #240D07",
">  c #3A0602",
",  c #221202",
"<  c #29170A",
"1  c #36190A",
"2  c #231C14",
"3  c #2C1C12",
"4  c #2B1D19",
"5  c #271513",
"6  c #351C13",
"7  c #28220D",
"8  c #2B241A",
"9  c #292619",
"0  c #332214",
"q  c #3C2316",
"w  c #3B251C",
"e  c #332B1A",
"r  c #372918",
"t  c #3D341D",
"y  c #32210D",
"u  c #2A2725",
"i  c #332A23",
"p  c #372925",
"a  c #3C3325",
"s  c #383229",
"d  c #3A3734",
"f  c #2E3128",
"g  c #480904",
"h  c #590E02",
"j  c #59190B",
"k  c #491410",
"l  c #670E06",
"z  c #760F0A",
"x  c #671B0C",
"c  c #72160E",
"v  c #45271C",
"b  c #4B2E1B",
"n  c #66281B",
"m  c #752919",
"M  c #6C2D19",
"N  c #442D26",
"B  c #43352B",
"V  c #483828",
"C  c #52362C",
"Z  c #473A34",
"A  c #533C34",
"S  c #683626",
"D  c #753727",
"F  c #773128",
"G  c #4F432F",
"H  c #4D423D",
"J  c #4A4335",
"K  c #54453E",
"L  c #5A4837",
"P  c #5D523F",
"I  c #53412D",
"U  c #7B412C",
"Y  c #614938",
"T  c #764A37",
"R  c #6F543D",
"E  c #3F3F41",
"W  c #494846",
"Q  c #544B42",
"!  c #5C4E42",
"~  c #574946",
"^  c #5C5449",
"/  c #585855",
"(  c #4C5042",
")  c #634D46",
"_  c #64554A",
"`  c #6C5C4B",
"'  c #665747",
"]  c #745E4E",
"[  c #785849",
"{  c #675B55",
"}  c #795C54",
"|  c #6A624D",
" . c #76624D",
".. c #6A6257",
"X. c #756353",
"o. c #72665D",
"O. c #746B5C",
"+. c #796957",
"@. c #7C735A",
"#. c #656463",
"$. c #6B6A66",
"%. c #776C64",
"&. c #7B726B",
"*. c #7C7667",
"=. c #7D7D7A",
"-. c #797773",
";. c #82251E",
":. c #872C24",
">. c #873B2A",
",. c #8C3B31",
"<. c #A13B36",
"1. c #874839",
"2. c #84523D",
"3. c #964838",
"4. c #854C42",
"5. c #8A5A49",
"6. c #955849",
"7. c #8F5047",
"8. c #A45A4C",
"9. c #96644D",
"0. c #856B58",
"q. c #966A56",
"w. c #84745D",
"e. c #906A53",
"r. c #A26658",
"t. c #B7695D",
"y. c #A2715A",
"u. c #B5735B",
"i. c #8B6C62",
"p. c #847362",
"a. c #8B7463",
"s. c #8A7B6B",
"d. c #877965",
"f. c #9D7D6B",
"g. c #987A65",
"h. c #857B77",
"j. c #997B71",
"k. c #AC7A65",
"l. c #B87A68",
"z. c #B77E72",
"x. c #AF6961",
"c. c #C3796A",
"v. c #97836D",
"b. c #89847A",
"n. c #9B8C7B",
"m. c #978677",
"M. c #9D937B",
"N. c #8D826E",
"B. c #A8836B",
"V. c #BA866F",
"C. c #A48C79",
"Z. c #A98B77",
"A. c #B88B77",
"S. c #A3947C",
"D. c #AC947C",
"F. c #AB997D",
"G. c #A59577",
"H. c #B2937D",
"J. c #B19A7C",
"K. c #BC977D",
"L. c #C58775",
"P. c #C5917A",
"I. c #D08977",
"U. c #857E80",
"Y. c #878583",
"T. c #948B85",
"R. c #999485",
"E. c #959495",
"W. c #999896",
"Q. c #918F90",
"!. c #A68F81",
"~. c #B68D83",
"^. c #A49383",
"/. c #AB9482",
"(. c #AC9B84",
"). c #A89988",
"_. c #B29582",
"`. c #B39C84",
"'. c #BA9984",
"]. c #B49D8B",
"[. c #B89888",
"{. c #A69B93",
"}. c #B29E92",
"|. c #ACA385",
" X c #AEA18A",
".X c #ADA98E",
"XX c #B3A28C",
"oX c #BDA48D",
"OX c #B4A387",
"+X c #AEA293",
"@X c #A9A599",
"#X c #B4AC9B",
"$X c #B9A696",
"%X c #B3B29E",
"&X c #AAAAAA",
"*X c #A5A4A3",
"=X c #B5ACA7",
"-X c #ACB2AC",
";X c #B9B4A7",
":X c #BAB6B7",
">X c #AFB1B0",
",X c #C49B88",
"<X c #D59886",
"1X c #C4928A",
"2X c #C8A38A",
"3X c #D6A48B",
"4X c #C3A996",
"5X c #CAB39C",
"6X c #D9AB9B",
"7X c #EAAE96",
"8X c #C8B6A6",
"9X c #C4B9B3",
"0X c #D5B7A4",
"qX c #ECBEA4",
"wX c #C9C6B8",
"eX c #D2C5B9",
"rX c #D2D0B9",
"tX c #FAC8B1",
"yX c #C5BFC1",
"uX c #C9C7C5",
"iX c #D3CBC6",
"pX c #D6D1CD",
"aX c #D3CED2",
"sX c #DAD9D8",
"dX c #CCCBD0",
"fX c #E3DDD9",
"gX c #E0D2C5",
"hX c #DEE6DE",
"jX c #E7E4DD",
"kX c #F2E5D2",
"lX c #EDEBEB",
"zX c #E7E4E3",
"xX c #F3EBE8",
"cX c #EDF4EC",
"vX c #F6F5EF",
"bX c #F5F4F4",
"nX c #FBF6F5",
"mX c #F4FBF5",
"MX c #FDFBF5",
"NX c #FCF6FA",
"BX c #F5FCFC",
"VX c #FFFFFF",
"CX c #F5F6F9",
"ZX c #F2F3F3",
/* pixels */
"VXVXVXVXVXVXVXVXVXVXVXVXVXVXVXVXVXVXVXVXVXVXVXVXVXVXVXVXVXVXVXVXVXVXVXVXBXBXVXVXVXVXbXVXVXVXVXVXVXVXVXVXVXVXVXVXVXVXVXVXVXVXVXVXVXVXVXVXVXVXVXVXVXVXVXVXVXVXVXVX",
"VXVXVXVXVXVXVXVXVXVXVXVXVXVXVXVXVXVXVXVXVXVXVXVXVXVXVXVXVXVXVXVXVXVXVXVXVXVXVXVXNXVXVXVXVXVXVXBXVXVXVXVXVXVXVXVXVXVXVXVXVXVXVXVXVXVXVXVXVXVXVXVXVXVXVXVXVXVXVXVX",
"VXVXVXVXVXVXVXVXVXVXVXVXVXVXVXVXVXVXVXVXVXVXVXVXVXVXVXVXVXVXVXVXVXVXVXVXBXVXVXVXVXZXVXVXmXVXBXVXVXVXVXVXVXVXVXVXVXVXVXVXVXVXVXVXVXVXVXVXVXVXVXVXVXVXVXVXVXVXVXVX",
"VXVXVXVXVXVXVXVXVXVXVXVXVXVXVXVXVXVXVXVXVXVXVXVXVXVXVXVXVXVXVXVXVXVXVXVXVXVXBXVXNXVXVXVXVXVXVXMXVXVXVXVXVXVXVXVXVXVXVXVXVXVXVXVXVXVXVXVXVXVXVXVXVXVXVXVXVXVXVXVX",
"VXVXVXVXVXVXVXVXVXVXVXVXVXVXVXVXVXVXVXVXVXVXVXVXVXVXVXVXVXVXVXVXVXVXVXVXVXVXVXVXVXNXVXNXVXMXVXMXVXVXVXVXVXVXVXVXVXVXVXVXVXVXVXVXVXVXVXVXVXVXVXVXVXVXVXVXVXVXVXVX",
"VXVXVXVXVXVXVXVXVXVXVXVXVXVXVXVXVXVXVXVXVXVXVXVXVXVXVXVXVXVXVXVXVXMXVXVXVXVXVXVXVXVXVXVXVXBXMXVXVXVXVXVXVXVXVXVXVXVXVXVXVXVXVXVXVXVXVXVXVXVXVXVXVXVXVXVXVXVXVXVX",
"VXVXVXVXVXVXVXVXVXVXVXVXVXVXVXVXVXVXVXVXVXVXVXVXVXVXVXVXVXVXVXVXVXVXVXVXVXVXVXVXNXVXNXVXVXVXVXMXVXVXVXVXVXVXVXVXVXVXVXVXVXVXVXVXVXVXVXVXVXVXVXVXVXVXVXVXVXVXVXVX",
"VXVXVXVXVXVXVXVXVXVXVXVXVXVXVXVXVXVXVXVXVXVXVXVXVXVXVXVXVXVXVXVXVXMXVXVXBXVXBXVXVX$.NXVXNXVXVXVXVXVXVXVXVXVXVXVXVXVXVXVXVXVXVXVXVXVXVXVXVXVXVXVXVXVXVXVXVXVXVXVX",
"VXVXVXVXVXVXVXVXVXVXVXVXVXVXVXVXVXVXVXVXVXVXVXVXVXVXVXVXVXVXVXVXVXBXVXVXVXVXVXCXVXd W VXaXzXVXBXCXVXNXBXVXVXVXVXVXVXVXVXVXVXVXVXVXVXVXVXVXVXVXVXVXVXVXVXVXVXVXVX",
"VXVXVXVXVXVXVXVXVXVXVXVXVXVXVXVXVXVXVXVXVXVXVXVXVXVXVXVXVXVXVXBXVXVXVXBXBXMXbXMXMXh.- ..( -.jXaXVXNXVXVXVXNXVXVXVXVXVXVXVXVXVXVXVXVXVXVXVXVXVXVXVXVXVXVXVXVXVXVX",
"VXVXVXVXVXVXVXVXVXVXVXVXVXVXVXVXVXVXVXVXVXVXVXVXVXVXVXVXVXVXVXVXVXVXVXBXMXVXMXVXMXh.4 s - d   9 Y.uXcXuX&XzXVXBXVXVXVXVXVXVXVXVXVXVXVXVXVXVXVXVXVXVXVXVXVXVXVXVX",
"VXVXVXVXVXVXVXVXVXVXVXVXVXVXVXVXVXVXVXVXVXVXVXVXVXNXVXVXVXVXVXVXVXBXMXVXnXxXR.L N w + $ 5 %./ -       u #.aXVXNXVXVXVXVXVXVXVXVXVXVXVXVXVXVXVXVXVXVXVXVXVXVXVXVX",
"VXVXVXVXVXVXVXVXVXVXVXVXVXVXVXVXVXVXVXVXVXVXVXVXVXVXVXVXVXNXBXVXBXVXBXfXO.+ < Y ' g.f.v.` . 3 i / =.uXCXBXVXVXVXVXVXVXVXVXVXVXVXVXVXVXVXVXVXVXVXVXVXVXVXVXVXVXVX",
"VXVXVXVXVXVXVXVXVXVXVXVXVXVXVXVXVXVXVXVXVXVXVXVXVXVXNXVXVXVXVXVXVXbXb.5 # b 0.f.T q.[ f.C.a.3 . &XVXVXVXVXCXbXVXVXVXVXVXVXVXVXVXVXVXVXVXVXVXVXVXVXVXVXVXVXVXVXVX",
"VXVXVXVXVXVXVXVXVXVXVXVXVXVXVXVXVXVXVXVXVXVXVXVXVXVXVXVXVXVXVXCXxXf O ! @.f.5.K.2.k.T 5.g.[.}.3   hXVXVXNXVXVXNXVXVXVXVXVXVXVXVXVXVXVXVXVXVXVXVXVXVXVXVXVXVXVXVX",
"VXVXVXVXVXVXVXVXVXVXVXVXVXVXVXVXVXVXVXVXVXVXVXVXVXVXVXBXVXVXbXfX@ @ o.s.$XT T y.P.L.y.B.1X!.}.!.  Y.VXNXVXVXNXVXVXVXVXVXVXVXVXVXVXVXVXVXVXVXVXVXVXVXVXVXVXVXVXVX",
"VXVXVXVXVXVXVXVXVXVXVXVXVXVXVXVXVXVXVXVXVXVXVXVXVXVXVXVXVXVXfX@ 0  .P `.0.T 5.l.9.1.9.Z.H.].4X8Xo W VXVXBXVXVXVXVXVXVXVXVXVXVXVXVXVXVXVXVXVXVXVXVXVXVXVXVXVXVXVX",
"VXVXVXVXVXVXVXVXVXVXVXVXVXVXVXVXVXVXVXVXMXVXVXVXVXVXVXVXNXxX& : p.L 1 L g.,XA.9.9.S g.Z.D.OX(.$X- W VXVXVXVXVXMXVXVXVXVXVXVXVXVXVXVXVXVXVXVXVXVXVXVXVXVXVXVXVXVX",
"VXVXVXVXVXVXVXVXVXVXVXVXVXVXVXVXVXVXVXVXVXVXVXVXNXVXVXbXVX*.  Q X.V L XX(./.H.'.H.K.L v.XXn.^.;Xo -.VXbXVXVXVXVXVXVXVXVXVXVXVXVXVXVXVXVXVXVXVXVXVXVXVXVXVXVXVXVX",
"VXVXVXVXVXVXVXVXVXVXVXVXVXVXVXVXVXVXVXVXVXVXVXVXVXBXVXVXxX= Q ..O..Xs.S.).(.C.OXoXD.1 q L ' }.}.  uXVXVXVXVXVXVXVXVXVXVXVXVXVXVXVXVXVXVXVXVXVXVXVXVXVXVXVXVXVXVX",
"VXVXVXVXVXVXVXVXVXVXVXVXVXVXVXVXVXVXVXVXMXVXVXVXVXBXCXVX:X  o.^ n..Xn.(.^.F.$Xv.I G , a.}.!.}.o.= CXVXVXVXVXVXVXVXVXVXVXVXVXVXVXVXVXVXVXVXVXVXVXVXVXVXVXVXVXVXVX",
"VXVXVXVXVXVXVXVXVXVXVXVXVXVXVXVXVXVXVXVXVXVXVXVXVXVXVXNXb.  o.a N.S.(.|.(.F.M.| N.M.y ).).^.8X2 -.VXVXBXBXVXVXVXVXVXVXVXVXVXVXVXVXVXVXVXVXVXVXVXVXVXVXVXVXVXVXVX",
"VXVXVXVXVXVXVXVXVXVXVXVXVXVXVXVXVXVXVXVXVXVXVXVXVXVXNXVX&.i Q % d.|.F.D.F.`.F.OX.X@.V `.^.8X+X* zXVXVXNXVXVXVXVXVXVXVXVXVXVXVXVXVXVXVXVXVXVXVXVXVXVXVXVXVXVXVXVX",
"VXVXVXVXVXVXVXVXVXVXVXVXVXVXVXVXVXVXVXVXVXVXVXVXVXVXmXVXb.- { r ` D.J.H.G.J.F.G.G.(.)./.^.eX7 *.VXCXBXVXVXVXBXVXVXVXVXVXVXVXVXVXVXVXVXVXVXVXVXVXVXVXVXVXVXVXVXVX",
"VXVXVXVXVXVXVXVXVXVXVXVXVXVXVXVXVXVXVXVXVXVXVXVXVXVXCXVX;X@ $.` , G.4XD.'.D.`.(.].S.).!.9X^ J MXVXVXMXVXVXVXVXVXVXVXVXVXVXVXVXVXVXVXVXVXVXVXVXVXVXVXVXVXVXVXVXVX",
"VXVXVXVXVXVXVXVXVXVXVXVXVXVXVXVXVXVXVXVXVXVXVXVXNXVXVXVXbX9 K *.P V a.C.f.4XC. .p.s.{.eX&.e mXmXMXVXVXVXVXNXVXVXVXVXVXVXVXVXBXVXVXVXVXVXVXVXVXVXVXVXVXVXVXVXVXVX",
"VXVXVXVXVXVXVXVXVXVXVXVXVXVXVXVXVXVXVXVXVXVXVXVXVXVXVXbXVX{.O ..M.R.P # 6 X.0 0 T.+X9X^ d cXMXMXMXMXbXVXVXVXVXVXVXVXVXVXVXVXVXVXVXVXVXVXVXVXVXVXVXVXVXVXVXVXVXVX",
"VXVXVXVXVXVXVXVXVXVXVXVXVXVXVXVXVXVXVXVXVXVXVXVXVXVXVXVXMXMX..# %.#X$X_ m.m.o.).{.d.B &.MXVXVXMXMXVXVXMXNXNXVXBXVXVXVXVXVXVXVXVXVXVXVXVXVXVXVXVXVXVXVXVXVXVXVXVX",
"VXVXVXVXVXVXVXVXVXVXVXVXVXVXVXVXVXVXVXVXVXVXVXVXVXmXVXVXNXnXMX&.  ^ @.b.b.N.*.J a < J rXT.T.&XfXnXfX=XuXVXVXVXVXVXVXVXVXVXVXVXVXVXVXVXVXVXVXVXVXVXVXVXVXVXVXVXVX",
"VXVXVXVXVXVXVXVXVXVXVXVXVXVXVXVXVXVXVXVXVXMXVXVXVXVXVXVXsXpXzXm.K a e e e e V ` X.e a d Z w N p r @ e {.MXnXbXVXVXVXVXVXVXVXMXVXVXVXVXVXVXVXVXVXVXVXVXVXVXVXVXVX",
"VXVXVXVXVXVXVXVXVXVXVXVXVXVXVXVXVXVXVXVXVXVXVXVXVXZXE.f & & s K p.Y G M..X.X X;XV  .kX9X!.4X~.j.+.K @ W uXVXVXBXVXVXVXVXVXVXVXVXVXVXVXVXVXVXVXVXVXVXVXVXVXVXVXVX",
"VXVXVXVXVXVXVXVXVXVXVXVXVXVXVXVXVXVXBXVXVXVXMXMX=X4   = / Q Z p.n.I P |..X|.F.v.t ).XX4X6X~.y.7.i.} ) ) 3 b.MXCXVXVXVXVXVXVXVXVXVXVXVXVXVXVXVXVXVXVXVXVXVXVXVXVX",
"VXVXVXVXVXVXVXVXVXVXVXVXVXVXVXMXBXVXBXBXNXNXNX_ ; k 0 | o.V P n.+.' $XG.F.G.|.w.t %XM.(.z.7.I.L.L.l.T q.w., T.VXCXVXVXVXnXVXVXVXVXVXVXVXVXVXVXVXVXVXVXVXVXVXVXVX",
"VXVXVXVXVXVXVXVXVXVXVXVXVXVXVXVXVXVXBXBXVXxX< 6 n D  . .| t 0.].N.L v.(.|.F.oXw.e %X%XOX1.8.7XI.8.1.r.6.e.X.3 uXVXVXnXVXVXMXZXVXVXVXVXVXVXVXVXVXVXVXVXVXVXVXVXVX",
"VXVXVXVXVXVXVXVXVXVXVXVXVXVXVXVXmXVXCXVXVXu B [ n B.(.+.` b v.H.` I M.G.J.G.J.G.7 R.iX[.q.7.:.m <XV.k.r.q.w.d $.BXE :XNXnXVXVXBXVXVXVXVXVXVXVXVXVXVXVXVXVXVXVXVX",
"VXVXVXVXVXVXVXVXVXVXVXVXVXVXVXBXMXMXBXVX#.Z 0XC.Z.'.F.w.P b D.2XC.i.4XH.OXJ.H.oXV & O.].~.F 1.L.P.6XA.e.H.d.^ u f u NXVXVXNXVXVXVXVXVXVXVXVXVXVXVXVXVXVXVXVXVXVX",
"VXVXVXVXVXVXVXVXVXVXVXVXVXVXVXVXuX@XCXVXd %.#X/._._./.a.b L 3Xk.5.n 3.t.L.P.G.OX+.  V $X,XB.g.y.f.0.B.5X5Xd.i s 9 >XVXNXVXVXVXVXVXVXVXVXVXVXVXVXVXVXVXVXVXVXVXVX",
"VXVXVXVXVXVXVXVXVXVXVXVXVXVXVXVXuX*   $.2 O..X(._._.!.} 1 0.y.j k F :.l m 1.P.P.^.3 # ).$XF.OXH._.].oX0X0Xv ^ &.d bXVXVXMXVXVXVXVXVXVXVXVXVXVXVXVXVXVXVXVXVXVXVX",
"VXVXVXVXVXVXVXVXVXVXVXVXVXVXVXVXVXlXd - 8 a ;XR.!.4Xa.q k T j z.y.f.2X1.x l m L._.0.o | rX.X_.H.S.d. .L L X._ 8 W.vXVXVXVXVXVXVXVXVXVXVXVXVXVXVXVXVXVXVXVXVXVXVX",
"VXVXVXVXVXVXVXVXVXVXVXVXVXVXVXVXbXVXVX7 i   | {.}.}.K + n j L.z.T B.V.2X3.z z ,.<Xv.P 7 *.eXG.`.< P +.@. .1 0 A Z =XVXNXVXVXNXVXVXVXVXVXVXVXVXVXVXVXVXVXVXVXVXVX",
"VXVXVXVXVXVXVXVXVXBXVXVXbXVXVXNXVXlXW o . % @ * 8 p 5 1 g 6.8.g F h U P.I.m z c P.D.w.R % @.N.|.O.K gX!.: 6 C C Q   *XVXVXNXVXVXVXVXVXVXVXVXVXVXVXVXVXVXVXVXVXVX",
"VXVXVXVXVXVXVXVXCXVXVXVXVXVXBXVXE.X       o.=.- Z ~ + > S 6.j c c.8.j l.P.3.z :.B.2XD.0.' e , P ;XQ ! T.; < L C B 9XfXVXCXVXVXVXVXVXVXVXVXVXVXVXVXVXVXVXVXVXVXVX",
"VXVXVXVXVXVXVXVXVXVXBXsX:X&XY.E   X   U.$.f Q.( #.}.; > x.,.k 8.3Xy.x 3X7X9.:.:.A.D./.).+.@.| < < / = { C + 1 C N 8XnXNXVXVXVXVXVXVXVXVXVXVXVXVXVXVXVXVXVXVXVXVX",
"VXVXVXVXVXVXVXVXVXVX*XX           E yXVXhXW.9XzXVX~ ; g x.F j L.<X3.m tXP.B.m 3.K.G.].Z.F.` @.G Q T.- p ` p : 6 : p xXNXVXBXVXVXVXVXVXVXVXVXVXVXVXVXVXVXVXVXVXVX",
"VXVXVXVXVXVXVXVXVXNXNXsXyX&Xf X dXVXnXVXVXVXNXVXZX5 k j l.F j A.I.n 7.tX3X2.x 9.J.F.H._.[.g. .A &.VXlXzXMXwX; v v N ~ NXVXVXVXVXVXVXVXVXVXVXVXVXVXVXVXVXVXVXVXVX",
"VXVXVXVXVXVXVXVXVXVXVXVXCXVX$.E.VXVXVXmXBXBXVXVXdXO S h c.6.> D n M P.qXP.x D P.J.G.J.H.`./.w.V { NXVXBXMXMX< , 6 N N U.VXCXMXVXVXVXVXVXVXVXVXVXVXVXVXVXVXVXVXVX",
"VXVXVXVXVXVXVXVXVXVXCXVXVXbXVXVXVXbXVXVXBXVXVXVXwXO 4.h <.I.S q.g.A.tXtX<.z 2.K.J.G.J.F.^. Xn.V ..CXVXBXBXMXX.< v + i u aXVXVXMXVXVXVXVXVXVXVXVXVXVXVXVXVXVXVXVX",
"VXVXVXVXVXVXVXVXVXVXVXVXNXVXVXVXVXVXVXNXVXBXNXVXuXO 4.n c x.5.,X2XB.B.u.z :.P.K.D.J.G.OX|.@.P B $.VXBXBXBXVX{.# 6 . O . d VXMXVXVXVXVXVXVXVXVXVXVXVXVXVXVXVXVXVX",
"VXVXVXVXVXVXVXVXVXVXVXVXVXVXVXVXVXVXMXBXVXVXVXBXhX  0.7.l F F V.V.>.m 1.m z.,X`.S.M.M.w.t @ a @ =.VXbXVXNXNXpX= u . . #.u :XVXCXVXVXVXVXVXVXVXVXVXVXVXVXVXVXVXVX",
"VXVXVXVXVXVXVXVXVXVXVXVXVXVXVXVXVXMXVXVXVXVXVXMXmX* L 1X1.h > S 3.m m u.V.P./.F.4Xa.@ t P | %.u &XVXVXNXVXVXnX- u X =.VXZXzXVXNXVXVXVXVXVXVXVXVXVXVXVXVXVXVXVXVX",
"VXVXVXVXVXVXVXVXVXVXVXVXVXVXVXVXVXVXVXBXVXVXVXBXcX( 3 ~.1Xr.S T 9.1.y.qX2XK.C.).n.r C 5.w. .%.p lXVXVXbXVXbXVX{ X f sXCXCXVXVXVXVXVXVXVXVXVXVXVXVXVXVXVXVXVXVXVX",
"VXVXVXVXVXVXVXVXVXVXVXVXVXVXVXVXVXVXBXVXVXVXVXVXVXY.. !.,X,XOX .K.K.P.J.2Xn.|.V , ' 0.] [ a.Z { NXCXVXVXVXVXVXlXX h.VXNXVXVXVXbXVXVXVXVXVXVXVXVXVXVXVXVXVXVXVXVX",
"VXVXVXVXVXVXVXVXVXVXVXVXVXVXVXVXVXVXVXVXVXVXVXBXVXzXo ! }./.m.1 w.2XG.G.F.OX@.e ` @.} ] p._ & pXVXVXVXnXVXVXCXNX/ / VXVXNXVXVXVXVXVXVXVXVXVXVXVXVXVXVXVXVXVXVXVX",
"VXVXVXVXVXVXVXVXVXVXVXVXVXVXVXVXVXVXVXVXVXVXVXVXVXMXR.  n.+Xn.`  .OXJ.G.F.(.@.e O.| ` p.a @ 9XVXBXNXVXVXVXCXVXVX:X&XVXbXVXVXVXVXVXVXVXVXVXVXVXVXVXVXVXVXVXVXVXVX",
"VXVXVXVXVXVXVXVXVXVXVXVXVXVXVXVXVXVXVXVXBXVXVXVXMXVXVX( o =.%X.X] m.`.D.G.C.#XP e *.{ & d jXBXBXVXBXNXVXVXNXVXVXNXNXCXVXVXNXVXVXVXVXVXVXVXVXVXVXVXVXVXVXVXVXVXVX",
"VXVXVXVXVXVXVXVXVXVXVXVXVXVXVXVXVXVXVXVXVXBXVXVXVXNXMXMX/ o ^ {.^.B /.OXOX$X.Xb.9 * 9 R.MXVXmXBXVXVXVXVXCXVXNXVXVXVXVXVXVXVXNXVXVXVXVXVXVXVXVXVXVXVXVXVXVXVXVXVX",
"VXVXVXVXVXVXVXVXVXVXVXVXVXVXVXVXVXNXVXVXVXBXBXVXNXVXCXmXmX-Xu 4 H H J s.a. .G 9 9 b.nXMXMXVXCXBXVXVXVXVXVXVXVXVXVXVXVXVXVXVXVXVXVXVXVXVXVXVXVXVXVXVXVXVXVXVXVXVX",
"VXVXVXVXVXVXVXVXVXVXVXVXVXVXVXVXVXVXVXVXBXVXVXVXVXNXVXVXBXbXNXH   X O % , , J * b.VXVXnXMXVXVXVXVXVXVXVXVXVXVXVXVXVXVXVXVXVXVXVXVXVXVXVXVXVXVXVXVXVXVXVXVXVXVXVX",
"VXVXVXVXVXVXVXVXVXVXVXVXVXVXVXVXVXVXVXVXVXVXVXVXNXNXVXBXVXVXVXyX*X#.{.s.` | a & { VXNXBXNXNXVXVXVXVXVXVXVXVXVXVXVXVXVXVXVXVXVXVXVXVXVXVXVXVXVXVXVXVXVXVXVXVXVXVX",
"VXVXVXVXVXVXVXVXVXVXVXVXVXVXVXVXVXVXVXVXBXVXVXVXNXVXVXVXmXVXNXNXaXH i J m.s.8 -.Q.bXVXVXVXVXVXVXVXVXVXVXVXVXVXVXVXVXVXVXVXVXVXVXVXVXVXVXVXVXVXVXVXVXVXVXVXVXVXVX",
"VXVXVXVXVXVXVXVXVXVXVXVXVXVXVXVXVXVXVXVXBXVXVXVXVXNXZXNXBXBXVXVXxXY.@ + V ' &.NXVXVXVXVXVXVXVXNXVXVXVXVXVXVXVXVXVXVXVXVXVXVXVXVXVXVXVXVXVXVXVXVXVXVXVXVXVXVXVXVX",
"VXVXVXVXVXVXVXVXVXVXVXVXVXVXVXVXVXVXVXVXVXVXVXVXVXVXVXNXVXVXVXVXNXNX4 B : *.VXVXVXBXNXVXVXVXVXVXVXVXVXVXVXVXVXVXVXVXVXVXVXVXVXVXVXVXVXVXVXVXVXVXVXVXVXVXVXVXVXVX",
"VXVXVXVXVXVXVXVXVXVXVXVXVXVXVXVXVXVXVXVXVXVXVXVXBXVXCXVXVXBXNXVXVXVX4 N , b.MXNXVXVXNXVXVXNXVXVXVXVXVXVXBXVXVXVXVXVXVXVXVXVXVXVXVXVXVXVXVXVXVXVXVXVXVXVXVXVXVXVX",
"VXVXVXVXVXVXVXVXVXVXVXVXVXVXVXVXVXVXVXVXVXVXVXVXVXVXVXVXVXVXVXVXVXNXB 6 3 ` VXVXBXBXVXVXVXVXVXVXVXVXVXVXVXVXVXVXVXVXVXVXVXVXVXVXVXVXVXVXVXVXVXVXVXVXVXVXVXVXVXVX",
"VXVXVXVXVXVXVXVXVXVXVXVXVXVXVXVXVXVXVXVXVXVXVXVXVXVXVXVXVXVXVXVXBXMXA 3 6 A MXMXBXVXVXVXVXVXNXVXVXVXVXVXVXVXVXVXVXVXVXVXVXVXVXVXVXVXVXVXVXVXVXVXVXVXVXVXVXVXVXVX",
"VXVXVXVXVXVXVXVXVXVXVXVXVXVXVXVXVXVXVXVXVXVXVXVXVXVXVXVXVXVXVXVXmXVX^ 6 N N MXvXVXBXVXVXVXVXVXMXVXVXVXVXVXVXVXVXVXVXVXVXVXVXVXVXVXVXVXVXVXVXVXVXVXVXVXVXVXVXVXVX",
"VXVXVXVXVXVXVXVXVXVXVXVXVXVXVXVXVXVXVXVXVXVXVXVXVXVXVXVXVXVXVXVXbXNX) 5 C ; jXVXBXVXVXVXVXVXMXVXVXVXVXVXVXVXVXVXVXVXVXVXVXVXVXVXVXVXVXVXVXVXVXVXVXVXVXVXVXVXVXVX",
"VXVXVXVXVXVXVXVXVXVXVXVXVXVXVXVXVXVXVXVXVXVXVXVXVXVXVXVXVXVXVXVXVXVX{ : C ; iXNXVXNXVXVXVXVXVXMXVXVXVXVXVXVXVXVXVXVXVXVXVXVXVXVXVXVXVXVXVXVXVXVXVXVXVXVXVXVXVXVX",
"VXVXVXVXVXVXVXVXVXVXVXVXVXVXVXVXVXVXVXVXVXVXVXVXVXVXVXVXVXVXVXVXmXMX~ 5 C O =XMXBXVXVXVXVXVXVXVXVXVXVXVXVXVXVXVXVXVXVXVXVXVXVXVXVXVXVXVXVXVXVXVXVXVXVXVXVXVXVXVX",
"VXVXVXVXVXVXVXVXVXVXVXVXVXVXVXVXVXVXVXVXVXVXVXVXVXVXVXVXVXVXVXVXmXVXQ : B O {.VXBXBXVXVXVXNXVXVXVXVXVXVXVXVXVXVXVXVXVXVXVXVXVXVXVXVXVXVXVXVXVXVXVXVXVXVXVXVXVXVX",
"VXVXVXVXVXVXVXVXVXVXVXVXVXVXVXVXVXVXVXVXVXVXVXVXVXVXVXVXVXVXVXVXNXbXH O p + T.NXMXVXVXVXVXVXVXNXVXVXVXVXVXVXVXVXVXVXVXVXVXVXVXVXVXVXVXVXVXVXVXVXVXVXVXVXVXVXVXVX",
"VXVXVXVXVXVXVXVXVXVXVXVXVXVXVXVXVXVXVXVXVXVXVXVXVXVXVXVXVXVXVXVXVX=.5 $ p O h.VXBXVXVXVXVXVXVXVXVXVXVXVXVXVXVXVXVXVXVXVXVXVXVXVXVXVXVXVXVXVXVXVXVXVXVXVXVXVXVXVX",
"VXVXVXVXVXVXVXVXVXVXVXVXVXVXVXVXVXVXVXVXVXVXVXVXVXVXNXVXVXVXbXbX&X  . X 5 . Z NXVXVXNXVXVXVXVXVXVXVXVXVXVXVXVXVXVXVXVXVXVXVXVXVXVXVXVXVXVXVXVXVXVXVXVXVXVXVXVXVX",
"VXVXVXVXVXVXVXVXVXVXVXVXVXVXVXVXVXVXVXVXVXVXVXVXVXVXVXcX&XE.W.*X-XQ.8 { $ %.$ >X:XY.&XVXVXVXVXbXVXVXVXVXVXVXVXVXVXVXVXVXVXVXVXVXVXVXVXVXVXVXVXVXVXVXVXVXVXVXVXVX",
"VXVXVXVXVXVXVXVXVXVXVXVXVXVXVXVXVXVXVXVXVXVXVXVXVXNXVXVXzXbXVXVXVXvXvXsX9XbX&.:XaXVXVXNXVXVXmXVXVXVXVXVXVXVXVXVXVXVXVXVXVXVXVXVXVXVXVXVXVXVXVXVXVXVXVXVXVXVXVXVX",
"VXVXVXVXVXVXVXVXVXVXVXVXVXVXVXVXVXVXVXVXVXVXVXVXVXVXNXVXVXVXBXVXVXVXVXVXNXVXNXVXVXVXNXVXVXVXVXVXVXVXVXVXVXVXVXVXVXVXVXVXVXVXVXVXVXVXVXVXVXVXVXVXVXVXVXVXVXVXVXVX",
"VXVXVXVXVXVXVXVXVXVXVXVXVXVXVXVXVXVXVXVXVXVXVXVXNXVXVXVXVXVXNXVXMXMXBXVXVXVXVXVXbXVXVXVXVXVXVXCXVXVXVXVXVXVXVXVXVXVXVXVXVXVXVXVXVXVXVXVXVXVXVXVXVXVXVXVXVXVXVXVX",
"VXVXVXVXVXVXVXVXVXVXVXVXVXVXVXVXVXVXVXVXVXVXVXVXVXVXVXVXVXVXVXVXVXVXBXVXNXVXCXVXVXVXVXBXVXVXVXVXVXVXVXVXVXVXVXVXVXVXVXVXVXVXVXVXVXVXVXVXVXVXVXVXVXVXVXVXVXVXVXVX",
"VXVXVXVXVXVXVXVXVXVXVXVXVXVXVXVXVXVXVXVXVXVXVXVXVXVXVXVXNXVXVXVXBXBXVXVXVXCXVXNXVXBXMXVXVXBXVXVXVXVXVXVXVXVXVXVXVXVXVXVXVXVXVXVXVXVXVXVXVXVXVXVXVXVXVXVXVXVXVXVX",
"VXVXVXVXVXVXVXVXVXVXVXVXVXVXVXVXVXVXVXVXVXVXVXVXVXVXVXBXVXVXCXVXVXVXBXBXVXVXVXVXVXMXVXMXVXBXVXVXVXVXVXVXVXVXVXVXVXVXVXVXVXVXVXVXVXVXVXVXVXVXVXVXVXVXVXVXVXVXVXVX"
};
