/* XPM */
static char *ca712bd3141341719c52ee9a36e06aeak8Rlvs8uN5blD33q[] = {
/* columns rows colors chars-per-pixel */
"80 80 35 1 ",
"  c None",
". c black",
"X c #010101",
"o c #020202",
"O c gray1",
"+ c #040404",
"@ c gray2",
"# c #060606",
"$ c #070707",
"% c gray3",
"& c #090909",
"* c gray4",
"= c #0B0B0B",
"- c #0C0C0C",
"; c gray5",
": c #0E0E0E",
"> c gray6",
", c #101010",
"< c #111111",
"1 c gray7",
"2 c #131313",
"3 c gray8",
"4 c #151515",
"5 c #161616",
"6 c gray9",
"7 c #181818",
"8 c gray10",
"9 c gray11",
"0 c #1D1D1D",
"q c gray12",
"w c #202020",
"e c gray13",
"r c gray14",
"t c #252525",
"y c gray15",
/* pixels */
"         ,*+OOOOOOOOOOOOOOOOOOOOOOOOOOOOOOOOO+*,                                ",
"       ;+OOOOOOOOOOOOOOOOOOOOOOOOOOOOOOOOOOOOOOO+;                              ",
"     ,OOOOOOOOOOOOOOOOOOOOOOOOOOOOOOOOOOOOOOOOOOOO+7                            ",
"    *OOOOOOOOOOOOOOOOOOOOOOOOOOOOOOOOOOOOOOOOOOOOOOO,                           ",
"   *OOOOOOOOOOOOOOOOOOOOOOOOOOOOOOOOOOOOOOOOOOOOOOOOO;                          ",
"  ;OOOOOOOOOOOOOOOOOOOOOOOOOOOOOOOOOOOOOOOOOOOOOOOOOOO6                         ",
"  OOOOOOOOOOOOOOOOOOOOOOOOOOOOOOOOOOOOOOOOOOOOOOOOOOOOO                         ",
" *OOOOOOOOOOOOOOOOOOOOOOOOOOOOOOOOOOOOOOOOOOOOOOOOOOOOO;                        ",
" OOOOOOOOOOOOOOOOOOOOOOOOOOOOOOOOOOOOOOOOOOOOOOOOOOOOOOO                        ",
",OOOOOOOOOOOO++O+++++O++++++++++O++O+++++++O+OOOOOOOOOOO                        ",
"*OOOOOOOOOO7                                 ,OOOOOOOOOO,                       ",
"+OOOOOOOOO;                                   *OOOOOOOOO;                       ",
"+OOOOOOOOO                                    ,OOOOOOOOO,                       ",
"+OOOOOOOOO                                    ,OOOOOOOOO,                       ",
"OOOOOOOOOO                                    ,OOOOOOOOO,                       ",
"+OOOOOOOOO                                    6OOOOOOOOO,                       ",
"+OOOOOOOOO                                     OOOOOOOOO;                       ",
"+OOOOOOOOO                                     *OOOOOOOO                        ",
"+OOOOOOOOO                                      +OOOOOO6                        ",
"+OOOOOOOOO                                       *OOO*7                         ",
"OOOOOOOOOO                                                                      ",
"+OOOOOOOOO                                                                      ",
"+OOOOOOOOO                                                   ;,                 ",
"+OOOOOOOOO                                                 +OOOO;               ",
"+OOOOOOOOO                                                OOOOOOO*              ",
"+OOOOOOOOO                                               *OOOOOOOO*             ",
"OOOOOOOOOO                                               OOOOOOOOOO+            ",
"+OOOOOOOOO                                               OOOOOOOOOOO*           ",
"+OOOOOOOOO                                               OOOOOOOOOOOO+          ",
"+OOOOOOOOO                                               *OOOOOOOOOOOO*         ",
"+OOOOOOOOO                                                *OOOOOOOOOOOO+        ",
"+OOOOOOOOO                                                 +OOOOOOOOOOOO+       ",
"OOOOOOOOOO                                                  *OOOOOOOOOOOO+      ",
"+OOOOOOOOO                                                   *OOOOOOOOOOOO+y    ",
"+OOOOOOOOO                                                    +OOOOOOOOOOOO+y   ",
"+OOOOOOOOO                     ,*+;********+***********+******OOOOOOOOOOOOOO+y  ",
"+OOOOOOOOO                    *OOOOOOOOOOOOOOOOOOOOOOOOOOOOOOOOOOOOOOOOOOOOOOOq ",
"+OOOOOOOOO                   *OOOOOOOOOOOOOOOOOOOOOOOOOOOOOOOOOOOOOOOOOOOOOOOO+ ",
"OOOOOOOOOO                   OOOOOOOOOOOOOOOOOOOOOOOOOOOOOOOOOOOOOOOOOOOOOOOOOO;",
"+OOOOOOOOO                  *OOOOOOOOOOOOOOOOOOOOOOOOOOOOOOOOOOOOOOOOOOOOOOOOOO+",
"+OOOOOOOOO                  ,OOOOOOOOOOOOOOOOOOOOOOOOOOOOOOOOOOOOOOOOOOOOOOOOOO*",
"+OOOOOOOOO                   OOOOOOOOOOOOOOOOOOOOOOOOOOOOOOOOOOOOOOOOOOOOOOOOOO;",
"+OOOOOOOOO                   *OOOOOOOOOOOOOOOOOOOOOOOOOOOOOOOOOOOOOOOOOOOOOOOOO ",
"+OOOOOOOOO                    *OOOOOOOOOOOOOOOOOOOOOOOOOOOOOOOOOOOOOOOOOOOOOOOq ",
"OOOOOOOOOO                     ,+*+*+*+*+++*+*+*++*++*+**+*++++OOOOOOOOOOOOO+q  ",
"+OOOOOOOOO                                                    +OOOOOOOOOOOOOw   ",
"+OOOOOOOOO                                                   OOOOOOOOOOOOOOw    ",
"+OOOOOOOOO                                                  OOOOOOOOOOOOO+      ",
"+OOOOOOOOO                                                 OOOOOOOOOOOOO+       ",
"+OOOOOOOOO                                                OOOOOOOOOOOOO+        ",
"OOOOOOOOOO                                               ;OOOOOOOOOOOO+         ",
"+OOOOOOOOO                                               +OOOOOOOOOOO+          ",
"+OOOOOOOOO                                               OOOOOOOOOOO*           ",
"+OOOOOOOOO                                               OOOOOOOOOO+            ",
"+OOOOOOOOO                                               ;OOOOOOOO;             ",
"+OOOOOOOOO                                                +OOOOOO*              ",
"OOOOOOOOOO                                                 *+OOO;               ",
"+OOOOOOOOO                                                   ,,                 ",
"+OOOOOOOOO                                                                      ",
"+OOOOOOOOO                                                                      ",
"+OOOOOOOOO                                       ,*O+,                          ",
"+OOOOOOOOO                                      ;OOOOO*                         ",
"OOOOOOOOOO                                     ;OOOOOOO*                        ",
"+OOOOOOOOO                                     OOOOOOOOO6                       ",
"+OOOOOOOOO                                    6OOOOOOOOO;                       ",
"+OOOOOOOOO                                    ,OOOOOOOOO,                       ",
"+OOOOOOOOO                                    ,OOOOOOOOO,                       ",
"+OOOOOOOOO                                    ,OOOOOOOOO,                       ",
"+OOOOOOOOO;                                   *OOOOOOOOO*                       ",
"*OOOOOOOOO+7                                 ,OOOOOOOOOO,                       ",
",OOOOOOOOOOO++++++++++++*++++++*+++++*++*++++OOOOOOOOOOO                        ",
" OOOOOOOOOOOOOOOOOOOOOOOOOOOOOOOOOOOOOOOOOOOOOOOOOOOOOOO                        ",
" *OOOOOOOOOOOOOOOOOOOOOOOOOOOOOOOOOOOOOOOOOOOOOOOOOOOOO;                        ",
"  OOOOOOOOOOOOOOOOOOOOOOOOOOOOOOOOOOOOOOOOOOOOOOOOOOOOO                         ",
"  ;OOOOOOOOOOOOOOOOOOOOOOOOOOOOOOOOOOOOOOOOOOOOOOOOOOO7                         ",
"   *OOOOOOOOOOOOOOOOOOOOOOOOOOOOOOOOOOOOOOOOOOOOOOOOO,                          ",
"    ;OOOOOOOOOOOOOOOOOOOOOOOOOOOOOOOOOOOOOOOOOOOOOOO,                           ",
"     ;OOOOOOOOOOOOOOOOOOOOOOOOOOOOOOOOOOOOOOOOOOOO+6                            ",
"       ;OOOOOOOOOOOOOOOOOOOOOOOOOOOOOOOOOOOOOOOOO;                              ",
"         ,*+OOOOOOOOOOOOOOOOOOOOOOOOOOOOOOOO++*,                                "
};
