/* XPM */
static char *result[] = {
/* columns rows colors chars-per-pixel */
"64 64 38 1 ",
"  c #000000",
". c #080707",
"X c #080708",
"o c gray3",
"O c #161414",
"+ c #191616",
"@ c #1C1817",
"# c #1A1718",
"$ c #1C1A1B",
"% c #211D1E",
"& c #211F21",
"* c #242122",
"= c #2B2626",
"- c #2E2827",
"; c #292728",
": c #2E2A2B",
"> c #312927",
", c #322C2C",
"< c #392F2E",
"1 c #36302F",
"2 c #39302F",
"3 c #322F30",
"4 c #353233",
"5 c #3A3435",
"6 c #3B3739",
"7 c #3D393C",
"8 c #403736",
"9 c #423837",
"0 c #403738",
"q c #413A3C",
"w c #483E3F",
"e c #433E41",
"r c #483F41",
"t c #454144",
"y c #4A4244",
"u c #4A4649",
"i c #4C494C",
"p c #514D4F",
/* pixels */
"564664646667676777676777766676766777e7777qqq7777777e77e7e7777777",
"644646667666764777776677666777777ttttteeeeq77eeeteeeeee7ee77t77t",
"6666666677777777t6eq77e77777eteeuiiuuuueqe7qequitettuutt7777ttt7",
"64:$$#$$#$$$$$$$##$$&$$#$$$$$$%&***&***&$#$$$$*$$&&&&&%&$&$$3677",
"44:O.       o           .                                   ;367",
"433#        o                                              X3646",
"433#                                                      XX3677",
"443#                                                      XX3777",
"433#                                                       X47e7",
"633#                                                       X6eee",
"634#                                                       X7uee",
"644#                                                       X7eee",
"444#                                                       X7uee",
"633#                                                       X7eee",
"433#                                                       Xeeee",
"63:#                                                       Xeiee",
"634&.                                                      Xtitt",
"4:4#                                                       X7tet",
"4::O                                                       X37tr",
"4;:O                                                       X7rtr",
"4--O                                                       Xettr",
"4-=O                                                       .tutr",
"4--O                                                       .wpur",
"5,,+                                                       .qpyr",
"514@                                                       Xquyy",
"646%                                                       .7tyy",
"646$                                                       .7rqe",
"455$                                                       .7eqq",
"545$                                                       .7r7e",
"656$                                                       .7yeq",
"66q&                                                       Xqee6",
"564$                                                       X6eeq",
"54,+                                                       .4eqq",
"434#                                                       .6eq6",
":35+                                                       .qrq8",
":45+                                                       .6y95",
":34#                                                       .5r98",
"::1#                                                       .0q95",
"3:3+                                                       X0q92",
":,,+                                                       X5qq2",
":3,+                                                       .5q05",
":31O                                                       .5rq2",
":3,+                                                       .5wq2",
"::3@                                                       .5wq5",
":,,#                                                       .6e75",
":,5@                                                       .7e05",
",:>O                                                       .6e65",
":>-O                                                       .5q02",
">>>O                                                       .5e55",
">:>O                                                       .575<",
">>,@                                                       .5qq2",
":>>+                                                       .5q85",
":>,+                                                       .5q75",
":,,+                                                       .6e85",
">>3+                                                       .6e05",
">,3@                                                       .6e05",
":,1#                                                       .5e65",
"::,+                                                       .47q5",
":::O                                                       .4775",
":,4*++##@*%@+++%$+++#$$#@@@$&@@@@$&$$$$%&%$%@%%*%%%**&$$@@@%4665",
"::::41315554,,,41141345,2<<5855,3q99086qwwq756eewqqqr05222247663",
":;*:33:44,,:,,>---41,:><3<<>><<>,5<<558888q52,65556053<<23:=3q5,",
";-:::::3::4:,,>>::,,,,<,,<>>><<<222855889qq6655555555222<<,-3333",
"34444444444445677766765855555525555888989qq00q0q000000q00qq06665"
};
