/* XPM */
static char *result[] = {
/* columns rows colors chars-per-pixel */
"64 64 205 2 ",
"   c #000000",
".  c #0B0000",
"X  c #130000",
"o  c #1C0000",
"O  c #1A1D1D",
"+  c #210000",
"@  c #2C0000",
"#  c #360000",
"$  c #3C0000",
"%  c #292B2B",
"&  c #372D2D",
"*  c #440000",
"=  c #4C0000",
"-  c #530000",
";  c #5D0000",
":  c #650101",
">  c #6C0202",
",  c #740404",
"<  c #7B0202",
"1  c #7D0909",
"2  c #4B4848",
"3  c #594B4B",
"4  c #5D5E5E",
"5  c #634C4C",
"6  c #655757",
"7  c #775656",
"8  c #6D6767",
"9  c #796464",
"0  c #746868",
"q  c #787474",
"w  c #840202",
"e  c #8B0202",
"r  c #830C0C",
"t  c #8B0A0A",
"y  c #940202",
"u  c #9B0303",
"i  c #960A0A",
"p  c #9C0D0D",
"a  c #8A1010",
"s  c #941414",
"d  c #9C1212",
"f  c #961919",
"g  c #991B1B",
"h  c #A30303",
"j  c #AC0505",
"k  c #A30B0B",
"l  c #AC0C0C",
"z  c #B20C0C",
"x  c #BA0D0D",
"c  c #B00606",
"v  c #A31414",
"b  c #AB1313",
"n  c #A51B1B",
"m  c #AC1C1C",
"M  c #B41414",
"N  c #BA1313",
"B  c #B41B1B",
"V  c #BC1A1A",
"C  c #9E2020",
"Z  c #A42323",
"A  c #AC2323",
"S  c #AB2F2F",
"D  c #B32323",
"F  c #BB2424",
"G  c #B32B2B",
"H  c #BA2C2C",
"J  c #AF3535",
"K  c #B33434",
"L  c #BB3333",
"P  c #B43E3E",
"I  c #BB3D3D",
"U  c #C41515",
"Y  c #C41B1B",
"T  c #CB1B1B",
"R  c #CC1515",
"E  c #D11D1D",
"W  c #C42222",
"Q  c #CC2222",
"!  c #C42B2B",
"~  c #CB2B2B",
"^  c #D42323",
"/  c #D92424",
"(  c #D42B2B",
")  c #D92C2C",
"_  c #C13333",
"`  c #CA3232",
"'  c #C23C3C",
"]  c #CB3C3C",
"[  c #D43535",
"{  c #DC3333",
"}  c #D43B3B",
"|  c #DF3F3F",
" . c #E63333",
".. c #E33B3B",
"X. c #975858",
"o. c #894F4F",
"O. c #A14F4F",
"+. c #B54444",
"@. c #BC4343",
"#. c #BC4B4B",
"$. c #B74848",
"%. c #A85757",
"&. c #BB5555",
"*. c #B55B5B",
"=. c #BB5959",
"-. c #846464",
";. c #9D6B6B",
":. c #966767",
">. c #837373",
",. c #8C7575",
"<. c #9D7272",
"1. c #957878",
"2. c #AA6969",
"3. c #B36363",
"4. c #BE6767",
"5. c #BE6868",
"6. c #B46E6E",
"7. c #A57575",
"8. c #A87A7A",
"9. c #BE7474",
"0. c #BE7B7B",
"q. c #B47979",
"w. c #C34343",
"e. c #CB4444",
"r. c #C24E4E",
"t. c #CB4C4C",
"y. c #D44545",
"u. c #DB4444",
"i. c #D34C4C",
"p. c #DC4D4D",
"a. c #C35454",
"s. c #CC5353",
"d. c #C35B5B",
"f. c #CB5B5B",
"g. c #D45353",
"h. c #DC5252",
"j. c #D45D5D",
"k. c #DC5C5C",
"l. c #E24545",
"z. c #E45555",
"x. c #EA5A5A",
"c. c #E85656",
"v. c #F44B4B",
"b. c #C36565",
"n. c #CB6464",
"m. c #C36C6C",
"M. c #CB6B6B",
"N. c #D16363",
"B. c #D46D6D",
"V. c #DB6B6B",
"C. c #DB6262",
"Z. c #C27474",
"A. c #CC7474",
"S. c #C27C7C",
"D. c #CD7B7B",
"F. c #D47474",
"G. c #D57C7C",
"H. c #DA7B7B",
"J. c #DB7373",
"K. c #E76666",
"L. c #E47878",
"P. c #F27171",
"I. c #7D8080",
"U. c #8A8585",
"Y. c #9B8282",
"T. c #928B8B",
"R. c #9B8787",
"E. c #9C9696",
"W. c #AC8484",
"Q. c #AA8B8B",
"!. c #A48C8C",
"~. c #B28383",
"^. c #BE8484",
"/. c #B48C8C",
"(. c #BD8989",
"). c #A69595",
"_. c #AD9D9D",
"`. c #A99898",
"'. c #B59494",
"]. c #BB9292",
"[. c #B29B9B",
"{. c #BB9A9A",
"}. c #ACA1A1",
"|. c #B8A8A8",
" X c #BCB4B4",
".X c #C28383",
"XX c #CB8484",
"oX c #C38B8B",
"OX c #CB8C8C",
"+X c #D38585",
"@X c #D68787",
"#X c #C49494",
"$X c #CC9494",
"%X c #C59C9C",
"&X c #CB9C9C",
"*X c #D49494",
"=X c #D29E9E",
"-X c #DB9999",
";X c #E39696",
":X c #EE8484",
">X c #C5A3A3",
",X c #CBA2A2",
"<X c #C2A9A9",
"1X c #D2A1A1",
"2X c #C5B2B2",
/* pixels */
"                                                  . . . X X X X o X X X . .                                                     ",
"                                          . . X o @ $ = ; : > , , , : ; - $ @ + X .                                             ",
"                                      . X @ * : t Z P $.d.b.m.m.9.m.b.=.$.P Z a : * @ X .                                       ",
"                                . . + $ > f P 4..X]..XZ.b.d.a.r.#.&.d.n.#X[.].S.b.P f > $ + . .                                 ",
"                              . + = 1 K b..X^.M.~.>.k.j h Y ~ y , e W l.;X}.C.t.b.^.^.b.K r * o .                               ",
"                          . o $ 1 K S.^.b.' V ^ M.6 &.e i N.n.w = 1 b.T.1.<XH < u Y u.F..XS.K 1 $ o .                           ",
"                        . @ : S M.^.N.! i < B %.{.F.M < w b k < : y b.q #XoXn : d s.j.=.c.n.oXM.S : @ .                         ",
"                    . X * a a..Xn.l.h.' i > m 7 9 u.j v D L I K P ] F.XX:Xj.h > i b.8.2 d.j G b..Xa.a * X .                     ",
"                  . o - Z Z..Xw.x u.*X,.K w u y.+XV.M.Z..X%X_.Y.1.}.,XOXXXA.a.K l c ! 3.I > > k z..XZ.Z - o .                   ",
"                . o : K .X9.A < m Z.-X`.n.W r.Z..Xb.h.x.H.>X,X,X,X,X%XH.x.h.b.S.Z.r.Y c w - : G j.( M..XK ; o .                 ",
"              . o : @.(.d.d - * r H y.!.*XS.Z.e.^ { N.oX,X%X/.f.d..X&X%XoXj.{ ^ e.m.0.a.n , i .X+XT x f.(.@.: + .               ",
"            . o : $.(.i.Y w * # ; u i.&XZ.] R ( b.oX,X&X.XXXS.k w A 9.'.,X,XoXb.~ R ] Z.0.' U n.6 4.y.U s.(.$.: o               ",
"            o ; K ^.h. .G.a.w : d 4.0.t.T ` b.#X,X{..Xa.B e.Z.t = < =.B.s.S.&X,X#Xb.` E i.0.f. .o.0 >.' u r.(.I ; X             ",
"          X * S oXK.k.:.>.!.e.F 5.A...[ m.#X,X&XoX~.L < , I Z.r # : =.a.u n a.W.>X,X#Xm.[ ..A.A..XZ.&.Z > y a..XS = X           ",
"        . # f S.B.P.*X2 q E.+XD.H.c.M.#X,X%XS.@.[ S.n = - P Z.r # : =.&.> - d S.B.Z.%X,X#XA.c.H.&Xp.h > > v ..J.S.f # .         ",
"        + , n.0.Y ] V.U.U.>X2X,XXX%X,X%X'.d.v < n 9.C $ = +.9.r # : =.&.: $ t 9._ b @.S.'.,X#X+X,XS.m , d 3.7 Z.$Xb., +         ",
"      X = I oX[ u w D 4.q.#X`.>X,X%XZ.y.A.$.: = n 9.C $ = +.9.r # : =.&.: # a 9.S ; < L (.D.%X,X,X`.3.M w.>.4 7 V..XI - .       ",
"      @ s S.+X&.w.k e U F.1.=X{.~.I p u 4.+.- $ f 9.C $ = P 9.r # : =.&.; # a 9.J = = S 9.Y I m.{.&X1.N.m.).,.e.N d.S.s @ .     ",
"    X ; #.XXn.6 |.f.W ] _.>XoXG.b.e = r 4.+.- $ g 0.C $ = +.Z.r # : *.&.; # a 9.S * * S 9.p > p 4.!.>X}.@X<.%.p > n S.r.; X     ",
"  . @ f .Xi.r.,.U./.L.XX>X,XA.z.5., $ , 4.+.- $ g 9.C $ = P Z.r # : =.&.: # t 9.S * * J 9.a * > &._.1X,XD.z.F e w u t..Xs @ .   ",
"  X - r.S.B b N.%XP.K.D.@X,Xf.y.6., # , 4.+.= $ f Z.Z $ = P 9.r # : =.&.; # a 9.S * * S 9.a # : &.|.,X+XD.s.h H a.f. .S.$.- .   ",
"  o r Z.a.h w p e.c.S.x.oX&Xe.e.5., # , 4.+.- $ f 0.C $ = P S.r # : =.&.; $ a 9.S * * S 9.a # ; &.>X&XOXx.0.Y w.9 >.C.K.S.r +   ",
". # S .X .e.n , y t.M.l.#X#XW w.5., # , 4.+.- $ g 9.C $ = +.Z.r # : =.&.; # r 9.S * * J 9.t $ ; &.@X#X#Xl.M.t.( ,.T.-.c..XS $ . ",
"X - &.A.c.'.r.w d 9.y.g.,XS.N w.5., # , 4.$.- # g 9.C $ = P 9.r # : *.&.; $ a 9.S * * S 9.a # ; &.V.XX,Xt.y.Z.{ n.t.H U Z.&.; . ",
"+ 1 Z.g.} R.9.l H 0.^ m.,Xm.j @.5., # , 4.+.- $ f 0.g * = P Z.r # : =.&.; # a 9.S * * S 9.a $ ; &.j.B.,Xm.^ 0.~ j N V j a.Z.1 + ",
"@ g .XL z M.=.N a.b.T .X&Xa.u @.5., # , 4.+.- # g 9.C $ = P Z.r # : =.&.; # t 9.S * * S 9.a # ; &.f.g.&X.XQ b.a.T 6.<.g.| .Xg @ ",
"* J .XB y j h j 5.t.~ #X#XK e @.5., # , 4.+.- $ f 9.C $ = +.Z.r # : =.&.: # a 9.S * * S 9.a # ; &.a.[ %X#X~ t.m.T F.2 5 x..XK * ",
"- $.Z.x L t.e.} S.` e.&X.Xn < @.5., # , 4.+.- $ g 0.C $ = P 9.r # : =.&.; # a 9.S * * S 9.a # ; &.d.T .X&Xe.~ 0.N _ <.8 k.D.#.- ",
": =.b.x O.3 {.1X(.Q d.,XZ.t > +.5., # , 6.$.- # g Z.C $ = P 9.r # : =.&.; $ a 9.J * * S 9.a # : &.a.x Z.,Xd.^ 0.F u H L Y b.d.: ",
", b.d.x X.O M.*X.X^ S.,X=.< : $.9., # , 4.$.- $ f 0.C $ = +.Z.r # : =.&.; # t 9.S * * S 9.a # ; &.=.j d.&XS.^ 9.] h k e e =.4., ",
", b.a.j &.;.y.u.Z.) oX&XK - ; $.5., # , 4.+.- $ g 0.g $ = +.Z.r # : =.&.; # a 9.S * $ S 9.t # ; &.&.u ' &XoX) S..X*.m.v w a.b., ",
"1 Z.r.u k M h I M.u.%XoXZ = - $.5., # , 4.+.- $ g Z.Z $ = P Z.r # : =.&.; # a 9.S * * J 9.a $ ; &.=.y D oX%Xu.D.U.% 3 L e #.Z.1 ",
"1 m.a.Y I B y I M.k.%X7.f $ - +.5., # , 4.+.- $ f 0.Z $ = P Z.r # : *.&.; # a 9.S * * S 9.a # : &.=.w p S.,Xk.G.!.& 3 L y #.Z.1 ",
", m.t.} 1.9.V ' G.+X%X<.g $ - +.5., # , 4.+.- $ f Z.g $ = +.9.r # : =.&.; $ t 9.S * * S 9.a # ; &.=.< w b.&XG.D.h._ ' n y r.m.< ",
", b.f.( ).T.] ! #X&X%XW.g $ - $.5.1 # > 4.+.- # g Z.C $ = P 9.r # : =.&.; # a 9.S * * S 9.a # ; &.=.< : $.&X%X#Xy.x j h u d.4., ",
": =.b.Q X.X.L W {.<X<X].g $ - +.6., # , 4.+.- $ f 0.C $ = +.Z.r # : =.&.: # a 9.S * * S 9.a # ; &.=., - S #X>X X8.Z.0.b.Y b.=.: ",
"- #.9.N M N h Y 8.%X|.#Xf $ - +.b., # , 4.+.= $ g 0.g * = +.Z.r # : *.&.; # a 9.S * * S 9.a # ; &.=., ; m oX%X'.;.E.Y.t.U Z.$.- ",
"* J .XV D L ] *.!./.%XW.n * ; $.5., # , 4.+.- $ g Z.C $ = P 9.r # : =.&.; # t 9.S * * S 9.a # ; &.=.w w a.#XQ.*.^ m.*.h M ^.J * ",
"@ g .X| M.-.Y.8.,X}.&X/.I > > $.9., # , 5.+.- $ g 9.C $ = P 9.r # : =.&.: # a 9.S * * S 9.t # : &.&.h @.#X1X}.&.u G A w L .Xg # ",
"+ 1 Z.g./ B.|.P.;X<X&X1X^.H w @.5., # , 5.+.- $ g 9.Z $ = +.Z.r # : =.&.; # a 9.S * * J 9.a # ; &.d.( .X=X%X%XH w w , < &.S.1 o ",
"X - a.Z.) 9.a.M ~ S.L.oX=X9.N w.5., # , 5.$.- # g Z.C $ = +.Z.r # : =.&.; $ a 9.J * * S 9.a # ; &.F.A.,XoXH.Z.x H G w i Z.a.- X ",
". $ S .X{ G e e N B.G.z.#X&Xn.h.5., # , 5.$.- $ f 0.C $ = P 9.r # : =.&.; # a 9.S $ * S 9.a $ : &.[.=XoXc.A.t.Y :.%.k H .XS # . ",
"  + r S.a.w > A X.9 `.l.f.&X#X$X5., # , 5.+.- $ f Z.C * = +.Z.r # : =.&.: # t 9.S * * S 9.i = w 4./.&Xj.l.0.V H b.G u a.S.r o   ",
"  . - $..Xv , G 6.3 ].Z./ M.1X[.6.w * , 4.+.- $ f 0.C $ = P Z.r # : =.&.; # a 9.S * * J 9.d < I oX=Xm./ Z.g.j u k w m S.@.- .   ",
"    @ s .Xr.w y f.:.p.Z.t.T S.&X^.G : w 4.+.- $ g Z.C $ = +.9.r # : =.&.; # a 9.S * * S Z.l H ^.1XS.Q t.#XF.B.L u y t.S.f @ .   ",
"    X ; r.S.n < n A u ' ^.~ ] oX&XZ.n y 4.+.- # f 9.C $ = P 9.r # : *.&.: # t 9.S * * S Z.) Z.=X(.] ~ .X#X0 U.7 d.~ ^.&.; X     ",
"    . @ s S.d.e : : > y d.Z.T e.#X&Xb.U 4.+.- $ g 0.Z $ = P S.r # : =.&.; # a 9.S * * S XXF.&X#Xt.T Z.V.6.% `.OXL.C.S.s @ .     ",
"      X = P ^.L 1 d A w b m.m.T f.&X#Xk.M.+.- $ g 9.g $ = +.9.r # : =.&.; # a 9.S * = S '.%X&Xd.T b.m.Q %.2 E.@Xv..XI = .       ",
"        + , b.S.V y.g.y u ~ Z.f./ M.&X#X#X$.- $ f 0.g $ - P Z.r # > =.&.; $ t 9.S ; > @.Q.=XM.^ b.oXF < d $.3.c.D.b., +         ",
"        . # f S.b.U u k d.' W 9.n...XX1XQ.$.: = n 9.Z = - P 9.t * > =.&.> * a 9.G < G .X1XS...M.|.$X~ w : w Y N.S.f # .         ",
"          X = S oXa.u p r.S < Z Z.A.K.oX&XZ.v < B Z.D < w w.Z.k , e d.a.e , b Z._ M Z.1XOXK.A.XXW.3 7.L , e a.oXS * X           ",
"            X ; I (.a.u < ; * > ~ OX/.-X>X&Xm.a.n.W.b.#.r.Z.~.f.#.a.q.9.a.#.d.~.M.M.&X%X-X.Xd.T a.5 7.t.h r.(.+.; o             ",
"              o : @.(.a.e * $ r n.0 R.$X}.'.*X*X$X$X$X$X$X$X$X#X$X*X$X$X$X*X$X$X#X*X].}..XI y l 2.*.Y Y s.^.@.: o .             ",
"              . + : @.oXd.s : p 9.0 ~. .t.;.R.|.$XA.A.A.Z.Z.M.Z.Z.Z.Z.m.Z.A.A.$X|.).U.Y.] < : S D.W x d.^.@.: +                 ",
"                . o ; K ^.M.D h d.1.L.k.j B t.%X%X+Xk.../ E T U U R T ) ..z.F.$X X X8 5 ' > - t V W M..XK ; + .                 ",
"                  . o - Z Z.0.e.^ [ K.OXd > M :.I.|.#XS.S.Z.Z.S.Z.Z.S./.}.%Xf.] q.(./.4.{ t : i ' ^.S.Z - o                     ",
"                      X * a d.oXM.~ ) ' w > K 9 U.9 m.W F h.{.T.F.] F.,.q W.B y a.3 T.'.XX~ H b.^.d.a * X                       ",
"                        . @ : S Z..Xf.! y e @.Q.n.L n < k b.& O $.j y.*X4 <.m > n O.:.7.F.B..XZ.S : @ . .                       ",
"                          . o $ r K Z.^.m.' { ..z < : : A <.X.o.' u h.Q.% &.u < u ( x.+XoXZ.K 1 $ o .                           ",
"                            . . + * 1 J b..X.Xn.w.H f y ! <.k.R j u [ 1.5 h.H @.b.0..Xb.K w = + .                               ",
"                                  . + $ > f P b.S.^..XZ.A.>X@Xs.r.r.M.,X,XoX.XS.b.P f > $ o .                                   ",
"                                    . . X @ * : r Z P #.4.m.m.5.5.m.b.d.#.P Z r : * @ X . .                                     ",
"                                          . . X + @ $ = ; : > , , > : ; = $ @ o X . .                                           ",
"                                                    . . X X X X o X X X . .   .                                                 "
};
