/* XPM */
static char *_9a2550a573b4641fdfa103f83104f73AYKxRqmFjJ1HlzsS[] = {
/* columns rows colors chars-per-pixel */
"80 80 151 2 ",
"   c None",
".  c #000001",
"X  c #06060B",
"o  c #07080E",
"O  c #09090E",
"+  c #18090F",
"@  c #11050C",
"#  c #0C0C13",
"$  c #0E0E1A",
"%  c #151316",
"&  c #13131C",
"*  c #1C1A1E",
"=  c #2F0B13",
"-  c #211B1B",
";  c #331A1A",
":  c #000127",
">  c #00012F",
",  c #0F1026",
"<  c #0F1129",
"1  c #131325",
"2  c #1B1B23",
"3  c #14142B",
"4  c #1B1B2C",
"5  c #000333",
"6  c #05043B",
"7  c #150C39",
"8  c #121433",
"9  c #1B1B34",
"0  c #14163B",
"q  c #17193D",
"w  c #1C1C3B",
"e  c #3D1721",
"r  c #351723",
"t  c #1F203B",
"y  c #22222D",
"u  c #3C3028",
"i  c #242432",
"p  c #282735",
"a  c #292935",
"s  c #2C2C3C",
"d  c #3C3334",
"f  c #651521",
"g  c #4E372A",
"h  c #463A2E",
"j  c #4D3F38",
"k  c #513931",
"l  c #754432",
"z  c #0B0644",
"x  c #090E48",
"c  c #120B4A",
"v  c #161844",
"b  c #1E124F",
"n  c #191B4B",
"m  c #150A52",
"M  c #1E0D5E",
"N  c #1C1F53",
"B  c #191D5E",
"V  c #2A1E44",
"C  c #1F2147",
"Z  c #1E204C",
"A  c #1E215E",
"S  c #1F2254",
"D  c #2B2D4D",
"F  c #323243",
"G  c #323248",
"H  c #232555",
"J  c #21245B",
"K  c #343559",
"L  c #37395E",
"P  c #181C61",
"I  c #200D62",
"U  c #1E2160",
"Y  c #1E226B",
"T  c #212461",
"R  c #21256F",
"E  c #272A6B",
"W  c #2A2D6D",
"Q  c #232774",
"!  c #242876",
"~  c #292D74",
"^  c #25297A",
"/  c #292D7B",
"(  c #2D327E",
")  c #404047",
"_  c #43434A",
"`  c #544048",
"'  c #4D4D55",
"]  c #5B4457",
"[  c #56565E",
"{  c #604247",
"}  c #6A4D4B",
"|  c #6F5743",
" . c #484B7F",
".. c #494B73",
"X. c #57527C",
"o. c #624E6C",
"O. c #67676F",
"+. c #786165",
"@. c #6E6E79",
"#. c #72727B",
"$. c #8B0D1D",
"%. c #940E1F",
"&. c #861322",
"*. c #8B1422",
"=. c #871827",
"-. c #901121",
";. c #A41325",
":. c #A51728",
">. c #88202D",
",. c #A0202F",
"<. c #B42032",
"1. c #BF2336",
"2. c #B62D3E",
"3. c #B03A48",
"4. c #90434D",
"5. c #A95C4E",
"6. c #997B5E",
"7. c #A66453",
"8. c #BE5964",
"9. c #8E7678",
"0. c #BE636D",
"q. c #C6505E",
"w. c #CF747F",
"e. c #BC9873",
"r. c #C39267",
"t. c #C19772",
"y. c #CC9F76",
"u. c #D0A175",
"i. c #2A2E82",
"p. c #2C3185",
"a. c #2D3289",
"s. c #303586",
"d. c #31358C",
"f. c #323791",
"g. c #333893",
"h. c #363B98",
"j. c #4E5186",
"k. c #6F6A86",
"l. c #7C7C85",
"z. c #85858F",
"x. c #878790",
"c. c #8A8A94",
"v. c #8E8E98",
"b. c #909096",
"n. c #91919C",
"m. c #9A9AA3",
"M. c #9F9FAC",
"N. c #9696A2",
"B. c #A0A0AD",
"V. c #D99DA4",
"C. c #F8EFF0",
/* pixels */
"                                                                                                                                                                ",
"                                                                                                                                                                ",
"                                                                                                                                                                ",
"                                                                                                                                                                ",
"                                                                                                                                                                ",
"                                                                                                                                                                ",
"                                                                                                                                                                ",
"                                                                                                                                                                ",
"                                                                                                                                                                ",
"                                                                                                                                                                ",
"                                                                                                                                                                ",
"                                                                                                                                                                ",
"                                                                                                                                                                ",
"                                                                % $                                                                                             ",
"                                                              % $ %                                                                                             ",
"                                                                  +.0.                                                                                          ",
"                                                                  { <.  ;.1.                                                                                    ",
"                                                                o $ f >.r 2.                                                                                    ",
"                                                                & # = :.e *.                                                                                    ",
"                                                                # @ 4.w.$.%.                                                                                    ",
"                                                                # l 8.C.q.V.                                                                                    ",
"                                                                O ; ,.q.3.3.                                                                                    ",
"                                                                  + *.;.;.*.                                                                                    ",
"                                                                o - 7.*.*.*.                                                                                    ",
"                                                                p.~ j 5.&.&.                                                                                    ",
"                                                                a.p.d t.k                                                                                       ",
"                                                              2 W g.W % # ~                                                                                     ",
"                                                            F p H f.~ # O ~                                                                                     ",
"                                                            F F i T i.J # ( g.                                                                                  ",
"                                                          F F F i w / d.q ~ g.                                                                                  ",
"                                                        F F F F i ( a.p.q ~ f.                                                                                  ",
"                                                        F F F i 9 ( p./ q / ^                                                                                   ",
"                                                        F F p 2 J ^ g.S U f.W                                                                                   ",
"                                                      F F s 2 H ! ^ f.N J a.G                                                                                   ",
"                                                      F F s 4   ! ! p.n n ! G F                                                                                 ",
"                                                      F F y &   Q Q ^ n 0 P s F                                                                                 ",
"                                                      F s 2 X    .j.j.K : > 4 F                                                                                 ",
"                                                      F i % #   b.m.x.L 5 D y s 4                                                                               ",
"                                                      F y # X u k.X.K > x ..y 2 # X                                                                             ",
"                                                        p # * 6.9.c 6 P ^ i.H % X X                                                                             ",
"                                                        p O h y.r.} E h.E / s.  g | e.                                                                          ",
"                                                        2 7 V ` ] o.g.g.q A g.    y.r.                                                                          ",
"                                                        b c 6 x i.p.g.d.8 U i.                                                                                  ",
"                                                      m z 6 Y i.f.g.g.a.8 8 ! i.                                                                                ",
"                                                  I m 6 5 R g.g.f.f.h.p.8 X 0 !                                                                                 ",
"                                                I z 6 5   f.g.f.g.f.f.p.8 & , !                                                                                 ",
"                                              I z 5     h.g.g.g.g.f.g.a.8 4 3 n                                                                                 ",
"                                          I m 6         / / g.f.g.g.a./ 8 8 4 8                                                                                 ",
"                                        M z 6 5         ! Q i.d.g.f.a.! 8 4 4 0                                                                                 ",
"                                  M M M z 5               ! Q a.g.f.^ ! 8 4 w 3                                                                                 ",
"                                  6 6 6                   < Q ! ^ ^ ! n 1 w w 1                                                                                 ",
"                                                          # n ! Q Q ! v 1 w 4 O                                                                                 ",
"                                                        O # 9 S R Q N , 9 $ O o                                                                                 ",
"                                                        O X & w 1 # # X O O O o                                                                                 ",
"                                                        X X $ 9 9 # X # # O O O                                                                                 ",
"                                                        * # O O o o   c.) o O                                                                                   ",
"                                                        m.a X O X     B.v.y                                                                                     ",
"                                                        B.l.2 O       B.n.                                                                                      ",
"                                                        M.c.x.        M.n.                                                                                      ",
"                                                        m.c.x.        n.z.                                                                                      ",
"                                                        x.x.x.        c.x.                                                                                      ",
"                                                        z.O.          c.                                                                                        ",
"                                                        c.*           #.#.                                                                                      ",
"                                                        z.'         [ _ #.n.                                                                                    ",
"                                                        #.          . ) v.z.                                                                                    ",
"                                                                                                                                                                ",
"                                                                                                                                                                ",
"                                                                                                                                                                ",
"                                                                                                                                                                ",
"                                                                                                                                                                ",
"                                                                                                                                                                ",
"                                                                                                                                                                ",
"                                                                                                                                                                ",
"                                                                                                                                                                ",
"                                                                                                                                                                ",
"                                                                                                                                                                ",
"                                                                                                                                                                ",
"                                                                                                                                                                ",
"                                                                                                                                                                ",
"                                                                                                                                                                "
};
