/* XPM */
static char *result[] = {
/* columns rows colors chars-per-pixel */
"64 64 211 2 ",
"   c black",
".  c #040302",
"X  c #040403",
"o  c #070707",
"O  c #0A0705",
"+  c #0D0B02",
"@  c #090909",
"#  c gray6",
"$  c #100E03",
"%  c #1D1906",
"&  c #19130D",
"*  c #1A140E",
"=  c #211D07",
"-  c #2F2909",
";  c #332C0A",
":  c #38310C",
">  c #3A330C",
",  c #372B1E",
"<  c #423323",
"1  c #504610",
"2  c #514610",
"3  c #5C5012",
"4  c #615514",
"5  c #736317",
"6  c #494328",
"7  c #5E4832",
"8  c #644C35",
"9  c #836546",
"0  c #856647",
"q  c #9B871F",
"w  c #BAA226",
"e  c #988575",
"r  c #988576",
"t  c #998677",
"y  c #9A8776",
"u  c #9B8776",
"i  c #9A8777",
"p  c #9B8777",
"a  c #9A8778",
"s  c #9A8878",
"d  c #9B8878",
"f  c #9B8879",
"g  c #9C8979",
"h  c #9C897A",
"j  c #9C8A7A",
"k  c #9D8A7B",
"l  c #9D8B7B",
"z  c #9E8B7C",
"x  c #9E8C7C",
"c  c #9E8C7D",
"v  c #9F8C7D",
"b  c #9E8D7D",
"n  c #9F8D7D",
"m  c #9F8D7E",
"M  c #9F8E7E",
"N  c #9F8E7F",
"B  c #A48D78",
"V  c #A08E7E",
"C  c #A08E7F",
"Z  c #AA9079",
"A  c #B0947A",
"S  c #B1947A",
"D  c #B6987B",
"F  c #C7986B",
"G  c #C29E7D",
"H  c #CFA67F",
"J  c #DEAB77",
"K  c #DFAA78",
"L  c #E3AE7A",
"P  c #E7B17B",
"I  c #E7B17C",
"U  c #E9B078",
"Y  c #ECB37B",
"T  c #EAB37D",
"R  c #EBB47D",
"E  c #EAB47E",
"W  c #ECB57F",
"Q  c gray51",
"!  c #8B8B8A",
"~  c #A08F80",
"^  c #A18F80",
"/  c #A29182",
"(  c #A29183",
")  c #A39283",
"_  c #A39284",
"`  c #A49385",
"'  c #A59486",
"]  c #A59587",
"[  c #A69688",
"{  c #A79789",
"}  c #A8988A",
"|  c #AA9A8D",
" . c #AB9B8E",
".. c #AC9C8F",
"X. c #AC9D90",
"o. c #AE9F92",
"O. c #AFA094",
"+. c #B1A397",
"@. c #B3A599",
"#. c #B4A69A",
"$. c #B8AB9F",
"%. c #AFAFAC",
"&. c #BCAFA5",
"*. c #BDB1A6",
"=. c #BEB2A8",
"-. c #BFB3A9",
";. c #D2A880",
":. c #D5AA80",
">. c #E8B483",
",. c #E9B583",
"<. c #EAB583",
"1. c #EFB780",
"2. c #F2B981",
"3. c #F5BB82",
"4. c #F5BC83",
"5. c #F6BC83",
"6. c #F3BB84",
"7. c #F5BC84",
"8. c #F6BC84",
"9. c #F6BD84",
"0. c #F7BD84",
"q. c #F6BC85",
"w. c #F6BD85",
"e. c #F7BD85",
"r. c #F7BE85",
"t. c #F8BD85",
"y. c #F8BE84",
"u. c #F8BE85",
"i. c #F9BE85",
"p. c #F9BF85",
"a. c #C0B4AB",
"s. c #C1B5AB",
"d. c #C2B6AD",
"f. c #C2B7AD",
"g. c #C9BFB7",
"h. c #CABFB7",
"j. c #FCC187",
"k. c #CBC2BA",
"l. c #CDC5BE",
"z. c #C7C6C5",
"x. c #D0C8C0",
"c. c #D4CCC6",
"v. c #D6CFC8",
"b. c #D5D3CA",
"n. c #D8D0C9",
"m. c #D9D2CC",
"M. c #DCD5D0",
"N. c #DDD6D1",
"B. c #DED7D2",
"V. c #DED8D3",
"C. c #DFD9D3",
"Z. c #DFDAD5",
"A. c #DDDCDB",
"S. c #E1DBD6",
"D. c #E1DCD7",
"F. c #E6E0DD",
"G. c #E6E1DD",
"H. c #E8E4E0",
"J. c #E9E5E2",
"K. c #EAE6E3",
"L. c #ECE8E5",
"P. c #ECE9E6",
"I. c #EDEAE7",
"U. c #EEEAE7",
"Y. c #EEEBE8",
"T. c #EFEBE9",
"R. c #EEECE9",
"E. c #EFECE9",
"W. c #F0EDEB",
"Q. c #F1EEEC",
"!. c #F1EFEE",
"~. c #F2EFEE",
"^. c #F2F0EE",
"/. c #F3F0EF",
"(. c #F3F1EF",
"). c #F3F2EF",
"_. c #F4F1EF",
"`. c #F4F2F0",
"'. c #F4F3F1",
"]. c #F5F3F1",
"[. c #F5F3F2",
"{. c #F6F4F2",
"}. c #F6F4F3",
"|. c #F6F5F3",
" X c #F7F5F4",
".X c #F7F6F4",
"XX c #F7F7F6",
"oX c #F8F7F6",
"OX c #F9F8F7",
"+X c #F9F8F8",
"@X c #FAF9F8",
"#X c #FAF9F9",
"$X c #FBFAF8",
"%X c #FAFAF9",
"&X c #FBFAF9",
"*X c gray98",
"=X c #FBFAFA",
"-X c #FBFBFA",
";X c #FCFBFA",
":X c #FCFBFB",
">X c #FCFCFB",
",X c gray99",
"<X c #FDFCFC",
"1X c #FDFDFC",
"2X c #FDFDFD",
"3X c #FEFDFD",
"4X c #FEFEFE",
"5X c #FFFEFE",
"6X c #FFFFFE",
"7X c white",
"8X c None",
/* pixels */
"8X8X8X8X8X8X8X8X8X8X8X8X8X8X8X8X8X8X8X8X8X8X8X8X8X8X8X8X8X8X8X8X8X8X8X8X8X8X8X8X8X8X8X8X8X8X8X8X8X8X8X8X8X8X8X8X8X8X8X8X8X8X8X8X",
"8X8X8X8X8X8X8X8X8X8X8X8X8X8X8X8X8X8X8X8X8X8X8X8X8X8X8X8X8X8X8X8X8X8X8X8X8X8X8X8X8X    8X8X8X8X8X8X8X8X8X8X8X8X8X8X8X8X8X8X8X8X8X",
"8X8X8X8X8X8X8X8X8X8X8X8X8X8X8X8X8X8X8X8X8X8X8X8X8X8X8X8X8X8X8X8X8X8X8X8X8X8X8X8X      8X8X8X8X8X8X8X8X8X8X8X8X8X8X8X8X8X8X8X8X8X",
"8X8X8X8X8X8X8X8X8X8X8X8X8X8X8X8X8X8X8X8X8X8X8X8X8X8X8X8X8X8X8X8X8X8X8X8X8X8X8X    8X8X8X8X8X8X8X8X8X8X8X8X8X8X8X8X8X8X8X8X8X8X8X",
"8X8X8X8X8X8X8X8X8X8X8X8X8X8X8X8X8X8X8X8X8X8X8X8X8X8X8X8X8X8X8X8X8X8X8X8X8X8X8X8X  8X8X8X8X8X8X8X8X8X8X8X8X8X8X8X8X8X8X8X8X8X8X8X",
"8X8X8X8X8X8X8X8X8X8X8X8X8X8X8X8X8X8X8X8X8X8X8X8X8X8X8X8X8X8X8X8X8X8X8X8X8X8X8XX   * , . 8X8X8X8X8X8X8X8X8X8X8X8X8X8X8X8X8X8X8X8X",
"8X8X8X8X8X8X8X8X8X8X8X8X8X8X8X8X8X8X8X8X8X8X8X8X8X8X8X8X8X8X8X8X8X8X8X8X8Xu.T & 7 0 F 9 8 O 8X8X8X8X8X8X8X8X8X8X8X8X8X8X8X8X8X8X",
"8X8X8X8X8X8X8X8X8X8X8X8X8X8X8X8X8X8X8X8X8X8X8X8X8X8X8X8X8X8X8X8X8X8X8X8X8Xt.R < K L I j.4.8X8X8X8X8X8X8X8X8X8X8X8X8X8X8X8X8X8X8X",
"8X8X8X8X8X8X8X8X8X8X8X8X8X8X8X8X8X8X8X8X8X8X8X8X8X8X8X8X8X8X8X8X8X8X8X8X8X0.Y P 7.T W 2.u.8X8X8X8X8X8X8X8X8X8X8X8X8X8X8X8X8X8X8X",
"8X8X8X8X8X8X8X8X8X8X8X8X8X8X8X8X8X8X8X8X8X8X8X8X8X8X8X8X8X8X8X8X8X8X8X8Xu.u.3.u.e.9.I 1.r.8X8X8X8X8X8X8X8X8X8X8X8X8X8X8X8X8X8X8X",
"8X8X8X8X8X8X8X8X8X8X8X8X8X8X8X8X8X8X8X8X8X8X8X8X8X8X8X8X8X8X8X8X8X8X8X8Xu.u.u.9.J E u.i.8X8X8X8X8X8X8X8X8X8X8X8X8X8X8X8X8X8X8X8X",
"8X8X8X8X8X8X8X8X8X8X8X8X8X8X8X8X8X8X8X8X8X8X8X8X8X8X8X8X8X8X8X8X8X8X8Xu.u.0.u.u.8.0.u.8X8X8X8X8X8X8X8X8X8X8X8X8X8X8X8X8X8X8X8X8X",
"8X8X8X8X8X8X8X8X8X8X8X8X8X8X8X8X8X8X8X8X8X8X8X8X8X8X8X8X8X8X8X8X8X8Xu.p.u.u.0.0.u.u.t.8X8X8X8X8X8X8X8X8X8X8X8X8X8X8X8X8X8X8X8X8X",
"8X8X8X8X8X8X8X8X8X8X8X8X8X8X8X8X8X8X8X8X8X8X8X8X8X8X8X8X8X8X8X8X8X8X;.<.p.u.3.U 5.e.8X8X8X8X8X8X8X8X8X8X8X8X8X8X8X8X8X8X8X8X8X8X",
"8X8X8X8X8X8X8X8X8X8X8X8X8X8X8X8X8X8X8X8X8X8X8X8X8X8X8X8X8X8X8X8X8Xi p Z H q.u.e.u.8X8X8X8X8X8X8X8X8X8X8X8X8X8X8X8X8X8X8X8X8X8X8X",
"8X8X8X8X8X8X8X8X8X8X8X8X8X8X8X8X8X8X8X8X8X8X8X8X8X8X8X8X8X8X8X8XU.v.] t y D ,.u.u.8X8X8X8X8X8X8X8X8X8X8X8X8X8X8X8X8X8X8X8X8X8X8X",
"8X8X8X8X8X8X8X8X8X8X8X8X8X8X8X8X8X8X8X8X8X8X8X8X8X8X8X8X8X8X8X7X7X7X(.a.` r B :.w.y.8X8X8X8X8X8X8X8X8X8X8X8X8X8X8X8X8X8X8X8X8X8X",
"8X8X8X8X8X8X8X8X8X8X8X8X8X8X8X8X8X8X8X8X8X8X8X8X8X8X8X8X8X8X8X7X7X7X7X3XD.=.k u G 6.8X8X8X8X8X8X8X8X8X8X8X8X8X8X8X8X8X8X8X8X8X8X",
"8X8X8X8X8X8X8X8X8X8X8X8X8X8X8X8X8X8X8X8X8X8X8X8X8X8X8X8X8X8X7X7X7X7X7X7X7XoXC.| e S >.8X8X8X8X8X8X8X8X8X8X8X8X8X8X8X8X8X8X8X8X8X",
"8X8X8X8X8X8X8X8X8X8X8X8X8X8X8X8X8X8X8X8X8X8X8X8X8X8X8X8X8X7X7X7X7X7X7X7X7X7X7X}.f.n A 8X8X8X8X8X8X8X8X8X8X8X8X8X8X8X8X8X8X8X8X8X",
"8X8X8X8X8X8X8X8X8X8X8X8X8X8X8X8X8X8X8X8X8X8X8X8X8X8X8X8X8X7X7X7X7X7X7X7X7X7X7X7X4XN.O.8X8X8X8X8X8X8X8X8X8X8X8X8X8X8X8X8X8X8X8X8X",
"8X8X8X8X8X8X8X8X8X8X8X8X8X8X8X8X8X8X8X8X8X8X8X8X8X8X8X8X8X7X7X7X7X4X7X7X7X7X7X7X7X7X(.l.8X+ ; = - > $ % 1 8X8X8X8X8X8X8X8X8X8X8X",
"8X8X8X8X8X8X8X8X8X8X8X8X8X8X8X8X8X8X8X8X8X8X8X8X8X8X8X8X7X7X7X7X7X&X4X7X7X7X7X7X7X7X7X*X%.6 5 3 q w : 2 4 8X8X8X8X8X8X8X8X8X8X8X",
"8X8X8X8X8X8X8X8X8X8X8X8X8X8X8X8X8X8X8X8X8X8X8X8X8X8X8X8X8X7X7X7X2XOXL.>X7X7X7X7X7X7X7X7X7Xb.8X8X8X8X8X8X8X8X8X8X8X8X8X8X8X8X8X8X",
"8X8X8X8X8X8X8X8X8X8X8X8X8X8X8X8X8X8X8X8X8X8X8X8X8X8X8X8X8X8X8XA./.T.^.).4X7X7X7X7X7X7X7X7X7X7X8X8X8X8X8X8X8X8X8X8X8X8X8X8X8X8X8X",
"8X8X8X8X8X8X8X8X8X8X8X8X8X8X8X8X8X8X8X8X8X8X8X8X8X8X8X8X8X8X@ Q XX`.;X;X[.4X7X7X7X7X7X7X7X7X7X8X8X8X8X8X8X8X8X8X8X8X8X8X8X8X8X8X",
"8X8X8X8X8X8X8X8X8X8X8X8X8X8X8X8X8X8X8X8X8X8X8X8X8X8X8X      o ! !.I.I.].&X_.:X7X7X7X7X7X7X7X7X8X8X8X8X8X8X8X8X8X8X8X8X8X8X8X8X8X",
"8X8X8X8X8X8X8X8X8X8X8X8X8X8X8X8X8X8X8X8X8X8X8X8X8X          # z.`.J.`.'.Y.G.M.W.5X7X7X7X7X7X7X8X8X8X8X8X8X8X8X8X8X8X8X8X8X8X8X8X",
"8X8X8X8X8X8X8X8X8X8X8X8X8X8X8X8X8X8X8X8X8X8X8X          8X8X8X$X.X.X|.(.d.} ..F.Q.1X7X7X7X7X8X8X8X8X8X8X8X8X8X8X8X8X8X8X8X8X8X8X",
"8X8X8X8X8X8X8X8X8X8X8X8X8X8X8X8X8X8X8X8X8X          8X8X8X8X8X7X7X7X7X&X .i c ~.@XQ.#X7X7X8X8X8X8X8X8X8X8X8X8X8X8X8X8X8X8X8X8X8X",
"8X8X8X8X8X8X8X8X8X8X8X8X8X8X8X8X8X8X8X          8X8X8X8X8X8X7X7X7X7X7X+X^ i m }.7X4X}.-X8X8X8X8X8X8X8X8X8X8X8X8X8X8X8X8X8X8X8X8X",
"8X8X8X8X8X8X8X8X8X8X8X8X8X8X8X8X8X        8X8X8X8X8X8X8X8X8X7X7X7X7X7XOXV i V oX7X7X7X1X8X8X8X8X8X8X8X8X8X8X8X8X8X8X8X8X8X8X8X8X",
"8X8X8X8X8X8X8X8X8X8X8X8X8X8X8X          8X8X8X8X8X8X8X8X8X8X7X7X7X7X6X(.m i C OX7X7X7X7X8X8X8X8X8X8X8X8X8X8X8X8X8X8X8X8X8X8X8X8X",
"8X8X8X8X8X8X8X8X8X8X8X8X8X8X        8X8X8X8X8X8X8X8X8X8X8X7X7X7X7X7X2XV.x i C OX7X7X7X7X8X8X8X8X8X8X8X8X8X8X8X8X8X8X8X8X8X8X8X8X",
"8X8X8X8X8X8X8X8X8X8X8X8X        8X8X8X8X8X8X8X8X8X8X8X8X8X7X7X7X7X7X-X-.h i / @X7X7X7X7X8X8X8X8X8X8X8X8X8X8X8X8X8X8X8X8X8X8X8X8X",
"8X8X8X8X8X8X8X8X8X8X8X        8X8X8X8X8X8X8X8X8X8X8X8X8X8X7X7X7X7X7X@X{ s d | @X7X7X7X7X8X8X8X8X8X8X8X8X8X8X8X8X8X8X8X8X8X8X8X8X",
"8X8X8X8X8X8X8X8X8X8X8X8X8X8X8X8X8X8X8X8X8X8X8X8X8X8X8X8X7X7X7X7X7X7X+XC i g $.=X7X7X7X7X8X8X8X8X8X8X8X8X8X8X8X8X8X8X8X8X8X8X8X8X",
"8X8X8X8X8X8X8X8X8X8X8X8X8X8X8X8X8X8X8X8X8X8X8X8X8X8X8X8X7X7X7X7X7X7XoXM i k k.>X7X7X7X7X8X8X8X8X8X8X8X8X8X8X8X8X8X8X8X8X8X8X8X8X",
"8X8X8X8X8X8X8X8X8X8X8X8X8X8X8X8X8X8X8X8X8X8X8X8X8X8X8X7X7X7X7X7X7X4XL.n i x Z.2X7X7X7X7X8X8X8X8X8X8X8X8X8X8X8X8X8X8X8X8X8X8X8X8X",
"8X8X8X8X8X8X8X8X8X8X8X8X8X8X8X8X8X8X8X8X8X8X8X8X8X8X8X7X7X7X7X7X7X,Xx.l i m R.4X7X7X7X8X8X8X8X8X8X8X8X8X8X8X8X8X8X8X8X8X8X8X8X8X",
"8X8X8X8X8X8X8X8X8X8X8X8X8X8X8X8X8X8X8X8X8X8X8X8X8X8X8X7X7X7X7X7X7X%X+.f i m .X7X7X7X7X8X8X8X8X8X8X8X8X8X8X8X8X8X8X8X8X8X8X8X8X8X",
"8X8X8X8X8X8X8X8X8X8X8X8X8X8X8X8X8X8X8X8X8X8X8X8X8X8X7X7X7X7X7X7X7X@X( i i C OX7X7X7X7X8X8X8X8X8X8X8X8X8X8X8X8X8X8X8X8X8X8X8X8X8X",
"8X8X8X8X8X8X8X8X8X8X8X8X8X8X8X8X8X8X8X8X8X8X8X8X8X8X7X7X7X7X7X7X7XOXN i i C OX7X7X7X7X8X8X8X8X8X8X8X8X8X8X8X8X8X8X8X8X8X8X8X8X8X",
"8X8X8X8X8X8X8X8X8X8X8X8X8X8X8X8X8X8X8X8X8X8X8X8X8X7X7X7X7X7X7X7X6X(.m i i _ @X7X7X7X7X8X8X8X8X8X8X8X8X8X8X8X8X8X8X8X8X8X8X8X8X8X",
"8X8X8X8X8X8X8X8X8X8X8X8X8X8X8X8X8X8X8X8X8X8X8X8X8X7X7X7X7X7X7X7X2XV.x i d o.#X7X7X7X7X8X8X8X8X8X8X8X8X8X8X8X8X8X8X8X8X8X8X8X8X8X",
"8X8X8X8X8X8X8X8X8X8X8X8X8X8X8X8X8X8X8X8X8X8X8X8X8X7X7X7X7X7X7X7X-X*.g i h s.-X7X7X7X7X8X8X8X8X8X8X8X8X8X8X8X8X8X8X8X8X8X8X8X8X8X",
"8X8X8X8X8X8X8X8X8X8X8X8X8X8X8X8X8X8X8X8X8X8X8X8X7X7X7X7X7X7X7X7X@X[ s i z n.<X7X7X7X7X8X8X8X8X8X8X8X8X8X8X8X8X8X8X8X8X8X8X8X8X8X",
"8X8X8X8X8X8X8X8X8X8X8X8X8X8X8X8X8X8X8X8X8X8X8X8X7X7X7X7X7X7X7X7X+XC i i n K.4X7X7X7X7X8X8X8X8X8X8X8X8X8X8X8X8X8X8X8X8X8X8X8X8X8X",
"8X8X8X8X8X8X8X8X8X8X8X8X8X8X8X8X8X8X8X8X8X8X8X7X7X7X7X7X7X7X7X7X.Xm i i m {.7X7X7X7X7X8X8X8X8X8X8X8X8X8X8X8X8X8X8X8X8X8X8X8X8X8X",
"8X8X8X8X8X8X8X8X8X8X8X8X8X8X8X8X8X8X8X8X8X8X8X7X7X7X7X7X7X7X7X4XH.v i i C OX7X7X7X7X7X8X8X8X8X8X8X8X8X8X8X8X8X8X8X8X8X8X8X8X8X8X",
"8X8X8X8X8X8X8X8X8X8X8X8X8X8X8X8X8X8X8X8X8X8X7X7X7X7X7X7X7X7X7X:Xg.k i i C OX7X7X7X7X7X8X8X8X8X8X8X8X8X8X8X8X8X8X8X8X8X8X8X8X8X8X",
"8X8X8X8X8X8X8X8X8X8X8X8X8X8X8X8X8X8X8X8X8X8X7X7X7X7X7X7X7X7X7X#XX.d i i _ @X7X7X7X7X8X8X8X8X8X8X8X8X8X8X8X8X8X8X8X8X8X8X8X8X8X8X",
"8X8X8X8X8X8X8X8X8X8X8X8X8X8X8X8X8X8X8X8X8X8X7X7X7X7X7X7X7X7X7X@X^ i i d o.#X7X7X7X7X8X8X8X8X8X8X8X8X8X8X8X8X8X8X8X8X8X8X8X8X8X8X",
"8X8X8X8X8X8X8X8X8X8X8X8X8X8X8X8X8X8X8X8X8X7X7X7X7X7X7X7X7X7X7XOXM i i j d.;X7X7X7X7X8X8X8X8X8X8X8X8X8X8X8X8X8X8X8X8X8X8X8X8X8X8X",
"8X8X8X8X8X8X8X8X8X8X8X8X8X8X8X8X8X8X8X8X8X7X7X7X7X7X7X7X7X7X4XE.m i i z m.1X7X7X7X7X8X8X8X8X8X8X8X8X8X8X8X8X8X8X8X8X8X8X8X8X8X8X",
"8X8X8X8X8X8X8X8X8X8X8X8X8X8X8X8X8X8X8X8X7X7X7X7X7X7X7X7X7X7X<Xc.l i i n P.4X7X7X7X7X8X8X8X8X8X8X8X8X8X8X8X8X8X8X8X8X8X8X8X8X8X8X",
"8X8X8X8X8X8X8X8X8X8X8X8X8X8X8X8X8X8X8X7X7X7X7X7X7X7X7X7X7X7X&X#.f i i m  X7X7X7X7X7X8X8X8X8X8X8X8X8X8X8X8X8X8X8X8X8X8X8X8X8X8X8X",
"8X8X8X8X8X8X8X8X8X8X8X8X8X8X8X8X8X8X8X7X7X7X7X7X7X7X7X7X7X7X@X) i i i C OX7X7X7X7X7X8X8X8X8X8X8X8X8X8X8X8X8X8X8X8X8X8X8X8X8X8X8X",
"8X8X8X8X8X8X8X8X8X8X8X8X8X8X8X8X8X8X7X7X7X7X7X7X7X7X7X7X7X7XOXC i i i ~ +X7X7X7X7X7X8X8X8X8X8X8X8X8X8X8X8X8X8X8X8X8X8X8X8X8X8X8X",
"8X8X8X8X8X8X8X8X8X8X8X8X8X8X8X8X8X8X7X7X7X7X7X7X7X7X7X7X7X6X(.m i i i ' @X7X7X7X7X7X8X8X8X8X8X8X8X8X8X8X8X8X8X8X8X8X8X8X8X8X8X8X",
"8X8X8X8X8X8X8X8X8X8X8X8X8X8X8X8X8X7X7X7X7X7X7X7X7X7X7X7X7X2XB.x i i f @.&X7X7X7X7X7X8X8X8X8X8X8X8X8X8X8X8X8X8X8X8X8X8X8X8X8X8X8X",
"8X8X8X8X8X8X8X8X8X8X8X8X8X8X8X8X7X7X7X7X7X7X7X7X7X7X7X7X7X=X&.g i i k h.:X7X7X7X7X8X8X8X8X8X8X8X8X8X8X8X8X8X8X8X8X8X8X8X8X8X8X8X",
"8X8X8X8X8X8X8X8X8X8X8X8X8X8X8X8X7X7X7X7X7X7X7X7X7X7X7X7X7X@X] a i i x S.2X7X7X7X7X8X8X8X8X8X8X8X8X8X8X8X8X8X8X8X8X8X8X8X8X8X8X8X",
"8X8X8X8X8X8X8X8X8X8X8X8X8X8X8X8X7X7X7X7X7X7X7X7X7X7X7X7X7XOXN i i i b Y.4X7X7X7X7X8X8X8X8X8X8X8X8X8X8X8X8X8X8X8X8X8X8X8X8X8X8X8X"
};
